 0 
SECTION
 2 
HEADER
 9 
$ACADVER
 1 
AC1004
 9 
$EXTMIN
 10 
0.0
 20 
0.0
 9 
$EXTMAX
 10 
3.8
 20 
2.5
 9 
$LIMMIN
 10 
0.0
 20 
0.0
 9 
$LIMMAX
 10 
3.8
 20 
2.5
 9 
$INSBASE
 10 
0.0
 20 
0.0
 9 
$VIEWCTR
 10 
1.9
 20 
1.25
 9 
$VIEWSIZE
 40 
2.5
 9 
$ORTHOMODE
 70 
 0 
 9 
$REGENMODE
 70 
 1 
 9 
$FILLMODE
 70 
 1 
 9 
$QTEXTMODE
 70 
 0 
 9 
$DRAGMODE
 70 
 2 
 9 
$LTSCALE
 40 
1.0
 9 
$OSMODE
 70 
 0 
 9 
$ATTMODE
 70 
 1 
 9 
$TEXTSIZE
 40 
0.2
 9 
$TRACEWID
 40 
0.05
 9 
$TEXTSTYLE
 7 
STANDARD
 9 
$CLAYER
 8 
0
 9 
$CELTYPE
 6 
BYLAYER
 9 
$CECOLOR
 62 
 256 
 9 
$DIMSCALE
 40 
1.0
 9 
$DIMLFAC
 40 
1.0
 9 
$LUNITS
 70 
 2 
 9 
$LUPREC
 70 
 4 
 9 
$AXISMODE
 70 
 0 
 9 
$AXISUNIT
 10 
0.0
 20 
0.0
 9 
$SKETCHINC
 40 
0.1
 9 
$MENU
 1 
acad
 9 
$ELEVATION
 40 
0.0
 9 
$THICKNESS
 40 
0.0
 9 
$VIEWDIR
 10 
0.0
 20 
0.0
 30 
1.0
 9 
$LIMCHECK
 70 
 0 
 9 
$BLIPMODE
 70 
 1 
 9 
$FASTZOOM
 70 
 1 
 9 
$SKPOLY
 70 
 0 
 9 
$ANGBASE
 50 
0.0
 9 
$ANGDIR
 70 
 0 
 9 
$PDMODE
 70 
 0 
 9 
$PDSIZE
 40 
0.0
 9 
$PLINEWID
 40 
0.0
 9 
$COORDS
 70 
 0 
 9 
$ATTDIA
 70 
 0 
 9 
$ATTREQ
 70 
 1 
 0 
ENDSEC
 0 
SECTION
 2 
TABLES
 0 
TABLE
 2 
LTYPE
 70 
 10 
 0 
LTYPE
 2 
CONTINUOUS
 70 
 64 
 3 
Solid line
 72 
 65 
 73 
 0 
 40 
0.0
 0 
ENDTAB
 0 
TABLE
 2 
LAYER
 70 
 153 
 0 
LAYER
 2 
0
 70 
 64 
 62 
 7 
 6 
CONTINUOUS
 0 
ENDTAB
 0 
ENDSEC
 0 
SECTION
 2 
BLOCKS
 0 
ENDSEC
 0 
SECTION
 2 
ENTITIES
 0 
LINE
 8 
0
 62 
 7 
 10 
0.0
 20 
2.5
 11 
3.8
 21 
2.5
 0 
LINE
 8 
0
 62 
 7 
 10 
3.8
 20 
2.5
 11 
3.8
 21 
0.0
 0 
LINE
 8 
0
 62 
 7 
 10 
3.8
 20 
0.0
 11 
0.0
 21 
0.0
 0 
LINE
 8 
0
 62 
 7 
 10 
0.0
 20 
0.0
 11 
0.0
 21 
2.5
 0 
LINE
 8 
0
 62 
 7 
 10 
0.188
 20 
2.318
 11 
0.213
 21 
2.318
 0 
LINE
 8 
0
 62 
 7 
 10 
0.213
 20 
2.318
 11 
0.213
 21 
2.283
 0 
LINE
 8 
0
 62 
 7 
 10 
0.213
 20 
2.283
 11 
0.188
 21 
2.283
 0 
LINE
 8 
0
 62 
 7 
 10 
0.188
 20 
2.283
 11 
0.188
 21 
2.318
 0 
LINE
 8 
0
 62 
 7 
 10 
0.188
 20 
2.268
 11 
0.213
 21 
2.268
 0 
LINE
 8 
0
 62 
 7 
 10 
0.213
 20 
2.268
 11 
0.213
 21 
2.233
 0 
LINE
 8 
0
 62 
 7 
 10 
0.213
 20 
2.233
 11 
0.188
 21 
2.233
 0 
LINE
 8 
0
 62 
 7 
 10 
0.188
 20 
2.233
 11 
0.188
 21 
2.268
 0 
LINE
 8 
0
 62 
 7 
 10 
0.188
 20 
2.242
 11 
0.213
 21 
2.242
 0 
LINE
 8 
0
 62 
 7 
 10 
0.213
 20 
2.242
 11 
0.213
 21 
2.207
 0 
LINE
 8 
0
 62 
 7 
 10 
0.213
 20 
2.207
 11 
0.188
 21 
2.207
 0 
LINE
 8 
0
 62 
 7 
 10 
0.188
 20 
2.207
 11 
0.188
 21 
2.242
 0 
LINE
 8 
0
 62 
 7 
 10 
0.188
 20 
2.192
 11 
0.213
 21 
2.192
 0 
LINE
 8 
0
 62 
 7 
 10 
0.213
 20 
2.192
 11 
0.213
 21 
2.157
 0 
LINE
 8 
0
 62 
 7 
 10 
0.213
 20 
2.157
 11 
0.188
 21 
2.157
 0 
LINE
 8 
0
 62 
 7 
 10 
0.188
 20 
2.157
 11 
0.188
 21 
2.192
 0 
LINE
 8 
0
 62 
 7 
 10 
0.416
 20 
2.159
 11 
0.434
 21 
2.159
 0 
LINE
 8 
0
 62 
 7 
 10 
0.434
 20 
2.159
 11 
0.434
 21 
2.141
 0 
LINE
 8 
0
 62 
 7 
 10 
0.434
 20 
2.141
 11 
0.416
 21 
2.141
 0 
LINE
 8 
0
 62 
 7 
 10 
0.416
 20 
2.141
 11 
0.416
 21 
2.159
 0 
LINE
 8 
0
 62 
 7 
 10 
0.441
 20 
2.174
 11 
0.481
 21 
2.174
 0 
LINE
 8 
0
 62 
 7 
 10 
0.481
 20 
2.174
 11 
0.481
 21 
2.165
 0 
LINE
 8 
0
 62 
 7 
 10 
0.481
 20 
2.165
 11 
0.441
 21 
2.165
 0 
LINE
 8 
0
 62 
 7 
 10 
0.441
 20 
2.165
 11 
0.441
 21 
2.174
 0 
LINE
 8 
0
 62 
 7 
 10 
0.441
 20 
2.154
 11 
0.481
 21 
2.154
 0 
LINE
 8 
0
 62 
 7 
 10 
0.481
 20 
2.154
 11 
0.481
 21 
2.145
 0 
LINE
 8 
0
 62 
 7 
 10 
0.481
 20 
2.145
 11 
0.441
 21 
2.145
 0 
LINE
 8 
0
 62 
 7 
 10 
0.441
 20 
2.145
 11 
0.441
 21 
2.154
 0 
LINE
 8 
0
 62 
 7 
 10 
0.441
 20 
2.136
 11 
0.481
 21 
2.136
 0 
LINE
 8 
0
 62 
 7 
 10 
0.481
 20 
2.136
 11 
0.481
 21 
2.127
 0 
LINE
 8 
0
 62 
 7 
 10 
0.481
 20 
2.127
 11 
0.441
 21 
2.127
 0 
LINE
 8 
0
 62 
 7 
 10 
0.441
 20 
2.127
 11 
0.441
 21 
2.136
 0 
LINE
 8 
0
 62 
 7 
 10 
0.368
 20 
2.174
 11 
0.408
 21 
2.174
 0 
LINE
 8 
0
 62 
 7 
 10 
0.408
 20 
2.174
 11 
0.408
 21 
2.165
 0 
LINE
 8 
0
 62 
 7 
 10 
0.408
 20 
2.165
 11 
0.368
 21 
2.165
 0 
LINE
 8 
0
 62 
 7 
 10 
0.368
 20 
2.165
 11 
0.368
 21 
2.174
 0 
LINE
 8 
0
 62 
 7 
 10 
0.368
 20 
2.154
 11 
0.408
 21 
2.154
 0 
LINE
 8 
0
 62 
 7 
 10 
0.408
 20 
2.154
 11 
0.408
 21 
2.145
 0 
LINE
 8 
0
 62 
 7 
 10 
0.408
 20 
2.145
 11 
0.368
 21 
2.145
 0 
LINE
 8 
0
 62 
 7 
 10 
0.368
 20 
2.145
 11 
0.368
 21 
2.154
 0 
LINE
 8 
0
 62 
 7 
 10 
0.368
 20 
2.136
 11 
0.408
 21 
2.136
 0 
LINE
 8 
0
 62 
 7 
 10 
0.408
 20 
2.136
 11 
0.408
 21 
2.127
 0 
LINE
 8 
0
 62 
 7 
 10 
0.408
 20 
2.127
 11 
0.368
 21 
2.127
 0 
LINE
 8 
0
 62 
 7 
 10 
0.368
 20 
2.127
 11 
0.368
 21 
2.136
 0 
LINE
 8 
0
 62 
 7 
 10 
0.541
 20 
2.159
 11 
0.559
 21 
2.159
 0 
LINE
 8 
0
 62 
 7 
 10 
0.559
 20 
2.159
 11 
0.559
 21 
2.141
 0 
LINE
 8 
0
 62 
 7 
 10 
0.559
 20 
2.141
 11 
0.541
 21 
2.141
 0 
LINE
 8 
0
 62 
 7 
 10 
0.541
 20 
2.141
 11 
0.541
 21 
2.159
 0 
LINE
 8 
0
 62 
 7 
 10 
0.566
 20 
2.174
 11 
0.606
 21 
2.174
 0 
LINE
 8 
0
 62 
 7 
 10 
0.606
 20 
2.174
 11 
0.606
 21 
2.165
 0 
LINE
 8 
0
 62 
 7 
 10 
0.606
 20 
2.165
 11 
0.566
 21 
2.165
 0 
LINE
 8 
0
 62 
 7 
 10 
0.566
 20 
2.165
 11 
0.566
 21 
2.174
 0 
LINE
 8 
0
 62 
 7 
 10 
0.566
 20 
2.154
 11 
0.606
 21 
2.154
 0 
LINE
 8 
0
 62 
 7 
 10 
0.606
 20 
2.154
 11 
0.606
 21 
2.145
 0 
LINE
 8 
0
 62 
 7 
 10 
0.606
 20 
2.145
 11 
0.566
 21 
2.145
 0 
LINE
 8 
0
 62 
 7 
 10 
0.566
 20 
2.145
 11 
0.566
 21 
2.154
 0 
LINE
 8 
0
 62 
 7 
 10 
0.566
 20 
2.136
 11 
0.606
 21 
2.136
 0 
LINE
 8 
0
 62 
 7 
 10 
0.606
 20 
2.136
 11 
0.606
 21 
2.127
 0 
LINE
 8 
0
 62 
 7 
 10 
0.606
 20 
2.127
 11 
0.566
 21 
2.127
 0 
LINE
 8 
0
 62 
 7 
 10 
0.566
 20 
2.127
 11 
0.566
 21 
2.136
 0 
LINE
 8 
0
 62 
 7 
 10 
0.493
 20 
2.174
 11 
0.533
 21 
2.174
 0 
LINE
 8 
0
 62 
 7 
 10 
0.533
 20 
2.174
 11 
0.533
 21 
2.165
 0 
LINE
 8 
0
 62 
 7 
 10 
0.533
 20 
2.165
 11 
0.493
 21 
2.165
 0 
LINE
 8 
0
 62 
 7 
 10 
0.493
 20 
2.165
 11 
0.493
 21 
2.174
 0 
LINE
 8 
0
 62 
 7 
 10 
0.493
 20 
2.154
 11 
0.533
 21 
2.154
 0 
LINE
 8 
0
 62 
 7 
 10 
0.533
 20 
2.154
 11 
0.533
 21 
2.145
 0 
LINE
 8 
0
 62 
 7 
 10 
0.533
 20 
2.145
 11 
0.493
 21 
2.145
 0 
LINE
 8 
0
 62 
 7 
 10 
0.493
 20 
2.145
 11 
0.493
 21 
2.154
 0 
LINE
 8 
0
 62 
 7 
 10 
0.493
 20 
2.136
 11 
0.533
 21 
2.136
 0 
LINE
 8 
0
 62 
 7 
 10 
0.533
 20 
2.136
 11 
0.533
 21 
2.127
 0 
LINE
 8 
0
 62 
 7 
 10 
0.533
 20 
2.127
 11 
0.493
 21 
2.127
 0 
LINE
 8 
0
 62 
 7 
 10 
0.493
 20 
2.127
 11 
0.493
 21 
2.136
 0 
LINE
 8 
0
 62 
 7 
 10 
0.666
 20 
2.159
 11 
0.684
 21 
2.159
 0 
LINE
 8 
0
 62 
 7 
 10 
0.684
 20 
2.159
 11 
0.684
 21 
2.141
 0 
LINE
 8 
0
 62 
 7 
 10 
0.684
 20 
2.141
 11 
0.666
 21 
2.141
 0 
LINE
 8 
0
 62 
 7 
 10 
0.666
 20 
2.141
 11 
0.666
 21 
2.159
 0 
LINE
 8 
0
 62 
 7 
 10 
0.691
 20 
2.174
 11 
0.731
 21 
2.174
 0 
LINE
 8 
0
 62 
 7 
 10 
0.731
 20 
2.174
 11 
0.731
 21 
2.165
 0 
LINE
 8 
0
 62 
 7 
 10 
0.731
 20 
2.165
 11 
0.691
 21 
2.165
 0 
LINE
 8 
0
 62 
 7 
 10 
0.691
 20 
2.165
 11 
0.691
 21 
2.174
 0 
LINE
 8 
0
 62 
 7 
 10 
0.691
 20 
2.154
 11 
0.731
 21 
2.154
 0 
LINE
 8 
0
 62 
 7 
 10 
0.731
 20 
2.154
 11 
0.731
 21 
2.145
 0 
LINE
 8 
0
 62 
 7 
 10 
0.731
 20 
2.145
 11 
0.691
 21 
2.145
 0 
LINE
 8 
0
 62 
 7 
 10 
0.691
 20 
2.145
 11 
0.691
 21 
2.154
 0 
LINE
 8 
0
 62 
 7 
 10 
0.691
 20 
2.136
 11 
0.731
 21 
2.136
 0 
LINE
 8 
0
 62 
 7 
 10 
0.731
 20 
2.136
 11 
0.731
 21 
2.127
 0 
LINE
 8 
0
 62 
 7 
 10 
0.731
 20 
2.127
 11 
0.691
 21 
2.127
 0 
LINE
 8 
0
 62 
 7 
 10 
0.691
 20 
2.127
 11 
0.691
 21 
2.136
 0 
LINE
 8 
0
 62 
 7 
 10 
0.618
 20 
2.174
 11 
0.658
 21 
2.174
 0 
LINE
 8 
0
 62 
 7 
 10 
0.658
 20 
2.174
 11 
0.658
 21 
2.165
 0 
LINE
 8 
0
 62 
 7 
 10 
0.658
 20 
2.165
 11 
0.618
 21 
2.165
 0 
LINE
 8 
0
 62 
 7 
 10 
0.618
 20 
2.165
 11 
0.618
 21 
2.174
 0 
LINE
 8 
0
 62 
 7 
 10 
0.618
 20 
2.154
 11 
0.658
 21 
2.154
 0 
LINE
 8 
0
 62 
 7 
 10 
0.658
 20 
2.154
 11 
0.658
 21 
2.145
 0 
LINE
 8 
0
 62 
 7 
 10 
0.658
 20 
2.145
 11 
0.618
 21 
2.145
 0 
LINE
 8 
0
 62 
 7 
 10 
0.618
 20 
2.145
 11 
0.618
 21 
2.154
 0 
LINE
 8 
0
 62 
 7 
 10 
0.618
 20 
2.136
 11 
0.658
 21 
2.136
 0 
LINE
 8 
0
 62 
 7 
 10 
0.658
 20 
2.136
 11 
0.658
 21 
2.127
 0 
LINE
 8 
0
 62 
 7 
 10 
0.658
 20 
2.127
 11 
0.618
 21 
2.127
 0 
LINE
 8 
0
 62 
 7 
 10 
0.618
 20 
2.127
 11 
0.618
 21 
2.136
 0 
LINE
 8 
0
 62 
 7 
 10 
0.462
 20 
2.068
 11 
0.487
 21 
2.068
 0 
LINE
 8 
0
 62 
 7 
 10 
0.487
 20 
2.068
 11 
0.487
 21 
2.033
 0 
LINE
 8 
0
 62 
 7 
 10 
0.487
 20 
2.033
 11 
0.462
 21 
2.033
 0 
LINE
 8 
0
 62 
 7 
 10 
0.462
 20 
2.033
 11 
0.462
 21 
2.068
 0 
LINE
 8 
0
 62 
 7 
 10 
0.462
 20 
2.118
 11 
0.487
 21 
2.118
 0 
LINE
 8 
0
 62 
 7 
 10 
0.487
 20 
2.118
 11 
0.487
 21 
2.083
 0 
LINE
 8 
0
 62 
 7 
 10 
0.487
 20 
2.083
 11 
0.462
 21 
2.083
 0 
LINE
 8 
0
 62 
 7 
 10 
0.462
 20 
2.083
 11 
0.462
 21 
2.118
 0 
LINE
 8 
0
 62 
 7 
 10 
0.588
 20 
2.068
 11 
0.613
 21 
2.068
 0 
LINE
 8 
0
 62 
 7 
 10 
0.613
 20 
2.068
 11 
0.613
 21 
2.033
 0 
LINE
 8 
0
 62 
 7 
 10 
0.613
 20 
2.033
 11 
0.588
 21 
2.033
 0 
LINE
 8 
0
 62 
 7 
 10 
0.588
 20 
2.033
 11 
0.588
 21 
2.068
 0 
LINE
 8 
0
 62 
 7 
 10 
0.588
 20 
2.118
 11 
0.613
 21 
2.118
 0 
LINE
 8 
0
 62 
 7 
 10 
0.613
 20 
2.118
 11 
0.613
 21 
2.083
 0 
LINE
 8 
0
 62 
 7 
 10 
0.613
 20 
2.083
 11 
0.588
 21 
2.083
 0 
LINE
 8 
0
 62 
 7 
 10 
0.588
 20 
2.083
 11 
0.588
 21 
2.118
 0 
LINE
 8 
0
 62 
 7 
 10 
0.712
 20 
2.068
 11 
0.737
 21 
2.068
 0 
LINE
 8 
0
 62 
 7 
 10 
0.737
 20 
2.068
 11 
0.737
 21 
2.033
 0 
LINE
 8 
0
 62 
 7 
 10 
0.737
 20 
2.033
 11 
0.712
 21 
2.033
 0 
LINE
 8 
0
 62 
 7 
 10 
0.712
 20 
2.033
 11 
0.712
 21 
2.068
 0 
LINE
 8 
0
 62 
 7 
 10 
0.712
 20 
2.118
 11 
0.737
 21 
2.118
 0 
LINE
 8 
0
 62 
 7 
 10 
0.737
 20 
2.118
 11 
0.737
 21 
2.083
 0 
LINE
 8 
0
 62 
 7 
 10 
0.737
 20 
2.083
 11 
0.712
 21 
2.083
 0 
LINE
 8 
0
 62 
 7 
 10 
0.712
 20 
2.083
 11 
0.712
 21 
2.118
 0 
LINE
 8 
0
 62 
 7 
 10 
0.458
 20 
2.038
 11 
0.493
 21 
2.038
 0 
LINE
 8 
0
 62 
 7 
 10 
0.493
 20 
2.038
 11 
0.493
 21 
2.013
 0 
LINE
 8 
0
 62 
 7 
 10 
0.493
 20 
2.013
 11 
0.458
 21 
2.013
 0 
LINE
 8 
0
 62 
 7 
 10 
0.458
 20 
2.013
 11 
0.458
 21 
2.038
 0 
LINE
 8 
0
 62 
 7 
 10 
0.408
 20 
2.038
 11 
0.443
 21 
2.038
 0 
LINE
 8 
0
 62 
 7 
 10 
0.443
 20 
2.038
 11 
0.443
 21 
2.013
 0 
LINE
 8 
0
 62 
 7 
 10 
0.443
 20 
2.013
 11 
0.408
 21 
2.013
 0 
LINE
 8 
0
 62 
 7 
 10 
0.408
 20 
2.013
 11 
0.408
 21 
2.038
 0 
LINE
 8 
0
 62 
 7 
 10 
0.582
 20 
2.038
 11 
0.617
 21 
2.038
 0 
LINE
 8 
0
 62 
 7 
 10 
0.617
 20 
2.038
 11 
0.617
 21 
2.013
 0 
LINE
 8 
0
 62 
 7 
 10 
0.617
 20 
2.013
 11 
0.582
 21 
2.013
 0 
LINE
 8 
0
 62 
 7 
 10 
0.582
 20 
2.013
 11 
0.582
 21 
2.038
 0 
LINE
 8 
0
 62 
 7 
 10 
0.532
 20 
2.038
 11 
0.567
 21 
2.038
 0 
LINE
 8 
0
 62 
 7 
 10 
0.567
 20 
2.038
 11 
0.567
 21 
2.013
 0 
LINE
 8 
0
 62 
 7 
 10 
0.567
 20 
2.013
 11 
0.532
 21 
2.013
 0 
LINE
 8 
0
 62 
 7 
 10 
0.532
 20 
2.013
 11 
0.532
 21 
2.038
 0 
LINE
 8 
0
 62 
 7 
 10 
0.708
 20 
2.038
 11 
0.743
 21 
2.038
 0 
LINE
 8 
0
 62 
 7 
 10 
0.743
 20 
2.038
 11 
0.743
 21 
2.013
 0 
LINE
 8 
0
 62 
 7 
 10 
0.743
 20 
2.013
 11 
0.708
 21 
2.013
 0 
LINE
 8 
0
 62 
 7 
 10 
0.708
 20 
2.013
 11 
0.708
 21 
2.038
 0 
LINE
 8 
0
 62 
 7 
 10 
0.658
 20 
2.038
 11 
0.693
 21 
2.038
 0 
LINE
 8 
0
 62 
 7 
 10 
0.693
 20 
2.038
 11 
0.693
 21 
2.013
 0 
LINE
 8 
0
 62 
 7 
 10 
0.693
 20 
2.013
 11 
0.658
 21 
2.013
 0 
LINE
 8 
0
 62 
 7 
 10 
0.658
 20 
2.013
 11 
0.658
 21 
2.038
 0 
LINE
 8 
0
 62 
 7 
 10 
0.458
 20 
1.988
 11 
0.493
 21 
1.988
 0 
LINE
 8 
0
 62 
 7 
 10 
0.493
 20 
1.988
 11 
0.493
 21 
1.963
 0 
LINE
 8 
0
 62 
 7 
 10 
0.493
 20 
1.963
 11 
0.458
 21 
1.963
 0 
LINE
 8 
0
 62 
 7 
 10 
0.458
 20 
1.963
 11 
0.458
 21 
1.988
 0 
LINE
 8 
0
 62 
 7 
 10 
0.408
 20 
1.988
 11 
0.443
 21 
1.988
 0 
LINE
 8 
0
 62 
 7 
 10 
0.443
 20 
1.988
 11 
0.443
 21 
1.963
 0 
LINE
 8 
0
 62 
 7 
 10 
0.443
 20 
1.963
 11 
0.408
 21 
1.963
 0 
LINE
 8 
0
 62 
 7 
 10 
0.408
 20 
1.963
 11 
0.408
 21 
1.988
 0 
LINE
 8 
0
 62 
 7 
 10 
0.582
 20 
1.988
 11 
0.617
 21 
1.988
 0 
LINE
 8 
0
 62 
 7 
 10 
0.617
 20 
1.988
 11 
0.617
 21 
1.963
 0 
LINE
 8 
0
 62 
 7 
 10 
0.617
 20 
1.963
 11 
0.582
 21 
1.963
 0 
LINE
 8 
0
 62 
 7 
 10 
0.582
 20 
1.963
 11 
0.582
 21 
1.988
 0 
LINE
 8 
0
 62 
 7 
 10 
0.532
 20 
1.988
 11 
0.567
 21 
1.988
 0 
LINE
 8 
0
 62 
 7 
 10 
0.567
 20 
1.988
 11 
0.567
 21 
1.963
 0 
LINE
 8 
0
 62 
 7 
 10 
0.567
 20 
1.963
 11 
0.532
 21 
1.963
 0 
LINE
 8 
0
 62 
 7 
 10 
0.532
 20 
1.963
 11 
0.532
 21 
1.988
 0 
LINE
 8 
0
 62 
 7 
 10 
0.708
 20 
1.988
 11 
0.743
 21 
1.988
 0 
LINE
 8 
0
 62 
 7 
 10 
0.743
 20 
1.988
 11 
0.743
 21 
1.963
 0 
LINE
 8 
0
 62 
 7 
 10 
0.743
 20 
1.963
 11 
0.708
 21 
1.963
 0 
LINE
 8 
0
 62 
 7 
 10 
0.708
 20 
1.963
 11 
0.708
 21 
1.988
 0 
LINE
 8 
0
 62 
 7 
 10 
0.658
 20 
1.988
 11 
0.693
 21 
1.988
 0 
LINE
 8 
0
 62 
 7 
 10 
0.693
 20 
1.988
 11 
0.693
 21 
1.963
 0 
LINE
 8 
0
 62 
 7 
 10 
0.693
 20 
1.963
 11 
0.658
 21 
1.963
 0 
LINE
 8 
0
 62 
 7 
 10 
0.658
 20 
1.963
 11 
0.658
 21 
1.988
 0 
LINE
 8 
0
 62 
 7 
 10 
0.368
 20 
1.782
 11 
0.432
 21 
1.782
 0 
LINE
 8 
0
 62 
 7 
 10 
0.432
 20 
1.782
 11 
0.432
 21 
1.718
 0 
LINE
 8 
0
 62 
 7 
 10 
0.432
 20 
1.718
 11 
0.368
 21 
1.718
 0 
LINE
 8 
0
 62 
 7 
 10 
0.368
 20 
1.718
 11 
0.368
 21 
1.782
 0 
LINE
 8 
0
 62 
 7 
 10 
0.368
 20 
1.907
 11 
0.432
 21 
1.907
 0 
LINE
 8 
0
 62 
 7 
 10 
0.432
 20 
1.907
 11 
0.432
 21 
1.843
 0 
LINE
 8 
0
 62 
 7 
 10 
0.432
 20 
1.843
 11 
0.368
 21 
1.843
 0 
LINE
 8 
0
 62 
 7 
 10 
0.368
 20 
1.843
 11 
0.368
 21 
1.907
 0 
LINE
 8 
0
 62 
 7 
 10 
0.493
 20 
1.782
 11 
0.557
 21 
1.782
 0 
LINE
 8 
0
 62 
 7 
 10 
0.557
 20 
1.782
 11 
0.557
 21 
1.718
 0 
LINE
 8 
0
 62 
 7 
 10 
0.557
 20 
1.718
 11 
0.493
 21 
1.718
 0 
LINE
 8 
0
 62 
 7 
 10 
0.493
 20 
1.718
 11 
0.493
 21 
1.782
 0 
LINE
 8 
0
 62 
 7 
 10 
0.493
 20 
1.907
 11 
0.557
 21 
1.907
 0 
LINE
 8 
0
 62 
 7 
 10 
0.557
 20 
1.907
 11 
0.557
 21 
1.843
 0 
LINE
 8 
0
 62 
 7 
 10 
0.557
 20 
1.843
 11 
0.493
 21 
1.843
 0 
LINE
 8 
0
 62 
 7 
 10 
0.493
 20 
1.843
 11 
0.493
 21 
1.907
 0 
LINE
 8 
0
 62 
 7 
 10 
0.618
 20 
1.782
 11 
0.682
 21 
1.782
 0 
LINE
 8 
0
 62 
 7 
 10 
0.682
 20 
1.782
 11 
0.682
 21 
1.718
 0 
LINE
 8 
0
 62 
 7 
 10 
0.682
 20 
1.718
 11 
0.618
 21 
1.718
 0 
LINE
 8 
0
 62 
 7 
 10 
0.618
 20 
1.718
 11 
0.618
 21 
1.782
 0 
LINE
 8 
0
 62 
 7 
 10 
0.618
 20 
1.907
 11 
0.682
 21 
1.907
 0 
LINE
 8 
0
 62 
 7 
 10 
0.682
 20 
1.907
 11 
0.682
 21 
1.843
 0 
LINE
 8 
0
 62 
 7 
 10 
0.682
 20 
1.843
 11 
0.618
 21 
1.843
 0 
LINE
 8 
0
 62 
 7 
 10 
0.618
 20 
1.843
 11 
0.618
 21 
1.907
 0 
LINE
 8 
0
 62 
 7 
 10 
0.808
 20 
2.162
 11 
0.843
 21 
2.162
 0 
LINE
 8 
0
 62 
 7 
 10 
0.843
 20 
2.162
 11 
0.843
 21 
2.137
 0 
LINE
 8 
0
 62 
 7 
 10 
0.843
 20 
2.137
 11 
0.808
 21 
2.137
 0 
LINE
 8 
0
 62 
 7 
 10 
0.808
 20 
2.137
 11 
0.808
 21 
2.162
 0 
LINE
 8 
0
 62 
 7 
 10 
0.758
 20 
2.162
 11 
0.793
 21 
2.162
 0 
LINE
 8 
0
 62 
 7 
 10 
0.793
 20 
2.162
 11 
0.793
 21 
2.137
 0 
LINE
 8 
0
 62 
 7 
 10 
0.793
 20 
2.137
 11 
0.758
 21 
2.137
 0 
LINE
 8 
0
 62 
 7 
 10 
0.758
 20 
2.137
 11 
0.758
 21 
2.162
 0 
LINE
 8 
0
 62 
 7 
 10 
0.88
 20 
2.111
 11 
0.92
 21 
2.111
 0 
LINE
 8 
0
 62 
 7 
 10 
0.92
 20 
2.111
 11 
0.92
 21 
2.089
 0 
LINE
 8 
0
 62 
 7 
 10 
0.92
 20 
2.089
 11 
0.88
 21 
2.089
 0 
LINE
 8 
0
 62 
 7 
 10 
0.88
 20 
2.089
 11 
0.88
 21 
2.111
 0 
LINE
 8 
0
 62 
 7 
 10 
0.88
 20 
2.064
 11 
0.92
 21 
2.064
 0 
LINE
 8 
0
 62 
 7 
 10 
0.92
 20 
2.064
 11 
0.92
 21 
2.042
 0 
LINE
 8 
0
 62 
 7 
 10 
0.92
 20 
2.042
 11 
0.88
 21 
2.042
 0 
LINE
 8 
0
 62 
 7 
 10 
0.88
 20 
2.042
 11 
0.88
 21 
2.064
 0 
LINE
 8 
0
 62 
 7 
 10 
0.88
 20 
2.157
 11 
0.92
 21 
2.157
 0 
LINE
 8 
0
 62 
 7 
 10 
0.92
 20 
2.157
 11 
0.92
 21 
2.135
 0 
LINE
 8 
0
 62 
 7 
 10 
0.92
 20 
2.135
 11 
0.88
 21 
2.135
 0 
LINE
 8 
0
 62 
 7 
 10 
0.88
 20 
2.135
 11 
0.88
 21 
2.157
 0 
LINE
 8 
0
 62 
 7 
 10 
0.979
 20 
2.157
 11 
1.019
 21 
2.157
 0 
LINE
 8 
0
 62 
 7 
 10 
1.019
 20 
2.157
 11 
1.019
 21 
2.135
 0 
LINE
 8 
0
 62 
 7 
 10 
1.019
 20 
2.135
 11 
0.979
 21 
2.135
 0 
LINE
 8 
0
 62 
 7 
 10 
0.979
 20 
2.135
 11 
0.979
 21 
2.157
 0 
LINE
 8 
0
 62 
 7 
 10 
0.979
 20 
2.064
 11 
1.019
 21 
2.064
 0 
LINE
 8 
0
 62 
 7 
 10 
1.019
 20 
2.064
 11 
1.019
 21 
2.042
 0 
LINE
 8 
0
 62 
 7 
 10 
1.019
 20 
2.042
 11 
0.979
 21 
2.042
 0 
LINE
 8 
0
 62 
 7 
 10 
0.979
 20 
2.042
 11 
0.979
 21 
2.064
 0 
LINE
 8 
0
 62 
 7 
 10 
0.979
 20 
2.111
 11 
1.019
 21 
2.111
 0 
LINE
 8 
0
 62 
 7 
 10 
1.019
 20 
2.111
 11 
1.019
 21 
2.089
 0 
LINE
 8 
0
 62 
 7 
 10 
1.019
 20 
2.089
 11 
0.979
 21 
2.089
 0 
LINE
 8 
0
 62 
 7 
 10 
0.979
 20 
2.089
 11 
0.979
 21 
2.111
 0 
LINE
 8 
0
 62 
 7 
 10 
1.082
 20 
2.062
 11 
1.117
 21 
2.062
 0 
LINE
 8 
0
 62 
 7 
 10 
1.117
 20 
2.062
 11 
1.117
 21 
2.037
 0 
LINE
 8 
0
 62 
 7 
 10 
1.117
 20 
2.037
 11 
1.082
 21 
2.037
 0 
LINE
 8 
0
 62 
 7 
 10 
1.082
 20 
2.037
 11 
1.082
 21 
2.062
 0 
LINE
 8 
0
 62 
 7 
 10 
1.032
 20 
2.062
 11 
1.067
 21 
2.062
 0 
LINE
 8 
0
 62 
 7 
 10 
1.067
 20 
2.062
 11 
1.067
 21 
2.037
 0 
LINE
 8 
0
 62 
 7 
 10 
1.067
 20 
2.037
 11 
1.032
 21 
2.037
 0 
LINE
 8 
0
 62 
 7 
 10 
1.032
 20 
2.037
 11 
1.032
 21 
2.062
 0 
LINE
 8 
0
 62 
 7 
 10 
1.143
 20 
1.682
 11 
1.207
 21 
1.682
 0 
LINE
 8 
0
 62 
 7 
 10 
1.207
 20 
1.682
 11 
1.207
 21 
1.618
 0 
LINE
 8 
0
 62 
 7 
 10 
1.207
 20 
1.618
 11 
1.143
 21 
1.618
 0 
LINE
 8 
0
 62 
 7 
 10 
1.143
 20 
1.618
 11 
1.143
 21 
1.682
 0 
LINE
 8 
0
 62 
 7 
 10 
1.143
 20 
1.807
 11 
1.207
 21 
1.807
 0 
LINE
 8 
0
 62 
 7 
 10 
1.207
 20 
1.807
 11 
1.207
 21 
1.743
 0 
LINE
 8 
0
 62 
 7 
 10 
1.207
 20 
1.743
 11 
1.143
 21 
1.743
 0 
LINE
 8 
0
 62 
 7 
 10 
1.143
 20 
1.743
 11 
1.143
 21 
1.807
 0 
LINE
 8 
0
 62 
 7 
 10 
1.268
 20 
1.682
 11 
1.332
 21 
1.682
 0 
LINE
 8 
0
 62 
 7 
 10 
1.332
 20 
1.682
 11 
1.332
 21 
1.618
 0 
LINE
 8 
0
 62 
 7 
 10 
1.332
 20 
1.618
 11 
1.268
 21 
1.618
 0 
LINE
 8 
0
 62 
 7 
 10 
1.268
 20 
1.618
 11 
1.268
 21 
1.682
 0 
LINE
 8 
0
 62 
 7 
 10 
1.268
 20 
1.807
 11 
1.332
 21 
1.807
 0 
LINE
 8 
0
 62 
 7 
 10 
1.332
 20 
1.807
 11 
1.332
 21 
1.743
 0 
LINE
 8 
0
 62 
 7 
 10 
1.332
 20 
1.743
 11 
1.268
 21 
1.743
 0 
LINE
 8 
0
 62 
 7 
 10 
1.268
 20 
1.743
 11 
1.268
 21 
1.807
 0 
LINE
 8 
0
 62 
 7 
 10 
1.393
 20 
1.682
 11 
1.457
 21 
1.682
 0 
LINE
 8 
0
 62 
 7 
 10 
1.457
 20 
1.682
 11 
1.457
 21 
1.618
 0 
LINE
 8 
0
 62 
 7 
 10 
1.457
 20 
1.618
 11 
1.393
 21 
1.618
 0 
LINE
 8 
0
 62 
 7 
 10 
1.393
 20 
1.618
 11 
1.393
 21 
1.682
 0 
LINE
 8 
0
 62 
 7 
 10 
1.393
 20 
1.807
 11 
1.457
 21 
1.807
 0 
LINE
 8 
0
 62 
 7 
 10 
1.457
 20 
1.807
 11 
1.457
 21 
1.743
 0 
LINE
 8 
0
 62 
 7 
 10 
1.457
 20 
1.743
 11 
1.393
 21 
1.743
 0 
LINE
 8 
0
 62 
 7 
 10 
1.393
 20 
1.743
 11 
1.393
 21 
1.807
 0 
LINE
 8 
0
 62 
 7 
 10 
1.232
 20 
1.888
 11 
1.267
 21 
1.888
 0 
LINE
 8 
0
 62 
 7 
 10 
1.267
 20 
1.888
 11 
1.267
 21 
1.863
 0 
LINE
 8 
0
 62 
 7 
 10 
1.267
 20 
1.863
 11 
1.232
 21 
1.863
 0 
LINE
 8 
0
 62 
 7 
 10 
1.232
 20 
1.863
 11 
1.232
 21 
1.888
 0 
LINE
 8 
0
 62 
 7 
 10 
1.182
 20 
1.888
 11 
1.217
 21 
1.888
 0 
LINE
 8 
0
 62 
 7 
 10 
1.217
 20 
1.888
 11 
1.217
 21 
1.863
 0 
LINE
 8 
0
 62 
 7 
 10 
1.217
 20 
1.863
 11 
1.182
 21 
1.863
 0 
LINE
 8 
0
 62 
 7 
 10 
1.182
 20 
1.863
 11 
1.182
 21 
1.888
 0 
LINE
 8 
0
 62 
 7 
 10 
1.358
 20 
1.888
 11 
1.393
 21 
1.888
 0 
LINE
 8 
0
 62 
 7 
 10 
1.393
 20 
1.888
 11 
1.393
 21 
1.863
 0 
LINE
 8 
0
 62 
 7 
 10 
1.393
 20 
1.863
 11 
1.358
 21 
1.863
 0 
LINE
 8 
0
 62 
 7 
 10 
1.358
 20 
1.863
 11 
1.358
 21 
1.888
 0 
LINE
 8 
0
 62 
 7 
 10 
1.308
 20 
1.888
 11 
1.343
 21 
1.888
 0 
LINE
 8 
0
 62 
 7 
 10 
1.343
 20 
1.888
 11 
1.343
 21 
1.863
 0 
LINE
 8 
0
 62 
 7 
 10 
1.343
 20 
1.863
 11 
1.308
 21 
1.863
 0 
LINE
 8 
0
 62 
 7 
 10 
1.308
 20 
1.863
 11 
1.308
 21 
1.888
 0 
LINE
 8 
0
 62 
 7 
 10 
1.482
 20 
1.888
 11 
1.517
 21 
1.888
 0 
LINE
 8 
0
 62 
 7 
 10 
1.517
 20 
1.888
 11 
1.517
 21 
1.863
 0 
LINE
 8 
0
 62 
 7 
 10 
1.517
 20 
1.863
 11 
1.482
 21 
1.863
 0 
LINE
 8 
0
 62 
 7 
 10 
1.482
 20 
1.863
 11 
1.482
 21 
1.888
 0 
LINE
 8 
0
 62 
 7 
 10 
1.432
 20 
1.888
 11 
1.467
 21 
1.888
 0 
LINE
 8 
0
 62 
 7 
 10 
1.467
 20 
1.888
 11 
1.467
 21 
1.863
 0 
LINE
 8 
0
 62 
 7 
 10 
1.467
 20 
1.863
 11 
1.432
 21 
1.863
 0 
LINE
 8 
0
 62 
 7 
 10 
1.432
 20 
1.863
 11 
1.432
 21 
1.888
 0 
LINE
 8 
0
 62 
 7 
 10 
1.482
 20 
1.938
 11 
1.517
 21 
1.938
 0 
LINE
 8 
0
 62 
 7 
 10 
1.517
 20 
1.938
 11 
1.517
 21 
1.913
 0 
LINE
 8 
0
 62 
 7 
 10 
1.517
 20 
1.913
 11 
1.482
 21 
1.913
 0 
LINE
 8 
0
 62 
 7 
 10 
1.482
 20 
1.913
 11 
1.482
 21 
1.938
 0 
LINE
 8 
0
 62 
 7 
 10 
1.432
 20 
1.938
 11 
1.467
 21 
1.938
 0 
LINE
 8 
0
 62 
 7 
 10 
1.467
 20 
1.938
 11 
1.467
 21 
1.913
 0 
LINE
 8 
0
 62 
 7 
 10 
1.467
 20 
1.913
 11 
1.432
 21 
1.913
 0 
LINE
 8 
0
 62 
 7 
 10 
1.432
 20 
1.913
 11 
1.432
 21 
1.938
 0 
LINE
 8 
0
 62 
 7 
 10 
1.488
 20 
1.968
 11 
1.513
 21 
1.968
 0 
LINE
 8 
0
 62 
 7 
 10 
1.513
 20 
1.968
 11 
1.513
 21 
1.933
 0 
LINE
 8 
0
 62 
 7 
 10 
1.513
 20 
1.933
 11 
1.488
 21 
1.933
 0 
LINE
 8 
0
 62 
 7 
 10 
1.488
 20 
1.933
 11 
1.488
 21 
1.968
 0 
LINE
 8 
0
 62 
 7 
 10 
1.488
 20 
2.018
 11 
1.513
 21 
2.018
 0 
LINE
 8 
0
 62 
 7 
 10 
1.513
 20 
2.018
 11 
1.513
 21 
1.983
 0 
LINE
 8 
0
 62 
 7 
 10 
1.513
 20 
1.983
 11 
1.488
 21 
1.983
 0 
LINE
 8 
0
 62 
 7 
 10 
1.488
 20 
1.983
 11 
1.488
 21 
2.018
 0 
LINE
 8 
0
 62 
 7 
 10 
1.441
 20 
2.059
 11 
1.459
 21 
2.059
 0 
LINE
 8 
0
 62 
 7 
 10 
1.459
 20 
2.059
 11 
1.459
 21 
2.041
 0 
LINE
 8 
0
 62 
 7 
 10 
1.459
 20 
2.041
 11 
1.441
 21 
2.041
 0 
LINE
 8 
0
 62 
 7 
 10 
1.441
 20 
2.041
 11 
1.441
 21 
2.059
 0 
LINE
 8 
0
 62 
 7 
 10 
1.466
 20 
2.074
 11 
1.506
 21 
2.074
 0 
LINE
 8 
0
 62 
 7 
 10 
1.506
 20 
2.074
 11 
1.506
 21 
2.065
 0 
LINE
 8 
0
 62 
 7 
 10 
1.506
 20 
2.065
 11 
1.466
 21 
2.065
 0 
LINE
 8 
0
 62 
 7 
 10 
1.466
 20 
2.065
 11 
1.466
 21 
2.074
 0 
LINE
 8 
0
 62 
 7 
 10 
1.466
 20 
2.054
 11 
1.506
 21 
2.054
 0 
LINE
 8 
0
 62 
 7 
 10 
1.506
 20 
2.054
 11 
1.506
 21 
2.045
 0 
LINE
 8 
0
 62 
 7 
 10 
1.506
 20 
2.045
 11 
1.466
 21 
2.045
 0 
LINE
 8 
0
 62 
 7 
 10 
1.466
 20 
2.045
 11 
1.466
 21 
2.054
 0 
LINE
 8 
0
 62 
 7 
 10 
1.466
 20 
2.036
 11 
1.506
 21 
2.036
 0 
LINE
 8 
0
 62 
 7 
 10 
1.506
 20 
2.036
 11 
1.506
 21 
2.027
 0 
LINE
 8 
0
 62 
 7 
 10 
1.506
 20 
2.027
 11 
1.466
 21 
2.027
 0 
LINE
 8 
0
 62 
 7 
 10 
1.466
 20 
2.027
 11 
1.466
 21 
2.036
 0 
LINE
 8 
0
 62 
 7 
 10 
1.393
 20 
2.074
 11 
1.433
 21 
2.074
 0 
LINE
 8 
0
 62 
 7 
 10 
1.433
 20 
2.074
 11 
1.433
 21 
2.065
 0 
LINE
 8 
0
 62 
 7 
 10 
1.433
 20 
2.065
 11 
1.393
 21 
2.065
 0 
LINE
 8 
0
 62 
 7 
 10 
1.393
 20 
2.065
 11 
1.393
 21 
2.074
 0 
LINE
 8 
0
 62 
 7 
 10 
1.393
 20 
2.054
 11 
1.433
 21 
2.054
 0 
LINE
 8 
0
 62 
 7 
 10 
1.433
 20 
2.054
 11 
1.433
 21 
2.045
 0 
LINE
 8 
0
 62 
 7 
 10 
1.433
 20 
2.045
 11 
1.393
 21 
2.045
 0 
LINE
 8 
0
 62 
 7 
 10 
1.393
 20 
2.045
 11 
1.393
 21 
2.054
 0 
LINE
 8 
0
 62 
 7 
 10 
1.393
 20 
2.036
 11 
1.433
 21 
2.036
 0 
LINE
 8 
0
 62 
 7 
 10 
1.433
 20 
2.036
 11 
1.433
 21 
2.027
 0 
LINE
 8 
0
 62 
 7 
 10 
1.433
 20 
2.027
 11 
1.393
 21 
2.027
 0 
LINE
 8 
0
 62 
 7 
 10 
1.393
 20 
2.027
 11 
1.393
 21 
2.036
 0 
LINE
 8 
0
 62 
 7 
 10 
1.316
 20 
2.059
 11 
1.334
 21 
2.059
 0 
LINE
 8 
0
 62 
 7 
 10 
1.334
 20 
2.059
 11 
1.334
 21 
2.041
 0 
LINE
 8 
0
 62 
 7 
 10 
1.334
 20 
2.041
 11 
1.316
 21 
2.041
 0 
LINE
 8 
0
 62 
 7 
 10 
1.316
 20 
2.041
 11 
1.316
 21 
2.059
 0 
LINE
 8 
0
 62 
 7 
 10 
1.341
 20 
2.074
 11 
1.381
 21 
2.074
 0 
LINE
 8 
0
 62 
 7 
 10 
1.381
 20 
2.074
 11 
1.381
 21 
2.065
 0 
LINE
 8 
0
 62 
 7 
 10 
1.381
 20 
2.065
 11 
1.341
 21 
2.065
 0 
LINE
 8 
0
 62 
 7 
 10 
1.341
 20 
2.065
 11 
1.341
 21 
2.074
 0 
LINE
 8 
0
 62 
 7 
 10 
1.341
 20 
2.054
 11 
1.381
 21 
2.054
 0 
LINE
 8 
0
 62 
 7 
 10 
1.381
 20 
2.054
 11 
1.381
 21 
2.045
 0 
LINE
 8 
0
 62 
 7 
 10 
1.381
 20 
2.045
 11 
1.341
 21 
2.045
 0 
LINE
 8 
0
 62 
 7 
 10 
1.341
 20 
2.045
 11 
1.341
 21 
2.054
 0 
LINE
 8 
0
 62 
 7 
 10 
1.341
 20 
2.036
 11 
1.381
 21 
2.036
 0 
LINE
 8 
0
 62 
 7 
 10 
1.381
 20 
2.036
 11 
1.381
 21 
2.027
 0 
LINE
 8 
0
 62 
 7 
 10 
1.381
 20 
2.027
 11 
1.341
 21 
2.027
 0 
LINE
 8 
0
 62 
 7 
 10 
1.341
 20 
2.027
 11 
1.341
 21 
2.036
 0 
LINE
 8 
0
 62 
 7 
 10 
1.268
 20 
2.074
 11 
1.308
 21 
2.074
 0 
LINE
 8 
0
 62 
 7 
 10 
1.308
 20 
2.074
 11 
1.308
 21 
2.065
 0 
LINE
 8 
0
 62 
 7 
 10 
1.308
 20 
2.065
 11 
1.268
 21 
2.065
 0 
LINE
 8 
0
 62 
 7 
 10 
1.268
 20 
2.065
 11 
1.268
 21 
2.074
 0 
LINE
 8 
0
 62 
 7 
 10 
1.268
 20 
2.054
 11 
1.308
 21 
2.054
 0 
LINE
 8 
0
 62 
 7 
 10 
1.308
 20 
2.054
 11 
1.308
 21 
2.045
 0 
LINE
 8 
0
 62 
 7 
 10 
1.308
 20 
2.045
 11 
1.268
 21 
2.045
 0 
LINE
 8 
0
 62 
 7 
 10 
1.268
 20 
2.045
 11 
1.268
 21 
2.054
 0 
LINE
 8 
0
 62 
 7 
 10 
1.268
 20 
2.036
 11 
1.308
 21 
2.036
 0 
LINE
 8 
0
 62 
 7 
 10 
1.308
 20 
2.036
 11 
1.308
 21 
2.027
 0 
LINE
 8 
0
 62 
 7 
 10 
1.308
 20 
2.027
 11 
1.268
 21 
2.027
 0 
LINE
 8 
0
 62 
 7 
 10 
1.268
 20 
2.027
 11 
1.268
 21 
2.036
 0 
LINE
 8 
0
 62 
 7 
 10 
1.362
 20 
1.968
 11 
1.387
 21 
1.968
 0 
LINE
 8 
0
 62 
 7 
 10 
1.387
 20 
1.968
 11 
1.387
 21 
1.933
 0 
LINE
 8 
0
 62 
 7 
 10 
1.387
 20 
1.933
 11 
1.362
 21 
1.933
 0 
LINE
 8 
0
 62 
 7 
 10 
1.362
 20 
1.933
 11 
1.362
 21 
1.968
 0 
LINE
 8 
0
 62 
 7 
 10 
1.362
 20 
2.018
 11 
1.387
 21 
2.018
 0 
LINE
 8 
0
 62 
 7 
 10 
1.387
 20 
2.018
 11 
1.387
 21 
1.983
 0 
LINE
 8 
0
 62 
 7 
 10 
1.387
 20 
1.983
 11 
1.362
 21 
1.983
 0 
LINE
 8 
0
 62 
 7 
 10 
1.362
 20 
1.983
 11 
1.362
 21 
2.018
 0 
LINE
 8 
0
 62 
 7 
 10 
1.358
 20 
1.938
 11 
1.393
 21 
1.938
 0 
LINE
 8 
0
 62 
 7 
 10 
1.393
 20 
1.938
 11 
1.393
 21 
1.913
 0 
LINE
 8 
0
 62 
 7 
 10 
1.393
 20 
1.913
 11 
1.358
 21 
1.913
 0 
LINE
 8 
0
 62 
 7 
 10 
1.358
 20 
1.913
 11 
1.358
 21 
1.938
 0 
LINE
 8 
0
 62 
 7 
 10 
1.308
 20 
1.938
 11 
1.343
 21 
1.938
 0 
LINE
 8 
0
 62 
 7 
 10 
1.343
 20 
1.938
 11 
1.343
 21 
1.913
 0 
LINE
 8 
0
 62 
 7 
 10 
1.343
 20 
1.913
 11 
1.308
 21 
1.913
 0 
LINE
 8 
0
 62 
 7 
 10 
1.308
 20 
1.913
 11 
1.308
 21 
1.938
 0 
LINE
 8 
0
 62 
 7 
 10 
1.238
 20 
1.968
 11 
1.263
 21 
1.968
 0 
LINE
 8 
0
 62 
 7 
 10 
1.263
 20 
1.968
 11 
1.263
 21 
1.933
 0 
LINE
 8 
0
 62 
 7 
 10 
1.263
 20 
1.933
 11 
1.238
 21 
1.933
 0 
LINE
 8 
0
 62 
 7 
 10 
1.238
 20 
1.933
 11 
1.238
 21 
1.968
 0 
LINE
 8 
0
 62 
 7 
 10 
1.238
 20 
2.018
 11 
1.263
 21 
2.018
 0 
LINE
 8 
0
 62 
 7 
 10 
1.263
 20 
2.018
 11 
1.263
 21 
1.983
 0 
LINE
 8 
0
 62 
 7 
 10 
1.263
 20 
1.983
 11 
1.238
 21 
1.983
 0 
LINE
 8 
0
 62 
 7 
 10 
1.238
 20 
1.983
 11 
1.238
 21 
2.018
 0 
LINE
 8 
0
 62 
 7 
 10 
1.232
 20 
1.938
 11 
1.267
 21 
1.938
 0 
LINE
 8 
0
 62 
 7 
 10 
1.267
 20 
1.938
 11 
1.267
 21 
1.913
 0 
LINE
 8 
0
 62 
 7 
 10 
1.267
 20 
1.913
 11 
1.232
 21 
1.913
 0 
LINE
 8 
0
 62 
 7 
 10 
1.232
 20 
1.913
 11 
1.232
 21 
1.938
 0 
LINE
 8 
0
 62 
 7 
 10 
1.182
 20 
1.938
 11 
1.217
 21 
1.938
 0 
LINE
 8 
0
 62 
 7 
 10 
1.217
 20 
1.938
 11 
1.217
 21 
1.913
 0 
LINE
 8 
0
 62 
 7 
 10 
1.217
 20 
1.913
 11 
1.182
 21 
1.913
 0 
LINE
 8 
0
 62 
 7 
 10 
1.182
 20 
1.913
 11 
1.182
 21 
1.938
 0 
LINE
 8 
0
 62 
 7 
 10 
1.191
 20 
2.059
 11 
1.209
 21 
2.059
 0 
LINE
 8 
0
 62 
 7 
 10 
1.209
 20 
2.059
 11 
1.209
 21 
2.041
 0 
LINE
 8 
0
 62 
 7 
 10 
1.209
 20 
2.041
 11 
1.191
 21 
2.041
 0 
LINE
 8 
0
 62 
 7 
 10 
1.191
 20 
2.041
 11 
1.191
 21 
2.059
 0 
LINE
 8 
0
 62 
 7 
 10 
1.216
 20 
2.074
 11 
1.256
 21 
2.074
 0 
LINE
 8 
0
 62 
 7 
 10 
1.256
 20 
2.074
 11 
1.256
 21 
2.065
 0 
LINE
 8 
0
 62 
 7 
 10 
1.256
 20 
2.065
 11 
1.216
 21 
2.065
 0 
LINE
 8 
0
 62 
 7 
 10 
1.216
 20 
2.065
 11 
1.216
 21 
2.074
 0 
LINE
 8 
0
 62 
 7 
 10 
1.216
 20 
2.054
 11 
1.256
 21 
2.054
 0 
LINE
 8 
0
 62 
 7 
 10 
1.256
 20 
2.054
 11 
1.256
 21 
2.045
 0 
LINE
 8 
0
 62 
 7 
 10 
1.256
 20 
2.045
 11 
1.216
 21 
2.045
 0 
LINE
 8 
0
 62 
 7 
 10 
1.216
 20 
2.045
 11 
1.216
 21 
2.054
 0 
LINE
 8 
0
 62 
 7 
 10 
1.216
 20 
2.036
 11 
1.256
 21 
2.036
 0 
LINE
 8 
0
 62 
 7 
 10 
1.256
 20 
2.036
 11 
1.256
 21 
2.027
 0 
LINE
 8 
0
 62 
 7 
 10 
1.256
 20 
2.027
 11 
1.216
 21 
2.027
 0 
LINE
 8 
0
 62 
 7 
 10 
1.216
 20 
2.027
 11 
1.216
 21 
2.036
 0 
LINE
 8 
0
 62 
 7 
 10 
1.143
 20 
2.074
 11 
1.183
 21 
2.074
 0 
LINE
 8 
0
 62 
 7 
 10 
1.183
 20 
2.074
 11 
1.183
 21 
2.065
 0 
LINE
 8 
0
 62 
 7 
 10 
1.183
 20 
2.065
 11 
1.143
 21 
2.065
 0 
LINE
 8 
0
 62 
 7 
 10 
1.143
 20 
2.065
 11 
1.143
 21 
2.074
 0 
LINE
 8 
0
 62 
 7 
 10 
1.143
 20 
2.054
 11 
1.183
 21 
2.054
 0 
LINE
 8 
0
 62 
 7 
 10 
1.183
 20 
2.054
 11 
1.183
 21 
2.045
 0 
LINE
 8 
0
 62 
 7 
 10 
1.183
 20 
2.045
 11 
1.143
 21 
2.045
 0 
LINE
 8 
0
 62 
 7 
 10 
1.143
 20 
2.045
 11 
1.143
 21 
2.054
 0 
LINE
 8 
0
 62 
 7 
 10 
1.143
 20 
2.036
 11 
1.183
 21 
2.036
 0 
LINE
 8 
0
 62 
 7 
 10 
1.183
 20 
2.036
 11 
1.183
 21 
2.027
 0 
LINE
 8 
0
 62 
 7 
 10 
1.183
 20 
2.027
 11 
1.143
 21 
2.027
 0 
LINE
 8 
0
 62 
 7 
 10 
1.143
 20 
2.027
 11 
1.143
 21 
2.036
 0 
LINE
 8 
0
 62 
 7 
 10 
1.518
 20 
1.682
 11 
1.582
 21 
1.682
 0 
LINE
 8 
0
 62 
 7 
 10 
1.582
 20 
1.682
 11 
1.582
 21 
1.618
 0 
LINE
 8 
0
 62 
 7 
 10 
1.582
 20 
1.618
 11 
1.518
 21 
1.618
 0 
LINE
 8 
0
 62 
 7 
 10 
1.518
 20 
1.618
 11 
1.518
 21 
1.682
 0 
LINE
 8 
0
 62 
 7 
 10 
1.518
 20 
1.807
 11 
1.582
 21 
1.807
 0 
LINE
 8 
0
 62 
 7 
 10 
1.582
 20 
1.807
 11 
1.582
 21 
1.743
 0 
LINE
 8 
0
 62 
 7 
 10 
1.582
 20 
1.743
 11 
1.518
 21 
1.743
 0 
LINE
 8 
0
 62 
 7 
 10 
1.518
 20 
1.743
 11 
1.518
 21 
1.807
 0 
LINE
 8 
0
 62 
 7 
 10 
1.608
 20 
1.888
 11 
1.643
 21 
1.888
 0 
LINE
 8 
0
 62 
 7 
 10 
1.643
 20 
1.888
 11 
1.643
 21 
1.863
 0 
LINE
 8 
0
 62 
 7 
 10 
1.643
 20 
1.863
 11 
1.608
 21 
1.863
 0 
LINE
 8 
0
 62 
 7 
 10 
1.608
 20 
1.863
 11 
1.608
 21 
1.888
 0 
LINE
 8 
0
 62 
 7 
 10 
1.558
 20 
1.888
 11 
1.593
 21 
1.888
 0 
LINE
 8 
0
 62 
 7 
 10 
1.593
 20 
1.888
 11 
1.593
 21 
1.863
 0 
LINE
 8 
0
 62 
 7 
 10 
1.593
 20 
1.863
 11 
1.558
 21 
1.863
 0 
LINE
 8 
0
 62 
 7 
 10 
1.558
 20 
1.863
 11 
1.558
 21 
1.888
 0 
LINE
 8 
0
 62 
 7 
 10 
1.608
 20 
1.938
 11 
1.643
 21 
1.938
 0 
LINE
 8 
0
 62 
 7 
 10 
1.643
 20 
1.938
 11 
1.643
 21 
1.913
 0 
LINE
 8 
0
 62 
 7 
 10 
1.643
 20 
1.913
 11 
1.608
 21 
1.913
 0 
LINE
 8 
0
 62 
 7 
 10 
1.608
 20 
1.913
 11 
1.608
 21 
1.938
 0 
LINE
 8 
0
 62 
 7 
 10 
1.558
 20 
1.938
 11 
1.593
 21 
1.938
 0 
LINE
 8 
0
 62 
 7 
 10 
1.593
 20 
1.938
 11 
1.593
 21 
1.913
 0 
LINE
 8 
0
 62 
 7 
 10 
1.593
 20 
1.913
 11 
1.558
 21 
1.913
 0 
LINE
 8 
0
 62 
 7 
 10 
1.558
 20 
1.913
 11 
1.558
 21 
1.938
 0 
LINE
 8 
0
 62 
 7 
 10 
1.612
 20 
1.968
 11 
1.637
 21 
1.968
 0 
LINE
 8 
0
 62 
 7 
 10 
1.637
 20 
1.968
 11 
1.637
 21 
1.933
 0 
LINE
 8 
0
 62 
 7 
 10 
1.637
 20 
1.933
 11 
1.612
 21 
1.933
 0 
LINE
 8 
0
 62 
 7 
 10 
1.612
 20 
1.933
 11 
1.612
 21 
1.968
 0 
LINE
 8 
0
 62 
 7 
 10 
1.612
 20 
2.018
 11 
1.637
 21 
2.018
 0 
LINE
 8 
0
 62 
 7 
 10 
1.637
 20 
2.018
 11 
1.637
 21 
1.983
 0 
LINE
 8 
0
 62 
 7 
 10 
1.637
 20 
1.983
 11 
1.612
 21 
1.983
 0 
LINE
 8 
0
 62 
 7 
 10 
1.612
 20 
1.983
 11 
1.612
 21 
2.018
 0 
LINE
 8 
0
 62 
 7 
 10 
1.566
 20 
2.059
 11 
1.584
 21 
2.059
 0 
LINE
 8 
0
 62 
 7 
 10 
1.584
 20 
2.059
 11 
1.584
 21 
2.041
 0 
LINE
 8 
0
 62 
 7 
 10 
1.584
 20 
2.041
 11 
1.566
 21 
2.041
 0 
LINE
 8 
0
 62 
 7 
 10 
1.566
 20 
2.041
 11 
1.566
 21 
2.059
 0 
LINE
 8 
0
 62 
 7 
 10 
1.591
 20 
2.074
 11 
1.631
 21 
2.074
 0 
LINE
 8 
0
 62 
 7 
 10 
1.631
 20 
2.074
 11 
1.631
 21 
2.065
 0 
LINE
 8 
0
 62 
 7 
 10 
1.631
 20 
2.065
 11 
1.591
 21 
2.065
 0 
LINE
 8 
0
 62 
 7 
 10 
1.591
 20 
2.065
 11 
1.591
 21 
2.074
 0 
LINE
 8 
0
 62 
 7 
 10 
1.591
 20 
2.054
 11 
1.631
 21 
2.054
 0 
LINE
 8 
0
 62 
 7 
 10 
1.631
 20 
2.054
 11 
1.631
 21 
2.045
 0 
LINE
 8 
0
 62 
 7 
 10 
1.631
 20 
2.045
 11 
1.591
 21 
2.045
 0 
LINE
 8 
0
 62 
 7 
 10 
1.591
 20 
2.045
 11 
1.591
 21 
2.054
 0 
LINE
 8 
0
 62 
 7 
 10 
1.591
 20 
2.036
 11 
1.631
 21 
2.036
 0 
LINE
 8 
0
 62 
 7 
 10 
1.631
 20 
2.036
 11 
1.631
 21 
2.027
 0 
LINE
 8 
0
 62 
 7 
 10 
1.631
 20 
2.027
 11 
1.591
 21 
2.027
 0 
LINE
 8 
0
 62 
 7 
 10 
1.591
 20 
2.027
 11 
1.591
 21 
2.036
 0 
LINE
 8 
0
 62 
 7 
 10 
1.518
 20 
2.074
 11 
1.558
 21 
2.074
 0 
LINE
 8 
0
 62 
 7 
 10 
1.558
 20 
2.074
 11 
1.558
 21 
2.065
 0 
LINE
 8 
0
 62 
 7 
 10 
1.558
 20 
2.065
 11 
1.518
 21 
2.065
 0 
LINE
 8 
0
 62 
 7 
 10 
1.518
 20 
2.065
 11 
1.518
 21 
2.074
 0 
LINE
 8 
0
 62 
 7 
 10 
1.518
 20 
2.054
 11 
1.558
 21 
2.054
 0 
LINE
 8 
0
 62 
 7 
 10 
1.558
 20 
2.054
 11 
1.558
 21 
2.045
 0 
LINE
 8 
0
 62 
 7 
 10 
1.558
 20 
2.045
 11 
1.518
 21 
2.045
 0 
LINE
 8 
0
 62 
 7 
 10 
1.518
 20 
2.045
 11 
1.518
 21 
2.054
 0 
LINE
 8 
0
 62 
 7 
 10 
1.518
 20 
2.036
 11 
1.558
 21 
2.036
 0 
LINE
 8 
0
 62 
 7 
 10 
1.558
 20 
2.036
 11 
1.558
 21 
2.027
 0 
LINE
 8 
0
 62 
 7 
 10 
1.558
 20 
2.027
 11 
1.518
 21 
2.027
 0 
LINE
 8 
0
 62 
 7 
 10 
1.518
 20 
2.027
 11 
1.518
 21 
2.036
 0 
LINE
 8 
0
 62 
 7 
 10 
0.537
 20 
1.37
 11 
0.563
 21 
1.37
 0 
LINE
 8 
0
 62 
 7 
 10 
0.563
 20 
1.37
 11 
0.563
 21 
1.33
 0 
LINE
 8 
0
 62 
 7 
 10 
0.563
 20 
1.33
 11 
0.537
 21 
1.33
 0 
LINE
 8 
0
 62 
 7 
 10 
0.537
 20 
1.33
 11 
0.537
 21 
1.37
 0 
LINE
 8 
0
 62 
 7 
 10 
0.575
 20 
1.37
 11 
0.601
 21 
1.37
 0 
LINE
 8 
0
 62 
 7 
 10 
0.601
 20 
1.37
 11 
0.601
 21 
1.33
 0 
LINE
 8 
0
 62 
 7 
 10 
0.601
 20 
1.33
 11 
0.575
 21 
1.33
 0 
LINE
 8 
0
 62 
 7 
 10 
0.575
 20 
1.33
 11 
0.575
 21 
1.37
 0 
LINE
 8 
0
 62 
 7 
 10 
0.499
 20 
1.37
 11 
0.525
 21 
1.37
 0 
LINE
 8 
0
 62 
 7 
 10 
0.525
 20 
1.37
 11 
0.525
 21 
1.33
 0 
LINE
 8 
0
 62 
 7 
 10 
0.525
 20 
1.33
 11 
0.499
 21 
1.33
 0 
LINE
 8 
0
 62 
 7 
 10 
0.499
 20 
1.33
 11 
0.499
 21 
1.37
 0 
LINE
 8 
0
 62 
 7 
 10 
0.499
 20 
1.472
 11 
0.525
 21 
1.472
 0 
LINE
 8 
0
 62 
 7 
 10 
0.525
 20 
1.472
 11 
0.525
 21 
1.432
 0 
LINE
 8 
0
 62 
 7 
 10 
0.525
 20 
1.432
 11 
0.499
 21 
1.432
 0 
LINE
 8 
0
 62 
 7 
 10 
0.499
 20 
1.432
 11 
0.499
 21 
1.472
 0 
LINE
 8 
0
 62 
 7 
 10 
0.575
 20 
1.472
 11 
0.601
 21 
1.472
 0 
LINE
 8 
0
 62 
 7 
 10 
0.601
 20 
1.472
 11 
0.601
 21 
1.432
 0 
LINE
 8 
0
 62 
 7 
 10 
0.601
 20 
1.432
 11 
0.575
 21 
1.432
 0 
LINE
 8 
0
 62 
 7 
 10 
0.575
 20 
1.432
 11 
0.575
 21 
1.472
 0 
LINE
 8 
0
 62 
 7 
 10 
0.43
 20 
1.6
 11 
0.47
 21 
1.6
 0 
LINE
 8 
0
 62 
 7 
 10 
0.47
 20 
1.6
 11 
0.47
 21 
1.55
 0 
LINE
 8 
0
 62 
 7 
 10 
0.47
 20 
1.55
 11 
0.43
 21 
1.55
 0 
LINE
 8 
0
 62 
 7 
 10 
0.43
 20 
1.55
 11 
0.43
 21 
1.6
 0 
LINE
 8 
0
 62 
 7 
 10 
0.354
 20 
1.6
 11 
0.394
 21 
1.6
 0 
LINE
 8 
0
 62 
 7 
 10 
0.394
 20 
1.6
 11 
0.394
 21 
1.55
 0 
LINE
 8 
0
 62 
 7 
 10 
0.394
 20 
1.55
 11 
0.354
 21 
1.55
 0 
LINE
 8 
0
 62 
 7 
 10 
0.354
 20 
1.55
 11 
0.354
 21 
1.6
 0 
LINE
 8 
0
 62 
 7 
 10 
0.38
 20 
1.325
 11 
0.42
 21 
1.325
 0 
LINE
 8 
0
 62 
 7 
 10 
0.42
 20 
1.325
 11 
0.42
 21 
1.275
 0 
LINE
 8 
0
 62 
 7 
 10 
0.42
 20 
1.275
 11 
0.38
 21 
1.275
 0 
LINE
 8 
0
 62 
 7 
 10 
0.38
 20 
1.275
 11 
0.38
 21 
1.325
 0 
LINE
 8 
0
 62 
 7 
 10 
0.456
 20 
1.325
 11 
0.496
 21 
1.325
 0 
LINE
 8 
0
 62 
 7 
 10 
0.496
 20 
1.325
 11 
0.496
 21 
1.275
 0 
LINE
 8 
0
 62 
 7 
 10 
0.496
 20 
1.275
 11 
0.456
 21 
1.275
 0 
LINE
 8 
0
 62 
 7 
 10 
0.456
 20 
1.275
 11 
0.456
 21 
1.325
 0 
LINE
 8 
0
 62 
 7 
 10 
0.632
 20 
1.462
 11 
0.667
 21 
1.462
 0 
LINE
 8 
0
 62 
 7 
 10 
0.667
 20 
1.462
 11 
0.667
 21 
1.437
 0 
LINE
 8 
0
 62 
 7 
 10 
0.667
 20 
1.437
 11 
0.632
 21 
1.437
 0 
LINE
 8 
0
 62 
 7 
 10 
0.632
 20 
1.437
 11 
0.632
 21 
1.462
 0 
LINE
 8 
0
 62 
 7 
 10 
0.682
 20 
1.462
 11 
0.717
 21 
1.462
 0 
LINE
 8 
0
 62 
 7 
 10 
0.717
 20 
1.462
 11 
0.717
 21 
1.437
 0 
LINE
 8 
0
 62 
 7 
 10 
0.717
 20 
1.437
 11 
0.682
 21 
1.437
 0 
LINE
 8 
0
 62 
 7 
 10 
0.682
 20 
1.437
 11 
0.682
 21 
1.462
 0 
LINE
 8 
0
 62 
 7 
 10 
1.387
 20 
1.295
 11 
1.413
 21 
1.295
 0 
LINE
 8 
0
 62 
 7 
 10 
1.413
 20 
1.295
 11 
1.413
 21 
1.255
 0 
LINE
 8 
0
 62 
 7 
 10 
1.413
 20 
1.255
 11 
1.387
 21 
1.255
 0 
LINE
 8 
0
 62 
 7 
 10 
1.387
 20 
1.255
 11 
1.387
 21 
1.295
 0 
LINE
 8 
0
 62 
 7 
 10 
1.425
 20 
1.295
 11 
1.451
 21 
1.295
 0 
LINE
 8 
0
 62 
 7 
 10 
1.451
 20 
1.295
 11 
1.451
 21 
1.255
 0 
LINE
 8 
0
 62 
 7 
 10 
1.451
 20 
1.255
 11 
1.425
 21 
1.255
 0 
LINE
 8 
0
 62 
 7 
 10 
1.425
 20 
1.255
 11 
1.425
 21 
1.295
 0 
LINE
 8 
0
 62 
 7 
 10 
1.349
 20 
1.295
 11 
1.375
 21 
1.295
 0 
LINE
 8 
0
 62 
 7 
 10 
1.375
 20 
1.295
 11 
1.375
 21 
1.255
 0 
LINE
 8 
0
 62 
 7 
 10 
1.375
 20 
1.255
 11 
1.349
 21 
1.255
 0 
LINE
 8 
0
 62 
 7 
 10 
1.349
 20 
1.255
 11 
1.349
 21 
1.295
 0 
LINE
 8 
0
 62 
 7 
 10 
1.349
 20 
1.397
 11 
1.375
 21 
1.397
 0 
LINE
 8 
0
 62 
 7 
 10 
1.375
 20 
1.397
 11 
1.375
 21 
1.357
 0 
LINE
 8 
0
 62 
 7 
 10 
1.375
 20 
1.357
 11 
1.349
 21 
1.357
 0 
LINE
 8 
0
 62 
 7 
 10 
1.349
 20 
1.357
 11 
1.349
 21 
1.397
 0 
LINE
 8 
0
 62 
 7 
 10 
1.425
 20 
1.397
 11 
1.451
 21 
1.397
 0 
LINE
 8 
0
 62 
 7 
 10 
1.451
 20 
1.397
 11 
1.451
 21 
1.357
 0 
LINE
 8 
0
 62 
 7 
 10 
1.451
 20 
1.357
 11 
1.425
 21 
1.357
 0 
LINE
 8 
0
 62 
 7 
 10 
1.425
 20 
1.357
 11 
1.425
 21 
1.397
 0 
LINE
 8 
0
 62 
 7 
 10 
1.28
 20 
1.5
 11 
1.32
 21 
1.5
 0 
LINE
 8 
0
 62 
 7 
 10 
1.32
 20 
1.5
 11 
1.32
 21 
1.45
 0 
LINE
 8 
0
 62 
 7 
 10 
1.32
 20 
1.45
 11 
1.28
 21 
1.45
 0 
LINE
 8 
0
 62 
 7 
 10 
1.28
 20 
1.45
 11 
1.28
 21 
1.5
 0 
LINE
 8 
0
 62 
 7 
 10 
1.204
 20 
1.5
 11 
1.244
 21 
1.5
 0 
LINE
 8 
0
 62 
 7 
 10 
1.244
 20 
1.5
 11 
1.244
 21 
1.45
 0 
LINE
 8 
0
 62 
 7 
 10 
1.244
 20 
1.45
 11 
1.204
 21 
1.45
 0 
LINE
 8 
0
 62 
 7 
 10 
1.204
 20 
1.45
 11 
1.204
 21 
1.5
 0 
LINE
 8 
0
 62 
 7 
 10 
1.18
 20 
1.3
 11 
1.22
 21 
1.3
 0 
LINE
 8 
0
 62 
 7 
 10 
1.22
 20 
1.3
 11 
1.22
 21 
1.25
 0 
LINE
 8 
0
 62 
 7 
 10 
1.22
 20 
1.25
 11 
1.18
 21 
1.25
 0 
LINE
 8 
0
 62 
 7 
 10 
1.18
 20 
1.25
 11 
1.18
 21 
1.3
 0 
LINE
 8 
0
 62 
 7 
 10 
1.256
 20 
1.3
 11 
1.296
 21 
1.3
 0 
LINE
 8 
0
 62 
 7 
 10 
1.296
 20 
1.3
 11 
1.296
 21 
1.25
 0 
LINE
 8 
0
 62 
 7 
 10 
1.296
 20 
1.25
 11 
1.256
 21 
1.25
 0 
LINE
 8 
0
 62 
 7 
 10 
1.256
 20 
1.25
 11 
1.256
 21 
1.3
 0 
LINE
 8 
0
 62 
 7 
 10 
1.482
 20 
1.388
 11 
1.517
 21 
1.388
 0 
LINE
 8 
0
 62 
 7 
 10 
1.517
 20 
1.388
 11 
1.517
 21 
1.363
 0 
LINE
 8 
0
 62 
 7 
 10 
1.517
 20 
1.363
 11 
1.482
 21 
1.363
 0 
LINE
 8 
0
 62 
 7 
 10 
1.482
 20 
1.363
 11 
1.482
 21 
1.388
 0 
LINE
 8 
0
 62 
 7 
 10 
1.532
 20 
1.388
 11 
1.567
 21 
1.388
 0 
LINE
 8 
0
 62 
 7 
 10 
1.567
 20 
1.388
 11 
1.567
 21 
1.363
 0 
LINE
 8 
0
 62 
 7 
 10 
1.567
 20 
1.363
 11 
1.532
 21 
1.363
 0 
LINE
 8 
0
 62 
 7 
 10 
1.532
 20 
1.363
 11 
1.532
 21 
1.388
 0 
LINE
 8 
0
 62 
 7 
 10 
0.462
 20 
1.02
 11 
0.488
 21 
1.02
 0 
LINE
 8 
0
 62 
 7 
 10 
0.488
 20 
1.02
 11 
0.488
 21 
0.98
 0 
LINE
 8 
0
 62 
 7 
 10 
0.488
 20 
0.98
 11 
0.462
 21 
0.98
 0 
LINE
 8 
0
 62 
 7 
 10 
0.462
 20 
0.98
 11 
0.462
 21 
1.02
 0 
LINE
 8 
0
 62 
 7 
 10 
0.5
 20 
1.02
 11 
0.526
 21 
1.02
 0 
LINE
 8 
0
 62 
 7 
 10 
0.526
 20 
1.02
 11 
0.526
 21 
0.98
 0 
LINE
 8 
0
 62 
 7 
 10 
0.526
 20 
0.98
 11 
0.5
 21 
0.98
 0 
LINE
 8 
0
 62 
 7 
 10 
0.5
 20 
0.98
 11 
0.5
 21 
1.02
 0 
LINE
 8 
0
 62 
 7 
 10 
0.424
 20 
1.02
 11 
0.45
 21 
1.02
 0 
LINE
 8 
0
 62 
 7 
 10 
0.45
 20 
1.02
 11 
0.45
 21 
0.98
 0 
LINE
 8 
0
 62 
 7 
 10 
0.45
 20 
0.98
 11 
0.424
 21 
0.98
 0 
LINE
 8 
0
 62 
 7 
 10 
0.424
 20 
0.98
 11 
0.424
 21 
1.02
 0 
LINE
 8 
0
 62 
 7 
 10 
0.424
 20 
1.122
 11 
0.45
 21 
1.122
 0 
LINE
 8 
0
 62 
 7 
 10 
0.45
 20 
1.122
 11 
0.45
 21 
1.082
 0 
LINE
 8 
0
 62 
 7 
 10 
0.45
 20 
1.082
 11 
0.424
 21 
1.082
 0 
LINE
 8 
0
 62 
 7 
 10 
0.424
 20 
1.082
 11 
0.424
 21 
1.122
 0 
LINE
 8 
0
 62 
 7 
 10 
0.5
 20 
1.122
 11 
0.526
 21 
1.122
 0 
LINE
 8 
0
 62 
 7 
 10 
0.526
 20 
1.122
 11 
0.526
 21 
1.082
 0 
LINE
 8 
0
 62 
 7 
 10 
0.526
 20 
1.082
 11 
0.5
 21 
1.082
 0 
LINE
 8 
0
 62 
 7 
 10 
0.5
 20 
1.082
 11 
0.5
 21 
1.122
 0 
LINE
 8 
0
 62 
 7 
 10 
1.287
 20 
0.995
 11 
1.313
 21 
0.995
 0 
LINE
 8 
0
 62 
 7 
 10 
1.313
 20 
0.995
 11 
1.313
 21 
0.955
 0 
LINE
 8 
0
 62 
 7 
 10 
1.313
 20 
0.955
 11 
1.287
 21 
0.955
 0 
LINE
 8 
0
 62 
 7 
 10 
1.287
 20 
0.955
 11 
1.287
 21 
0.995
 0 
LINE
 8 
0
 62 
 7 
 10 
1.325
 20 
0.995
 11 
1.351
 21 
0.995
 0 
LINE
 8 
0
 62 
 7 
 10 
1.351
 20 
0.995
 11 
1.351
 21 
0.955
 0 
LINE
 8 
0
 62 
 7 
 10 
1.351
 20 
0.955
 11 
1.325
 21 
0.955
 0 
LINE
 8 
0
 62 
 7 
 10 
1.325
 20 
0.955
 11 
1.325
 21 
0.995
 0 
LINE
 8 
0
 62 
 7 
 10 
1.249
 20 
0.995
 11 
1.275
 21 
0.995
 0 
LINE
 8 
0
 62 
 7 
 10 
1.275
 20 
0.995
 11 
1.275
 21 
0.955
 0 
LINE
 8 
0
 62 
 7 
 10 
1.275
 20 
0.955
 11 
1.249
 21 
0.955
 0 
LINE
 8 
0
 62 
 7 
 10 
1.249
 20 
0.955
 11 
1.249
 21 
0.995
 0 
LINE
 8 
0
 62 
 7 
 10 
1.249
 20 
1.097
 11 
1.275
 21 
1.097
 0 
LINE
 8 
0
 62 
 7 
 10 
1.275
 20 
1.097
 11 
1.275
 21 
1.057
 0 
LINE
 8 
0
 62 
 7 
 10 
1.275
 20 
1.057
 11 
1.249
 21 
1.057
 0 
LINE
 8 
0
 62 
 7 
 10 
1.249
 20 
1.057
 11 
1.249
 21 
1.097
 0 
LINE
 8 
0
 62 
 7 
 10 
1.325
 20 
1.097
 11 
1.351
 21 
1.097
 0 
LINE
 8 
0
 62 
 7 
 10 
1.351
 20 
1.097
 11 
1.351
 21 
1.057
 0 
LINE
 8 
0
 62 
 7 
 10 
1.351
 20 
1.057
 11 
1.325
 21 
1.057
 0 
LINE
 8 
0
 62 
 7 
 10 
1.325
 20 
1.057
 11 
1.325
 21 
1.097
 0 
LINE
 8 
0
 62 
 7 
 10 
0.318
 20 
1.182
 11 
0.382
 21 
1.182
 0 
LINE
 8 
0
 62 
 7 
 10 
0.382
 20 
1.182
 11 
0.382
 21 
1.118
 0 
LINE
 8 
0
 62 
 7 
 10 
0.382
 20 
1.118
 11 
0.318
 21 
1.118
 0 
LINE
 8 
0
 62 
 7 
 10 
0.318
 20 
1.118
 11 
0.318
 21 
1.182
 0 
LINE
 8 
0
 62 
 7 
 10 
0.193
 20 
1.182
 11 
0.257
 21 
1.182
 0 
LINE
 8 
0
 62 
 7 
 10 
0.257
 20 
1.182
 11 
0.257
 21 
1.118
 0 
LINE
 8 
0
 62 
 7 
 10 
0.257
 20 
1.118
 11 
0.193
 21 
1.118
 0 
LINE
 8 
0
 62 
 7 
 10 
0.193
 20 
1.118
 11 
0.193
 21 
1.182
 0 
LINE
 8 
0
 62 
 7 
 10 
1.118
 20 
1.157
 11 
1.182
 21 
1.157
 0 
LINE
 8 
0
 62 
 7 
 10 
1.182
 20 
1.157
 11 
1.182
 21 
1.093
 0 
LINE
 8 
0
 62 
 7 
 10 
1.182
 20 
1.093
 11 
1.118
 21 
1.093
 0 
LINE
 8 
0
 62 
 7 
 10 
1.118
 20 
1.093
 11 
1.118
 21 
1.157
 0 
LINE
 8 
0
 62 
 7 
 10 
0.993
 20 
1.157
 11 
1.057
 21 
1.157
 0 
LINE
 8 
0
 62 
 7 
 10 
1.057
 20 
1.157
 11 
1.057
 21 
1.093
 0 
LINE
 8 
0
 62 
 7 
 10 
1.057
 20 
1.093
 11 
0.993
 21 
1.093
 0 
LINE
 8 
0
 62 
 7 
 10 
0.993
 20 
1.093
 11 
0.993
 21 
1.157
 0 
LINE
 8 
0
 62 
 7 
 10 
0.33
 20 
1.025
 11 
0.37
 21 
1.025
 0 
LINE
 8 
0
 62 
 7 
 10 
0.37
 20 
1.025
 11 
0.37
 21 
0.975
 0 
LINE
 8 
0
 62 
 7 
 10 
0.37
 20 
0.975
 11 
0.33
 21 
0.975
 0 
LINE
 8 
0
 62 
 7 
 10 
0.33
 20 
0.975
 11 
0.33
 21 
1.025
 0 
LINE
 8 
0
 62 
 7 
 10 
0.254
 20 
1.025
 11 
0.294
 21 
1.025
 0 
LINE
 8 
0
 62 
 7 
 10 
0.294
 20 
1.025
 11 
0.294
 21 
0.975
 0 
LINE
 8 
0
 62 
 7 
 10 
0.294
 20 
0.975
 11 
0.254
 21 
0.975
 0 
LINE
 8 
0
 62 
 7 
 10 
0.254
 20 
0.975
 11 
0.254
 21 
1.025
 0 
LINE
 8 
0
 62 
 7 
 10 
1.13
 20 
1.0
 11 
1.17
 21 
1.0
 0 
LINE
 8 
0
 62 
 7 
 10 
1.17
 20 
1.0
 11 
1.17
 21 
0.95
 0 
LINE
 8 
0
 62 
 7 
 10 
1.17
 20 
0.95
 11 
1.13
 21 
0.95
 0 
LINE
 8 
0
 62 
 7 
 10 
1.13
 20 
0.95
 11 
1.13
 21 
1.0
 0 
LINE
 8 
0
 62 
 7 
 10 
1.054
 20 
1.0
 11 
1.094
 21 
1.0
 0 
LINE
 8 
0
 62 
 7 
 10 
1.094
 20 
1.0
 11 
1.094
 21 
0.95
 0 
LINE
 8 
0
 62 
 7 
 10 
1.094
 20 
0.95
 11 
1.054
 21 
0.95
 0 
LINE
 8 
0
 62 
 7 
 10 
1.054
 20 
0.95
 11 
1.054
 21 
1.0
 0 
LINE
 8 
0
 62 
 7 
 10 
0.532
 20 
1.188
 11 
0.567
 21 
1.188
 0 
LINE
 8 
0
 62 
 7 
 10 
0.567
 20 
1.188
 11 
0.567
 21 
1.163
 0 
LINE
 8 
0
 62 
 7 
 10 
0.567
 20 
1.163
 11 
0.532
 21 
1.163
 0 
LINE
 8 
0
 62 
 7 
 10 
0.532
 20 
1.163
 11 
0.532
 21 
1.188
 0 
LINE
 8 
0
 62 
 7 
 10 
0.482
 20 
1.188
 11 
0.517
 21 
1.188
 0 
LINE
 8 
0
 62 
 7 
 10 
0.517
 20 
1.188
 11 
0.517
 21 
1.163
 0 
LINE
 8 
0
 62 
 7 
 10 
0.517
 20 
1.163
 11 
0.482
 21 
1.163
 0 
LINE
 8 
0
 62 
 7 
 10 
0.482
 20 
1.163
 11 
0.482
 21 
1.188
 0 
LINE
 8 
0
 62 
 7 
 10 
1.332
 20 
1.162
 11 
1.367
 21 
1.162
 0 
LINE
 8 
0
 62 
 7 
 10 
1.367
 20 
1.162
 11 
1.367
 21 
1.137
 0 
LINE
 8 
0
 62 
 7 
 10 
1.367
 20 
1.137
 11 
1.332
 21 
1.137
 0 
LINE
 8 
0
 62 
 7 
 10 
1.332
 20 
1.137
 11 
1.332
 21 
1.162
 0 
LINE
 8 
0
 62 
 7 
 10 
1.282
 20 
1.162
 11 
1.317
 21 
1.162
 0 
LINE
 8 
0
 62 
 7 
 10 
1.317
 20 
1.162
 11 
1.317
 21 
1.137
 0 
LINE
 8 
0
 62 
 7 
 10 
1.317
 20 
1.137
 11 
1.282
 21 
1.137
 0 
LINE
 8 
0
 62 
 7 
 10 
1.282
 20 
1.137
 11 
1.282
 21 
1.162
 0 
LINE
 8 
0
 62 
 7 
 10 
1.79
 20 
2.08
 11 
1.86
 21 
2.08
 0 
LINE
 8 
0
 62 
 7 
 10 
1.86
 20 
2.08
 11 
1.86
 21 
2.07
 0 
LINE
 8 
0
 62 
 7 
 10 
1.86
 20 
2.07
 11 
1.79
 21 
2.07
 0 
LINE
 8 
0
 62 
 7 
 10 
1.79
 20 
2.07
 11 
1.79
 21 
2.08
 0 
LINE
 8 
0
 62 
 7 
 10 
1.79
 20 
2.06
 11 
1.86
 21 
2.06
 0 
LINE
 8 
0
 62 
 7 
 10 
1.86
 20 
2.06
 11 
1.86
 21 
2.05
 0 
LINE
 8 
0
 62 
 7 
 10 
1.86
 20 
2.05
 11 
1.79
 21 
2.05
 0 
LINE
 8 
0
 62 
 7 
 10 
1.79
 20 
2.05
 11 
1.79
 21 
2.06
 0 
LINE
 8 
0
 62 
 7 
 10 
1.79
 20 
2.041
 11 
1.86
 21 
2.041
 0 
LINE
 8 
0
 62 
 7 
 10 
1.86
 20 
2.041
 11 
1.86
 21 
2.031
 0 
LINE
 8 
0
 62 
 7 
 10 
1.86
 20 
2.031
 11 
1.79
 21 
2.031
 0 
LINE
 8 
0
 62 
 7 
 10 
1.79
 20 
2.031
 11 
1.79
 21 
2.041
 0 
LINE
 8 
0
 62 
 7 
 10 
1.79
 20 
2.021
 11 
1.86
 21 
2.021
 0 
LINE
 8 
0
 62 
 7 
 10 
1.86
 20 
2.021
 11 
1.86
 21 
2.011
 0 
LINE
 8 
0
 62 
 7 
 10 
1.86
 20 
2.011
 11 
1.79
 21 
2.011
 0 
LINE
 8 
0
 62 
 7 
 10 
1.79
 20 
2.011
 11 
1.79
 21 
2.021
 0 
LINE
 8 
0
 62 
 7 
 10 
1.869
 20 
2.075
 11 
1.929
 21 
2.075
 0 
LINE
 8 
0
 62 
 7 
 10 
1.929
 20 
2.075
 11 
1.929
 21 
2.015
 0 
LINE
 8 
0
 62 
 7 
 10 
1.929
 20 
2.015
 11 
1.869
 21 
2.015
 0 
LINE
 8 
0
 62 
 7 
 10 
1.869
 20 
2.015
 11 
1.869
 21 
2.075
 0 
LINE
 8 
0
 62 
 7 
 10 
1.864
 20 
2.006
 11 
1.874
 21 
2.006
 0 
LINE
 8 
0
 62 
 7 
 10 
1.874
 20 
2.006
 11 
1.874
 21 
1.936
 0 
LINE
 8 
0
 62 
 7 
 10 
1.874
 20 
1.936
 11 
1.864
 21 
1.936
 0 
LINE
 8 
0
 62 
 7 
 10 
1.864
 20 
1.936
 11 
1.864
 21 
2.006
 0 
LINE
 8 
0
 62 
 7 
 10 
1.884
 20 
2.006
 11 
1.894
 21 
2.006
 0 
LINE
 8 
0
 62 
 7 
 10 
1.894
 20 
2.006
 11 
1.894
 21 
1.936
 0 
LINE
 8 
0
 62 
 7 
 10 
1.894
 20 
1.936
 11 
1.884
 21 
1.936
 0 
LINE
 8 
0
 62 
 7 
 10 
1.884
 20 
1.936
 11 
1.884
 21 
2.006
 0 
LINE
 8 
0
 62 
 7 
 10 
1.904
 20 
2.006
 11 
1.914
 21 
2.006
 0 
LINE
 8 
0
 62 
 7 
 10 
1.914
 20 
2.006
 11 
1.914
 21 
1.936
 0 
LINE
 8 
0
 62 
 7 
 10 
1.914
 20 
1.936
 11 
1.904
 21 
1.936
 0 
LINE
 8 
0
 62 
 7 
 10 
1.904
 20 
1.936
 11 
1.904
 21 
2.006
 0 
LINE
 8 
0
 62 
 7 
 10 
1.924
 20 
2.006
 11 
1.934
 21 
2.006
 0 
LINE
 8 
0
 62 
 7 
 10 
1.934
 20 
2.006
 11 
1.934
 21 
1.936
 0 
LINE
 8 
0
 62 
 7 
 10 
1.934
 20 
1.936
 11 
1.924
 21 
1.936
 0 
LINE
 8 
0
 62 
 7 
 10 
1.924
 20 
1.936
 11 
1.924
 21 
2.006
 0 
LINE
 8 
0
 62 
 7 
 10 
1.938
 20 
2.021
 11 
2.008
 21 
2.021
 0 
LINE
 8 
0
 62 
 7 
 10 
2.008
 20 
2.021
 11 
2.008
 21 
2.011
 0 
LINE
 8 
0
 62 
 7 
 10 
2.008
 20 
2.011
 11 
1.938
 21 
2.011
 0 
LINE
 8 
0
 62 
 7 
 10 
1.938
 20 
2.011
 11 
1.938
 21 
2.021
 0 
LINE
 8 
0
 62 
 7 
 10 
1.938
 20 
2.041
 11 
2.008
 21 
2.041
 0 
LINE
 8 
0
 62 
 7 
 10 
2.008
 20 
2.041
 11 
2.008
 21 
2.031
 0 
LINE
 8 
0
 62 
 7 
 10 
2.008
 20 
2.031
 11 
1.938
 21 
2.031
 0 
LINE
 8 
0
 62 
 7 
 10 
1.938
 20 
2.031
 11 
1.938
 21 
2.041
 0 
LINE
 8 
0
 62 
 7 
 10 
1.938
 20 
2.06
 11 
2.008
 21 
2.06
 0 
LINE
 8 
0
 62 
 7 
 10 
2.008
 20 
2.06
 11 
2.008
 21 
2.05
 0 
LINE
 8 
0
 62 
 7 
 10 
2.008
 20 
2.05
 11 
1.938
 21 
2.05
 0 
LINE
 8 
0
 62 
 7 
 10 
1.938
 20 
2.05
 11 
1.938
 21 
2.06
 0 
LINE
 8 
0
 62 
 7 
 10 
1.938
 20 
2.08
 11 
2.008
 21 
2.08
 0 
LINE
 8 
0
 62 
 7 
 10 
2.008
 20 
2.08
 11 
2.008
 21 
2.07
 0 
LINE
 8 
0
 62 
 7 
 10 
2.008
 20 
2.07
 11 
1.938
 21 
2.07
 0 
LINE
 8 
0
 62 
 7 
 10 
1.938
 20 
2.07
 11 
1.938
 21 
2.08
 0 
LINE
 8 
0
 62 
 7 
 10 
1.924
 20 
2.155
 11 
1.934
 21 
2.155
 0 
LINE
 8 
0
 62 
 7 
 10 
1.934
 20 
2.155
 11 
1.934
 21 
2.085
 0 
LINE
 8 
0
 62 
 7 
 10 
1.934
 20 
2.085
 11 
1.924
 21 
2.085
 0 
LINE
 8 
0
 62 
 7 
 10 
1.924
 20 
2.085
 11 
1.924
 21 
2.155
 0 
LINE
 8 
0
 62 
 7 
 10 
1.904
 20 
2.155
 11 
1.914
 21 
2.155
 0 
LINE
 8 
0
 62 
 7 
 10 
1.914
 20 
2.155
 11 
1.914
 21 
2.085
 0 
LINE
 8 
0
 62 
 7 
 10 
1.914
 20 
2.085
 11 
1.904
 21 
2.085
 0 
LINE
 8 
0
 62 
 7 
 10 
1.904
 20 
2.085
 11 
1.904
 21 
2.155
 0 
LINE
 8 
0
 62 
 7 
 10 
1.884
 20 
2.155
 11 
1.894
 21 
2.155
 0 
LINE
 8 
0
 62 
 7 
 10 
1.894
 20 
2.155
 11 
1.894
 21 
2.085
 0 
LINE
 8 
0
 62 
 7 
 10 
1.894
 20 
2.085
 11 
1.884
 21 
2.085
 0 
LINE
 8 
0
 62 
 7 
 10 
1.884
 20 
2.085
 11 
1.884
 21 
2.155
 0 
LINE
 8 
0
 62 
 7 
 10 
1.864
 20 
2.155
 11 
1.874
 21 
2.155
 0 
LINE
 8 
0
 62 
 7 
 10 
1.874
 20 
2.155
 11 
1.874
 21 
2.085
 0 
LINE
 8 
0
 62 
 7 
 10 
1.874
 20 
2.085
 11 
1.864
 21 
2.085
 0 
LINE
 8 
0
 62 
 7 
 10 
1.864
 20 
2.085
 11 
1.864
 21 
2.155
 0 
LINE
 8 
0
 62 
 7 
 10 
1.762
 20 
2.142
 11 
1.787
 21 
2.142
 0 
LINE
 8 
0
 62 
 7 
 10 
1.787
 20 
2.142
 11 
1.787
 21 
2.107
 0 
LINE
 8 
0
 62 
 7 
 10 
1.787
 20 
2.107
 11 
1.762
 21 
2.107
 0 
LINE
 8 
0
 62 
 7 
 10 
1.762
 20 
2.107
 11 
1.762
 21 
2.142
 0 
LINE
 8 
0
 62 
 7 
 10 
1.762
 20 
2.192
 11 
1.787
 21 
2.192
 0 
LINE
 8 
0
 62 
 7 
 10 
1.787
 20 
2.192
 11 
1.787
 21 
2.157
 0 
LINE
 8 
0
 62 
 7 
 10 
1.787
 20 
2.157
 11 
1.762
 21 
2.157
 0 
LINE
 8 
0
 62 
 7 
 10 
1.762
 20 
2.157
 11 
1.762
 21 
2.192
 0 
LINE
 8 
0
 62 
 7 
 10 
1.804
 20 
2.168
 11 
1.829
 21 
2.168
 0 
LINE
 8 
0
 62 
 7 
 10 
1.829
 20 
2.168
 11 
1.829
 21 
2.133
 0 
LINE
 8 
0
 62 
 7 
 10 
1.829
 20 
2.133
 11 
1.804
 21 
2.133
 0 
LINE
 8 
0
 62 
 7 
 10 
1.804
 20 
2.133
 11 
1.804
 21 
2.168
 0 
LINE
 8 
0
 62 
 7 
 10 
1.804
 20 
2.218
 11 
1.829
 21 
2.218
 0 
LINE
 8 
0
 62 
 7 
 10 
1.829
 20 
2.218
 11 
1.829
 21 
2.183
 0 
LINE
 8 
0
 62 
 7 
 10 
1.829
 20 
2.183
 11 
1.804
 21 
2.183
 0 
LINE
 8 
0
 62 
 7 
 10 
1.804
 20 
2.183
 11 
1.804
 21 
2.218
 0 
LINE
 8 
0
 62 
 7 
 10 
1.734
 20 
2.026
 11 
1.769
 21 
2.026
 0 
LINE
 8 
0
 62 
 7 
 10 
1.769
 20 
2.026
 11 
1.769
 21 
2.001
 0 
LINE
 8 
0
 62 
 7 
 10 
1.769
 20 
2.001
 11 
1.734
 21 
2.001
 0 
LINE
 8 
0
 62 
 7 
 10 
1.734
 20 
2.001
 11 
1.734
 21 
2.026
 0 
LINE
 8 
0
 62 
 7 
 10 
1.684
 20 
2.026
 11 
1.719
 21 
2.026
 0 
LINE
 8 
0
 62 
 7 
 10 
1.719
 20 
2.026
 11 
1.719
 21 
2.001
 0 
LINE
 8 
0
 62 
 7 
 10 
1.719
 20 
2.001
 11 
1.684
 21 
2.001
 0 
LINE
 8 
0
 62 
 7 
 10 
1.684
 20 
2.001
 11 
1.684
 21 
2.026
 0 
LINE
 8 
0
 62 
 7 
 10 
1.658
 20 
2.062
 11 
1.693
 21 
2.062
 0 
LINE
 8 
0
 62 
 7 
 10 
1.693
 20 
2.062
 11 
1.693
 21 
2.037
 0 
LINE
 8 
0
 62 
 7 
 10 
1.693
 20 
2.037
 11 
1.658
 21 
2.037
 0 
LINE
 8 
0
 62 
 7 
 10 
1.658
 20 
2.037
 11 
1.658
 21 
2.062
 0 
LINE
 8 
0
 62 
 7 
 10 
1.708
 20 
2.062
 11 
1.743
 21 
2.062
 0 
LINE
 8 
0
 62 
 7 
 10 
1.743
 20 
2.062
 11 
1.743
 21 
2.037
 0 
LINE
 8 
0
 62 
 7 
 10 
1.743
 20 
2.037
 11 
1.708
 21 
2.037
 0 
LINE
 8 
0
 62 
 7 
 10 
1.708
 20 
2.037
 11 
1.708
 21 
2.062
 0 
LINE
 8 
0
 62 
 7 
 10 
1.872
 20 
2.244
 11 
1.897
 21 
2.244
 0 
LINE
 8 
0
 62 
 7 
 10 
1.897
 20 
2.244
 11 
1.897
 21 
2.209
 0 
LINE
 8 
0
 62 
 7 
 10 
1.897
 20 
2.209
 11 
1.872
 21 
2.209
 0 
LINE
 8 
0
 62 
 7 
 10 
1.872
 20 
2.209
 11 
1.872
 21 
2.244
 0 
LINE
 8 
0
 62 
 7 
 10 
1.872
 20 
2.294
 11 
1.897
 21 
2.294
 0 
LINE
 8 
0
 62 
 7 
 10 
1.897
 20 
2.294
 11 
1.897
 21 
2.259
 0 
LINE
 8 
0
 62 
 7 
 10 
1.897
 20 
2.259
 11 
1.872
 21 
2.259
 0 
LINE
 8 
0
 62 
 7 
 10 
1.872
 20 
2.259
 11 
1.872
 21 
2.294
 0 
LINE
 8 
0
 62 
 7 
 10 
1.912
 20 
2.218
 11 
1.937
 21 
2.218
 0 
LINE
 8 
0
 62 
 7 
 10 
1.937
 20 
2.218
 11 
1.937
 21 
2.183
 0 
LINE
 8 
0
 62 
 7 
 10 
1.937
 20 
2.183
 11 
1.912
 21 
2.183
 0 
LINE
 8 
0
 62 
 7 
 10 
1.912
 20 
2.183
 11 
1.912
 21 
2.218
 0 
LINE
 8 
0
 62 
 7 
 10 
1.912
 20 
2.268
 11 
1.937
 21 
2.268
 0 
LINE
 8 
0
 62 
 7 
 10 
1.937
 20 
2.268
 11 
1.937
 21 
2.233
 0 
LINE
 8 
0
 62 
 7 
 10 
1.937
 20 
2.233
 11 
1.912
 21 
2.233
 0 
LINE
 8 
0
 62 
 7 
 10 
1.912
 20 
2.233
 11 
1.912
 21 
2.268
 0 
LINE
 8 
0
 62 
 7 
 10 
1.658
 20 
2.312
 11 
1.693
 21 
2.312
 0 
LINE
 8 
0
 62 
 7 
 10 
1.693
 20 
2.312
 11 
1.693
 21 
2.287
 0 
LINE
 8 
0
 62 
 7 
 10 
1.693
 20 
2.287
 11 
1.658
 21 
2.287
 0 
LINE
 8 
0
 62 
 7 
 10 
1.658
 20 
2.287
 11 
1.658
 21 
2.312
 0 
LINE
 8 
0
 62 
 7 
 10 
1.608
 20 
2.312
 11 
1.643
 21 
2.312
 0 
LINE
 8 
0
 62 
 7 
 10 
1.643
 20 
2.312
 11 
1.643
 21 
2.287
 0 
LINE
 8 
0
 62 
 7 
 10 
1.643
 20 
2.287
 11 
1.608
 21 
2.287
 0 
LINE
 8 
0
 62 
 7 
 10 
1.608
 20 
2.287
 11 
1.608
 21 
2.312
 0 
LINE
 8 
0
 62 
 7 
 10 
2.612
 20 
2.095
 11 
2.638
 21 
2.095
 0 
LINE
 8 
0
 62 
 7 
 10 
2.638
 20 
2.095
 11 
2.638
 21 
2.055
 0 
LINE
 8 
0
 62 
 7 
 10 
2.638
 20 
2.055
 11 
2.612
 21 
2.055
 0 
LINE
 8 
0
 62 
 7 
 10 
2.612
 20 
2.055
 11 
2.612
 21 
2.095
 0 
LINE
 8 
0
 62 
 7 
 10 
2.65
 20 
2.095
 11 
2.676
 21 
2.095
 0 
LINE
 8 
0
 62 
 7 
 10 
2.676
 20 
2.095
 11 
2.676
 21 
2.055
 0 
LINE
 8 
0
 62 
 7 
 10 
2.676
 20 
2.055
 11 
2.65
 21 
2.055
 0 
LINE
 8 
0
 62 
 7 
 10 
2.65
 20 
2.055
 11 
2.65
 21 
2.095
 0 
LINE
 8 
0
 62 
 7 
 10 
2.574
 20 
2.095
 11 
2.6
 21 
2.095
 0 
LINE
 8 
0
 62 
 7 
 10 
2.6
 20 
2.095
 11 
2.6
 21 
2.055
 0 
LINE
 8 
0
 62 
 7 
 10 
2.6
 20 
2.055
 11 
2.574
 21 
2.055
 0 
LINE
 8 
0
 62 
 7 
 10 
2.574
 20 
2.055
 11 
2.574
 21 
2.095
 0 
LINE
 8 
0
 62 
 7 
 10 
2.574
 20 
2.197
 11 
2.6
 21 
2.197
 0 
LINE
 8 
0
 62 
 7 
 10 
2.6
 20 
2.197
 11 
2.6
 21 
2.157
 0 
LINE
 8 
0
 62 
 7 
 10 
2.6
 20 
2.157
 11 
2.574
 21 
2.157
 0 
LINE
 8 
0
 62 
 7 
 10 
2.574
 20 
2.157
 11 
2.574
 21 
2.197
 0 
LINE
 8 
0
 62 
 7 
 10 
2.65
 20 
2.197
 11 
2.676
 21 
2.197
 0 
LINE
 8 
0
 62 
 7 
 10 
2.676
 20 
2.197
 11 
2.676
 21 
2.157
 0 
LINE
 8 
0
 62 
 7 
 10 
2.676
 20 
2.157
 11 
2.65
 21 
2.157
 0 
LINE
 8 
0
 62 
 7 
 10 
2.65
 20 
2.157
 11 
2.65
 21 
2.197
 0 
LINE
 8 
0
 62 
 7 
 10 
2.468
 20 
2.257
 11 
2.532
 21 
2.257
 0 
LINE
 8 
0
 62 
 7 
 10 
2.532
 20 
2.257
 11 
2.532
 21 
2.193
 0 
LINE
 8 
0
 62 
 7 
 10 
2.532
 20 
2.193
 11 
2.468
 21 
2.193
 0 
LINE
 8 
0
 62 
 7 
 10 
2.468
 20 
2.193
 11 
2.468
 21 
2.257
 0 
LINE
 8 
0
 62 
 7 
 10 
2.343
 20 
2.257
 11 
2.407
 21 
2.257
 0 
LINE
 8 
0
 62 
 7 
 10 
2.407
 20 
2.257
 11 
2.407
 21 
2.193
 0 
LINE
 8 
0
 62 
 7 
 10 
2.407
 20 
2.193
 11 
2.343
 21 
2.193
 0 
LINE
 8 
0
 62 
 7 
 10 
2.343
 20 
2.193
 11 
2.343
 21 
2.257
 0 
LINE
 8 
0
 62 
 7 
 10 
2.48
 20 
2.1
 11 
2.52
 21 
2.1
 0 
LINE
 8 
0
 62 
 7 
 10 
2.52
 20 
2.1
 11 
2.52
 21 
2.05
 0 
LINE
 8 
0
 62 
 7 
 10 
2.52
 20 
2.05
 11 
2.48
 21 
2.05
 0 
LINE
 8 
0
 62 
 7 
 10 
2.48
 20 
2.05
 11 
2.48
 21 
2.1
 0 
LINE
 8 
0
 62 
 7 
 10 
2.404
 20 
2.1
 11 
2.444
 21 
2.1
 0 
LINE
 8 
0
 62 
 7 
 10 
2.444
 20 
2.1
 11 
2.444
 21 
2.05
 0 
LINE
 8 
0
 62 
 7 
 10 
2.444
 20 
2.05
 11 
2.404
 21 
2.05
 0 
LINE
 8 
0
 62 
 7 
 10 
2.404
 20 
2.05
 11 
2.404
 21 
2.1
 0 
LINE
 8 
0
 62 
 7 
 10 
2.682
 20 
2.262
 11 
2.717
 21 
2.262
 0 
LINE
 8 
0
 62 
 7 
 10 
2.717
 20 
2.262
 11 
2.717
 21 
2.237
 0 
LINE
 8 
0
 62 
 7 
 10 
2.717
 20 
2.237
 11 
2.682
 21 
2.237
 0 
LINE
 8 
0
 62 
 7 
 10 
2.682
 20 
2.237
 11 
2.682
 21 
2.262
 0 
LINE
 8 
0
 62 
 7 
 10 
2.632
 20 
2.262
 11 
2.667
 21 
2.262
 0 
LINE
 8 
0
 62 
 7 
 10 
2.667
 20 
2.262
 11 
2.667
 21 
2.237
 0 
LINE
 8 
0
 62 
 7 
 10 
2.667
 20 
2.237
 11 
2.632
 21 
2.237
 0 
LINE
 8 
0
 62 
 7 
 10 
2.632
 20 
2.237
 11 
2.632
 21 
2.262
 0 
ENDSEC
 0 
EOF
