  0
SECTION
  2
HEADER
  9
$ACADVER
  1
AC1014
  9
$HANDSEED
  5
FFFF
  9
$MEASUREMENT
 70
     1
  0
ENDSEC
  0
SECTION
  2
TABLES
  0
TABLE
  2
VPORT
  5
8
330
0
100
AcDbSymbolTable
 70
     4
  0
VPORT
  5
2E
330
8
100
AcDbSymbolTableRecord
100
AcDbViewportTableRecord
  2
*ACTIVE
 70
     0
 10
0.0
 20
0.0
 11
1.0
 21
1.0
 12
210.0
 22
148.5
 13
0.0
 23
0.0
 14
10.0
 24
10.0
 15
10.0
 25
10.0
 16
0.0
 26
0.0
 36
1.0
 17
0.0
 27
0.0
 37
0.0
 40
341.0
 41
1.24
 42
50.0
 43
0.0
 44
0.0
 50
0.0
 51
0.0
 71
     0
 72
   100
 73
     1
 74
     3
 75
     0
 76
     0
 77
     0
 78
     0
  0
ENDTAB
  0
TABLE
  2
LTYPE
  5
5
330
0
100
AcDbSymbolTable
 70
     1
  0
LTYPE
  5
14
330
5
100
AcDbSymbolTableRecord
100
AcDbLinetypeTableRecord
  2
BYBLOCK
 70
     0
  3

 72
    65
 73
     0
 40
0.0
  0
LTYPE
  5
15
330
5
100
AcDbSymbolTableRecord
100
AcDbLinetypeTableRecord
  2
BYLAYER
 70
     0
  3

 72
    65
 73
     0
 40
0.0
  0
LTYPE
  5
16
330
5
100
AcDbSymbolTableRecord
100
AcDbLinetypeTableRecord
  2
CONTINUOUS
 70
     0
  3
Solid line
 72
    65
 73
     0
 40
0.0
  0
ENDTAB
  0
TABLE
  2
LAYER
  5
2
100
AcDbSymbolTable
 70
1
  0
LAYER
  5
50
100
AcDbSymbolTableRecord
100
AcDbLayerTableRecord
  2
0
 70
0
  6
CONTINUOUS
  0
ENDTAB
  0
TABLE
  2
STYLE
  5
3
330
0
100
AcDbSymbolTable
 70
     1
  0
STYLE
  5
11
330
3
100
AcDbSymbolTableRecord
100
AcDbTextStyleTableRecord
  2
STANDARD
 70
     0
 40
0.0
 41
1.0
 50
0.0
 71
     0
 42
2.5
  3
txt
  4

  0
ENDTAB
  0
TABLE
  2
VIEW
  5
6
330
0
100
AcDbSymbolTable
 70
     0
  0
ENDTAB
  0
TABLE
  2
UCS
  5
7
330
0
100
AcDbSymbolTable
 70
     0
  0
ENDTAB
  0
TABLE
  2
APPID
  5
9
330
0
100
AcDbSymbolTable
 70
     2
  0
APPID
  5
12
330
9
100
AcDbSymbolTableRecord
100
AcDbRegAppTableRecord
  2
ACAD
 70
     0
  0
ENDTAB
  0
TABLE
  2
DIMSTYLE
  5
A
330
0
100
AcDbSymbolTable
 70
     1
  0
DIMSTYLE
105
27
330
A
100
AcDbSymbolTableRecord
100
AcDbDimStyleTableRecord
  2
ISO-25
 70
     0
  3

  4

  5

  6

  7

 40
1.0
 41
2.5
 42
0.625
 43
3.75
 44
1.25
 45
0.0
 46
0.0
 47
0.0
 48
0.0
140
2.5
141
2.5
142
0.0
143
0.03937007874016
144
1.0
145
0.0
146
1.0
147
0.625
 71
     0
 72
     0
 73
     0
 74
     0
 75
     0
 76
     0
 77
     1
 78
     8
170
     0
171
     3
172
     1
173
     0
174
     0
175
     0
176
     0
177
     0
178
     0
270
     2
271
     2
272
     2
273
     2
274
     3
340
11
275
     0
280
     0
281
     0
282
     0
283
     0
284
     8
285
     0
286
     0
287
     3
288
     0
  0
ENDTAB
  0
TABLE
  2
BLOCK_RECORD
  5
1
330
0
100
AcDbSymbolTable
 70
     1
  0
BLOCK_RECORD
  5
1F
330
1
100
AcDbSymbolTableRecord
100
AcDbBlockTableRecord
  2
*MODEL_SPACE
  0
BLOCK_RECORD
  5
1B
330
1
100
AcDbSymbolTableRecord
100
AcDbBlockTableRecord
  2
*PAPER_SPACE
  0
ENDTAB
  0
ENDSEC
  0
SECTION
  2
BLOCKS
  0
BLOCK
  5
20
330
1F
100
AcDbEntity
  8
0
100
AcDbBlockBegin
  2
*MODEL_SPACE
 70
     0
 10
0.0
 20
0.0
 30
0.0
  3
*MODEL_SPACE
  1

  0
ENDBLK
  5
21
330
1F
100
AcDbEntity
  8
0
100
AcDbBlockEnd
  0
BLOCK
  5
1C
330
1B
100
AcDbEntity
 67
     1
  8
0
100
AcDbBlockBegin
  2
*PAPER_SPACE
  1

  0
ENDBLK
  5
1D
330
1B
100
AcDbEntity
 67
     1
  8
0
100
AcDbBlockEnd
  0
ENDSEC
  0
SECTION
  2
ENTITIES
  0
LWPOLYLINE
  5
100
100
AcDbEntity
  8
0
 62
7
100
AcDbPolyline
 90
5
 70
0
 10
0.016062
 20
11.542731
 30
0.0
 10
8.283778
 20
11.542731
 30
0.0
 10
8.283778
 20
6.103444
 30
0.0
 10
0.016062
 20
6.103444
 30
0.0
 10
0.016062
 20
11.542731
 30
0.0
  0
LWPOLYLINE
  5
101
100
AcDbEntity
  8
0
 62
7
100
AcDbPolyline
 90
5
 70
0
 10
0.425096
 20
11.146751
 30
0.0
 10
0.479489
 20
11.146751
 30
0.0
 10
0.479489
 20
11.070601
 30
0.0
 10
0.425096
 20
11.070601
 30
0.0
 10
0.425096
 20
11.146751
 30
0.0
  0
LWPOLYLINE
  5
102
100
AcDbEntity
  8
0
 62
7
100
AcDbPolyline
 90
5
 70
0
 10
0.425096
 20
11.037965
 30
0.0
 10
0.479489
 20
11.037965
 30
0.0
 10
0.479489
 20
10.961815
 30
0.0
 10
0.425096
 20
10.961815
 30
0.0
 10
0.425096
 20
11.037965
 30
0.0
  0
LWPOLYLINE
  5
103
100
AcDbEntity
  8
0
 62
7
100
AcDbPolyline
 90
5
 70
0
 10
0.425096
 20
10.981396
 30
0.0
 10
0.479489
 20
10.981396
 30
0.0
 10
0.479489
 20
10.905246
 30
0.0
 10
0.425096
 20
10.905246
 30
0.0
 10
0.425096
 20
10.981396
 30
0.0
  0
LWPOLYLINE
  5
104
100
AcDbEntity
  8
0
 62
7
100
AcDbPolyline
 90
5
 70
0
 10
0.425096
 20
10.872611
 30
0.0
 10
0.479489
 20
10.872611
 30
0.0
 10
0.479489
 20
10.796461
 30
0.0
 10
0.425096
 20
10.796461
 30
0.0
 10
0.425096
 20
10.872611
 30
0.0
  0
LWPOLYLINE
  5
105
100
AcDbEntity
  8
0
 62
7
100
AcDbPolyline
 90
5
 70
0
 10
0.921159
 20
10.800812
 30
0.0
 10
0.960322
 20
10.800812
 30
0.0
 10
0.960322
 20
10.761649
 30
0.0
 10
0.921159
 20
10.761649
 30
0.0
 10
0.921159
 20
10.800812
 30
0.0
  0
LWPOLYLINE
  5
106
100
AcDbEntity
  8
0
 62
7
100
AcDbPolyline
 90
5
 70
0
 10
0.975552
 20
10.833448
 30
0.0
 10
1.062581
 20
10.833448
 30
0.0
 10
1.062581
 20
10.813866
 30
0.0
 10
0.975552
 20
10.813866
 30
0.0
 10
0.975552
 20
10.833448
 30
0.0
  0
LWPOLYLINE
  5
107
100
AcDbEntity
  8
0
 62
7
100
AcDbPolyline
 90
5
 70
0
 10
0.975552
 20
10.789934
 30
0.0
 10
1.062581
 20
10.789934
 30
0.0
 10
1.062581
 20
10.770352
 30
0.0
 10
0.975552
 20
10.770352
 30
0.0
 10
0.975552
 20
10.789934
 30
0.0
  0
LWPOLYLINE
  5
108
100
AcDbEntity
  8
0
 62
7
100
AcDbPolyline
 90
5
 70
0
 10
0.975552
 20
10.750771
 30
0.0
 10
1.062581
 20
10.750771
 30
0.0
 10
1.062581
 20
10.731189
 30
0.0
 10
0.975552
 20
10.731189
 30
0.0
 10
0.975552
 20
10.750771
 30
0.0
  0
LWPOLYLINE
  5
109
100
AcDbEntity
  8
0
 62
7
100
AcDbPolyline
 90
5
 70
0
 10
0.816725
 20
10.833448
 30
0.0
 10
0.903753
 20
10.833448
 30
0.0
 10
0.903753
 20
10.813866
 30
0.0
 10
0.816725
 20
10.813866
 30
0.0
 10
0.816725
 20
10.833448
 30
0.0
  0
LWPOLYLINE
  5
10a
100
AcDbEntity
  8
0
 62
7
100
AcDbPolyline
 90
5
 70
0
 10
0.816725
 20
10.789934
 30
0.0
 10
0.903753
 20
10.789934
 30
0.0
 10
0.903753
 20
10.770352
 30
0.0
 10
0.816725
 20
10.770352
 30
0.0
 10
0.816725
 20
10.789934
 30
0.0
  0
LWPOLYLINE
  5
10b
100
AcDbEntity
  8
0
 62
7
100
AcDbPolyline
 90
5
 70
0
 10
0.816725
 20
10.750771
 30
0.0
 10
0.903753
 20
10.750771
 30
0.0
 10
0.903753
 20
10.731189
 30
0.0
 10
0.816725
 20
10.731189
 30
0.0
 10
0.816725
 20
10.750771
 30
0.0
  0
LWPOLYLINE
  5
10c
100
AcDbEntity
  8
0
 62
7
100
AcDbPolyline
 90
5
 70
0
 10
1.193123
 20
10.800812
 30
0.0
 10
1.232286
 20
10.800812
 30
0.0
 10
1.232286
 20
10.761649
 30
0.0
 10
1.193123
 20
10.761649
 30
0.0
 10
1.193123
 20
10.800812
 30
0.0
  0
LWPOLYLINE
  5
10d
100
AcDbEntity
  8
0
 62
7
100
AcDbPolyline
 90
5
 70
0
 10
1.247516
 20
10.833448
 30
0.0
 10
1.334545
 20
10.833448
 30
0.0
 10
1.334545
 20
10.813866
 30
0.0
 10
1.247516
 20
10.813866
 30
0.0
 10
1.247516
 20
10.833448
 30
0.0
  0
LWPOLYLINE
  5
10e
100
AcDbEntity
  8
0
 62
7
100
AcDbPolyline
 90
5
 70
0
 10
1.247516
 20
10.789934
 30
0.0
 10
1.334545
 20
10.789934
 30
0.0
 10
1.334545
 20
10.770352
 30
0.0
 10
1.247516
 20
10.770352
 30
0.0
 10
1.247516
 20
10.789934
 30
0.0
  0
LWPOLYLINE
  5
10f
100
AcDbEntity
  8
0
 62
7
100
AcDbPolyline
 90
5
 70
0
 10
1.247516
 20
10.750771
 30
0.0
 10
1.334545
 20
10.750771
 30
0.0
 10
1.334545
 20
10.731189
 30
0.0
 10
1.247516
 20
10.731189
 30
0.0
 10
1.247516
 20
10.750771
 30
0.0
  0
LWPOLYLINE
  5
110
100
AcDbEntity
  8
0
 62
7
100
AcDbPolyline
 90
5
 70
0
 10
1.088689
 20
10.833448
 30
0.0
 10
1.175718
 20
10.833448
 30
0.0
 10
1.175718
 20
10.813866
 30
0.0
 10
1.088689
 20
10.813866
 30
0.0
 10
1.088689
 20
10.833448
 30
0.0
  0
LWPOLYLINE
  5
111
100
AcDbEntity
  8
0
 62
7
100
AcDbPolyline
 90
5
 70
0
 10
1.088689
 20
10.789934
 30
0.0
 10
1.175718
 20
10.789934
 30
0.0
 10
1.175718
 20
10.770352
 30
0.0
 10
1.088689
 20
10.770352
 30
0.0
 10
1.088689
 20
10.789934
 30
0.0
  0
LWPOLYLINE
  5
112
100
AcDbEntity
  8
0
 62
7
100
AcDbPolyline
 90
5
 70
0
 10
1.088689
 20
10.750771
 30
0.0
 10
1.175718
 20
10.750771
 30
0.0
 10
1.175718
 20
10.731189
 30
0.0
 10
1.088689
 20
10.731189
 30
0.0
 10
1.088689
 20
10.750771
 30
0.0
  0
LWPOLYLINE
  5
113
100
AcDbEntity
  8
0
 62
7
100
AcDbPolyline
 90
5
 70
0
 10
1.465088
 20
10.800812
 30
0.0
 10
1.504251
 20
10.800812
 30
0.0
 10
1.504251
 20
10.761649
 30
0.0
 10
1.465088
 20
10.761649
 30
0.0
 10
1.465088
 20
10.800812
 30
0.0
  0
LWPOLYLINE
  5
114
100
AcDbEntity
  8
0
 62
7
100
AcDbPolyline
 90
5
 70
0
 10
1.519481
 20
10.833448
 30
0.0
 10
1.606509
 20
10.833448
 30
0.0
 10
1.606509
 20
10.813866
 30
0.0
 10
1.519481
 20
10.813866
 30
0.0
 10
1.519481
 20
10.833448
 30
0.0
  0
LWPOLYLINE
  5
115
100
AcDbEntity
  8
0
 62
7
100
AcDbPolyline
 90
5
 70
0
 10
1.519481
 20
10.789934
 30
0.0
 10
1.606509
 20
10.789934
 30
0.0
 10
1.606509
 20
10.770352
 30
0.0
 10
1.519481
 20
10.770352
 30
0.0
 10
1.519481
 20
10.789934
 30
0.0
  0
LWPOLYLINE
  5
116
100
AcDbEntity
  8
0
 62
7
100
AcDbPolyline
 90
5
 70
0
 10
1.519481
 20
10.750771
 30
0.0
 10
1.606509
 20
10.750771
 30
0.0
 10
1.606509
 20
10.731189
 30
0.0
 10
1.519481
 20
10.731189
 30
0.0
 10
1.519481
 20
10.750771
 30
0.0
  0
LWPOLYLINE
  5
117
100
AcDbEntity
  8
0
 62
7
100
AcDbPolyline
 90
5
 70
0
 10
1.360653
 20
10.833448
 30
0.0
 10
1.447682
 20
10.833448
 30
0.0
 10
1.447682
 20
10.813866
 30
0.0
 10
1.360653
 20
10.813866
 30
0.0
 10
1.360653
 20
10.833448
 30
0.0
  0
LWPOLYLINE
  5
118
100
AcDbEntity
  8
0
 62
7
100
AcDbPolyline
 90
5
 70
0
 10
1.360653
 20
10.789934
 30
0.0
 10
1.447682
 20
10.789934
 30
0.0
 10
1.447682
 20
10.770352
 30
0.0
 10
1.360653
 20
10.770352
 30
0.0
 10
1.360653
 20
10.789934
 30
0.0
  0
LWPOLYLINE
  5
119
100
AcDbEntity
  8
0
 62
7
100
AcDbPolyline
 90
5
 70
0
 10
1.360653
 20
10.750771
 30
0.0
 10
1.447682
 20
10.750771
 30
0.0
 10
1.447682
 20
10.731189
 30
0.0
 10
1.360653
 20
10.731189
 30
0.0
 10
1.360653
 20
10.750771
 30
0.0
  0
LWPOLYLINE
  5
11a
100
AcDbEntity
  8
0
 62
7
100
AcDbPolyline
 90
5
 70
0
 10
1.021242
 20
10.602822
 30
0.0
 10
1.075635
 20
10.602822
 30
0.0
 10
1.075635
 20
10.526672
 30
0.0
 10
1.021242
 20
10.526672
 30
0.0
 10
1.021242
 20
10.602822
 30
0.0
  0
LWPOLYLINE
  5
11b
100
AcDbEntity
  8
0
 62
7
100
AcDbPolyline
 90
5
 70
0
 10
1.021242
 20
10.711608
 30
0.0
 10
1.075635
 20
10.711608
 30
0.0
 10
1.075635
 20
10.635458
 30
0.0
 10
1.021242
 20
10.635458
 30
0.0
 10
1.021242
 20
10.711608
 30
0.0
  0
LWPOLYLINE
  5
11c
100
AcDbEntity
  8
0
 62
7
100
AcDbPolyline
 90
5
 70
0
 10
1.295382
 20
10.602822
 30
0.0
 10
1.349775
 20
10.602822
 30
0.0
 10
1.349775
 20
10.526672
 30
0.0
 10
1.295382
 20
10.526672
 30
0.0
 10
1.295382
 20
10.602822
 30
0.0
  0
LWPOLYLINE
  5
11d
100
AcDbEntity
  8
0
 62
7
100
AcDbPolyline
 90
5
 70
0
 10
1.295382
 20
10.711608
 30
0.0
 10
1.349775
 20
10.711608
 30
0.0
 10
1.349775
 20
10.635458
 30
0.0
 10
1.295382
 20
10.635458
 30
0.0
 10
1.295382
 20
10.711608
 30
0.0
  0
LWPOLYLINE
  5
11e
100
AcDbEntity
  8
0
 62
7
100
AcDbPolyline
 90
5
 70
0
 10
1.565171
 20
10.602822
 30
0.0
 10
1.619564
 20
10.602822
 30
0.0
 10
1.619564
 20
10.526672
 30
0.0
 10
1.565171
 20
10.526672
 30
0.0
 10
1.565171
 20
10.602822
 30
0.0
  0
LWPOLYLINE
  5
11f
100
AcDbEntity
  8
0
 62
7
100
AcDbPolyline
 90
5
 70
0
 10
1.565171
 20
10.711608
 30
0.0
 10
1.619564
 20
10.711608
 30
0.0
 10
1.619564
 20
10.635458
 30
0.0
 10
1.565171
 20
10.635458
 30
0.0
 10
1.565171
 20
10.711608
 30
0.0
  0
LWPOLYLINE
  5
120
100
AcDbEntity
  8
0
 62
7
100
AcDbPolyline
 90
5
 70
0
 10
1.012539
 20
10.537551
 30
0.0
 10
1.088689
 20
10.537551
 30
0.0
 10
1.088689
 20
10.483158
 30
0.0
 10
1.012539
 20
10.483158
 30
0.0
 10
1.012539
 20
10.537551
 30
0.0
  0
LWPOLYLINE
  5
121
100
AcDbEntity
  8
0
 62
7
100
AcDbPolyline
 90
5
 70
0
 10
0.903753
 20
10.537551
 30
0.0
 10
0.979903
 20
10.537551
 30
0.0
 10
0.979903
 20
10.483158
 30
0.0
 10
0.903753
 20
10.483158
 30
0.0
 10
0.903753
 20
10.537551
 30
0.0
  0
LWPOLYLINE
  5
122
100
AcDbEntity
  8
0
 62
7
100
AcDbPolyline
 90
5
 70
0
 10
1.282328
 20
10.537551
 30
0.0
 10
1.358478
 20
10.537551
 30
0.0
 10
1.358478
 20
10.483158
 30
0.0
 10
1.282328
 20
10.483158
 30
0.0
 10
1.282328
 20
10.537551
 30
0.0
  0
LWPOLYLINE
  5
123
100
AcDbEntity
  8
0
 62
7
100
AcDbPolyline
 90
5
 70
0
 10
1.173542
 20
10.537551
 30
0.0
 10
1.249692
 20
10.537551
 30
0.0
 10
1.249692
 20
10.483158
 30
0.0
 10
1.173542
 20
10.483158
 30
0.0
 10
1.173542
 20
10.537551
 30
0.0
  0
LWPOLYLINE
  5
124
100
AcDbEntity
  8
0
 62
7
100
AcDbPolyline
 90
5
 70
0
 10
1.556468
 20
10.537551
 30
0.0
 10
1.632618
 20
10.537551
 30
0.0
 10
1.632618
 20
10.483158
 30
0.0
 10
1.556468
 20
10.483158
 30
0.0
 10
1.556468
 20
10.537551
 30
0.0
  0
LWPOLYLINE
  5
125
100
AcDbEntity
  8
0
 62
7
100
AcDbPolyline
 90
5
 70
0
 10
1.447682
 20
10.537551
 30
0.0
 10
1.523832
 20
10.537551
 30
0.0
 10
1.523832
 20
10.483158
 30
0.0
 10
1.447682
 20
10.483158
 30
0.0
 10
1.447682
 20
10.537551
 30
0.0
  0
LWPOLYLINE
  5
126
100
AcDbEntity
  8
0
 62
7
100
AcDbPolyline
 90
5
 70
0
 10
1.012539
 20
10.428765
 30
0.0
 10
1.088689
 20
10.428765
 30
0.0
 10
1.088689
 20
10.374372
 30
0.0
 10
1.012539
 20
10.374372
 30
0.0
 10
1.012539
 20
10.428765
 30
0.0
  0
LWPOLYLINE
  5
127
100
AcDbEntity
  8
0
 62
7
100
AcDbPolyline
 90
5
 70
0
 10
0.903753
 20
10.428765
 30
0.0
 10
0.979903
 20
10.428765
 30
0.0
 10
0.979903
 20
10.374372
 30
0.0
 10
0.903753
 20
10.374372
 30
0.0
 10
0.903753
 20
10.428765
 30
0.0
  0
LWPOLYLINE
  5
128
100
AcDbEntity
  8
0
 62
7
100
AcDbPolyline
 90
5
 70
0
 10
1.282328
 20
10.428765
 30
0.0
 10
1.358478
 20
10.428765
 30
0.0
 10
1.358478
 20
10.374372
 30
0.0
 10
1.282328
 20
10.374372
 30
0.0
 10
1.282328
 20
10.428765
 30
0.0
  0
LWPOLYLINE
  5
129
100
AcDbEntity
  8
0
 62
7
100
AcDbPolyline
 90
5
 70
0
 10
1.173542
 20
10.428765
 30
0.0
 10
1.249692
 20
10.428765
 30
0.0
 10
1.249692
 20
10.374372
 30
0.0
 10
1.173542
 20
10.374372
 30
0.0
 10
1.173542
 20
10.428765
 30
0.0
  0
LWPOLYLINE
  5
12a
100
AcDbEntity
  8
0
 62
7
100
AcDbPolyline
 90
5
 70
0
 10
1.556468
 20
10.428765
 30
0.0
 10
1.632618
 20
10.428765
 30
0.0
 10
1.632618
 20
10.374372
 30
0.0
 10
1.556468
 20
10.374372
 30
0.0
 10
1.556468
 20
10.428765
 30
0.0
  0
LWPOLYLINE
  5
12b
100
AcDbEntity
  8
0
 62
7
100
AcDbPolyline
 90
5
 70
0
 10
1.447682
 20
10.428765
 30
0.0
 10
1.523832
 20
10.428765
 30
0.0
 10
1.523832
 20
10.374372
 30
0.0
 10
1.447682
 20
10.374372
 30
0.0
 10
1.447682
 20
10.428765
 30
0.0
  0
LWPOLYLINE
  5
12c
100
AcDbEntity
  8
0
 62
7
100
AcDbPolyline
 90
5
 70
0
 10
0.816725
 20
9.980568
 30
0.0
 10
0.955971
 20
9.980568
 30
0.0
 10
0.955971
 20
9.841322
 30
0.0
 10
0.816725
 20
9.841322
 30
0.0
 10
0.816725
 20
9.980568
 30
0.0
  0
LWPOLYLINE
  5
12d
100
AcDbEntity
  8
0
 62
7
100
AcDbPolyline
 90
5
 70
0
 10
0.816725
 20
10.252532
 30
0.0
 10
0.955971
 20
10.252532
 30
0.0
 10
0.955971
 20
10.113286
 30
0.0
 10
0.816725
 20
10.113286
 30
0.0
 10
0.816725
 20
10.252532
 30
0.0
  0
LWPOLYLINE
  5
12e
100
AcDbEntity
  8
0
 62
7
100
AcDbPolyline
 90
5
 70
0
 10
1.088689
 20
9.980568
 30
0.0
 10
1.227935
 20
9.980568
 30
0.0
 10
1.227935
 20
9.841322
 30
0.0
 10
1.088689
 20
9.841322
 30
0.0
 10
1.088689
 20
9.980568
 30
0.0
  0
LWPOLYLINE
  5
12f
100
AcDbEntity
  8
0
 62
7
100
AcDbPolyline
 90
5
 70
0
 10
1.088689
 20
10.252532
 30
0.0
 10
1.227935
 20
10.252532
 30
0.0
 10
1.227935
 20
10.113286
 30
0.0
 10
1.088689
 20
10.113286
 30
0.0
 10
1.088689
 20
10.252532
 30
0.0
  0
LWPOLYLINE
  5
130
100
AcDbEntity
  8
0
 62
7
100
AcDbPolyline
 90
5
 70
0
 10
1.360653
 20
9.980568
 30
0.0
 10
1.499899
 20
9.980568
 30
0.0
 10
1.499899
 20
9.841322
 30
0.0
 10
1.360653
 20
9.841322
 30
0.0
 10
1.360653
 20
9.980568
 30
0.0
  0
LWPOLYLINE
  5
131
100
AcDbEntity
  8
0
 62
7
100
AcDbPolyline
 90
5
 70
0
 10
1.360653
 20
10.252532
 30
0.0
 10
1.499899
 20
10.252532
 30
0.0
 10
1.499899
 20
10.113286
 30
0.0
 10
1.360653
 20
10.113286
 30
0.0
 10
1.360653
 20
10.252532
 30
0.0
  0
LWPOLYLINE
  5
132
100
AcDbEntity
  8
0
 62
7
100
AcDbPolyline
 90
5
 70
0
 10
1.774039
 20
10.807339
 30
0.0
 10
1.850189
 20
10.807339
 30
0.0
 10
1.850189
 20
10.752946
 30
0.0
 10
1.774039
 20
10.752946
 30
0.0
 10
1.774039
 20
10.807339
 30
0.0
  0
LWPOLYLINE
  5
133
100
AcDbEntity
  8
0
 62
7
100
AcDbPolyline
 90
5
 70
0
 10
1.665254
 20
10.807339
 30
0.0
 10
1.741404
 20
10.807339
 30
0.0
 10
1.741404
 20
10.752946
 30
0.0
 10
1.665254
 20
10.752946
 30
0.0
 10
1.665254
 20
10.807339
 30
0.0
  0
LWPOLYLINE
  5
134
100
AcDbEntity
  8
0
 62
7
100
AcDbPolyline
 90
5
 70
0
 10
1.930691
 20
10.696378
 30
0.0
 10
2.017719
 20
10.696378
 30
0.0
 10
2.017719
 20
10.648512
 30
0.0
 10
1.930691
 20
10.648512
 30
0.0
 10
1.930691
 20
10.696378
 30
0.0
  0
LWPOLYLINE
  5
135
100
AcDbEntity
  8
0
 62
7
100
AcDbPolyline
 90
5
 70
0
 10
1.930691
 20
10.594119
 30
0.0
 10
2.017719
 20
10.594119
 30
0.0
 10
2.017719
 20
10.546253
 30
0.0
 10
1.930691
 20
10.546253
 30
0.0
 10
1.930691
 20
10.594119
 30
0.0
  0
LWPOLYLINE
  5
136
100
AcDbEntity
  8
0
 62
7
100
AcDbPolyline
 90
5
 70
0
 10
1.930691
 20
10.796461
 30
0.0
 10
2.017719
 20
10.796461
 30
0.0
 10
2.017719
 20
10.748595
 30
0.0
 10
1.930691
 20
10.748595
 30
0.0
 10
1.930691
 20
10.796461
 30
0.0
  0
LWPOLYLINE
  5
137
100
AcDbEntity
  8
0
 62
7
100
AcDbPolyline
 90
5
 70
0
 10
2.146087
 20
10.796461
 30
0.0
 10
2.233115
 20
10.796461
 30
0.0
 10
2.233115
 20
10.748595
 30
0.0
 10
2.146087
 20
10.748595
 30
0.0
 10
2.146087
 20
10.796461
 30
0.0
  0
LWPOLYLINE
  5
138
100
AcDbEntity
  8
0
 62
7
100
AcDbPolyline
 90
5
 70
0
 10
2.146087
 20
10.594119
 30
0.0
 10
2.233115
 20
10.594119
 30
0.0
 10
2.233115
 20
10.546253
 30
0.0
 10
2.146087
 20
10.546253
 30
0.0
 10
2.146087
 20
10.594119
 30
0.0
  0
LWPOLYLINE
  5
139
100
AcDbEntity
  8
0
 62
7
100
AcDbPolyline
 90
5
 70
0
 10
2.146087
 20
10.696378
 30
0.0
 10
2.233115
 20
10.696378
 30
0.0
 10
2.233115
 20
10.648512
 30
0.0
 10
2.146087
 20
10.648512
 30
0.0
 10
2.146087
 20
10.696378
 30
0.0
  0
LWPOLYLINE
  5
13a
100
AcDbEntity
  8
0
 62
7
100
AcDbPolyline
 90
5
 70
0
 10
2.370185
 20
10.589768
 30
0.0
 10
2.446335
 20
10.589768
 30
0.0
 10
2.446335
 20
10.535375
 30
0.0
 10
2.370185
 20
10.535375
 30
0.0
 10
2.370185
 20
10.589768
 30
0.0
  0
LWPOLYLINE
  5
13b
100
AcDbEntity
  8
0
 62
7
100
AcDbPolyline
 90
5
 70
0
 10
2.261399
 20
10.589768
 30
0.0
 10
2.337549
 20
10.589768
 30
0.0
 10
2.337549
 20
10.535375
 30
0.0
 10
2.261399
 20
10.535375
 30
0.0
 10
2.261399
 20
10.589768
 30
0.0
  0
LWPOLYLINE
  5
13c
100
AcDbEntity
  8
0
 62
7
100
AcDbPolyline
 90
5
 70
0
 10
2.502904
 20
9.762996
 30
0.0
 10
2.642150
 20
9.762996
 30
0.0
 10
2.642150
 20
9.623750
 30
0.0
 10
2.502904
 20
9.623750
 30
0.0
 10
2.502904
 20
9.762996
 30
0.0
  0
LWPOLYLINE
  5
13d
100
AcDbEntity
  8
0
 62
7
100
AcDbPolyline
 90
5
 70
0
 10
2.502904
 20
10.034960
 30
0.0
 10
2.642150
 20
10.034960
 30
0.0
 10
2.642150
 20
9.895715
 30
0.0
 10
2.502904
 20
9.895715
 30
0.0
 10
2.502904
 20
10.034960
 30
0.0
  0
LWPOLYLINE
  5
13e
100
AcDbEntity
  8
0
 62
7
100
AcDbPolyline
 90
5
 70
0
 10
2.774868
 20
9.762996
 30
0.0
 10
2.914114
 20
9.762996
 30
0.0
 10
2.914114
 20
9.623750
 30
0.0
 10
2.774868
 20
9.623750
 30
0.0
 10
2.774868
 20
9.762996
 30
0.0
  0
LWPOLYLINE
  5
13f
100
AcDbEntity
  8
0
 62
7
100
AcDbPolyline
 90
5
 70
0
 10
2.774868
 20
10.034960
 30
0.0
 10
2.914114
 20
10.034960
 30
0.0
 10
2.914114
 20
9.895715
 30
0.0
 10
2.774868
 20
9.895715
 30
0.0
 10
2.774868
 20
10.034960
 30
0.0
  0
LWPOLYLINE
  5
140
100
AcDbEntity
  8
0
 62
7
100
AcDbPolyline
 90
5
 70
0
 10
3.046833
 20
9.762996
 30
0.0
 10
3.186078
 20
9.762996
 30
0.0
 10
3.186078
 20
9.623750
 30
0.0
 10
3.046833
 20
9.623750
 30
0.0
 10
3.046833
 20
9.762996
 30
0.0
  0
LWPOLYLINE
  5
141
100
AcDbEntity
  8
0
 62
7
100
AcDbPolyline
 90
5
 70
0
 10
3.046833
 20
10.034960
 30
0.0
 10
3.186078
 20
10.034960
 30
0.0
 10
3.186078
 20
9.895715
 30
0.0
 10
3.046833
 20
9.895715
 30
0.0
 10
3.046833
 20
10.034960
 30
0.0
  0
LWPOLYLINE
  5
142
100
AcDbEntity
  8
0
 62
7
100
AcDbPolyline
 90
5
 70
0
 10
2.696542
 20
10.211193
 30
0.0
 10
2.772692
 20
10.211193
 30
0.0
 10
2.772692
 20
10.156800
 30
0.0
 10
2.696542
 20
10.156800
 30
0.0
 10
2.696542
 20
10.211193
 30
0.0
  0
LWPOLYLINE
  5
143
100
AcDbEntity
  8
0
 62
7
100
AcDbPolyline
 90
5
 70
0
 10
2.587757
 20
10.211193
 30
0.0
 10
2.663907
 20
10.211193
 30
0.0
 10
2.663907
 20
10.156800
 30
0.0
 10
2.587757
 20
10.156800
 30
0.0
 10
2.587757
 20
10.211193
 30
0.0
  0
LWPOLYLINE
  5
144
100
AcDbEntity
  8
0
 62
7
100
AcDbPolyline
 90
5
 70
0
 10
2.970682
 20
10.211193
 30
0.0
 10
3.046833
 20
10.211193
 30
0.0
 10
3.046833
 20
10.156800
 30
0.0
 10
2.970682
 20
10.156800
 30
0.0
 10
2.970682
 20
10.211193
 30
0.0
  0
LWPOLYLINE
  5
145
100
AcDbEntity
  8
0
 62
7
100
AcDbPolyline
 90
5
 70
0
 10
2.861897
 20
10.211193
 30
0.0
 10
2.938047
 20
10.211193
 30
0.0
 10
2.938047
 20
10.156800
 30
0.0
 10
2.861897
 20
10.156800
 30
0.0
 10
2.861897
 20
10.211193
 30
0.0
  0
LWPOLYLINE
  5
146
100
AcDbEntity
  8
0
 62
7
100
AcDbPolyline
 90
5
 70
0
 10
3.240471
 20
10.211193
 30
0.0
 10
3.316621
 20
10.211193
 30
0.0
 10
3.316621
 20
10.156800
 30
0.0
 10
3.240471
 20
10.156800
 30
0.0
 10
3.240471
 20
10.211193
 30
0.0
  0
LWPOLYLINE
  5
147
100
AcDbEntity
  8
0
 62
7
100
AcDbPolyline
 90
5
 70
0
 10
3.131685
 20
10.211193
 30
0.0
 10
3.207835
 20
10.211193
 30
0.0
 10
3.207835
 20
10.156800
 30
0.0
 10
3.131685
 20
10.156800
 30
0.0
 10
3.131685
 20
10.211193
 30
0.0
  0
LWPOLYLINE
  5
148
100
AcDbEntity
  8
0
 62
7
100
AcDbPolyline
 90
5
 70
0
 10
3.240471
 20
10.319979
 30
0.0
 10
3.316621
 20
10.319979
 30
0.0
 10
3.316621
 20
10.265586
 30
0.0
 10
3.240471
 20
10.265586
 30
0.0
 10
3.240471
 20
10.319979
 30
0.0
  0
LWPOLYLINE
  5
149
100
AcDbEntity
  8
0
 62
7
100
AcDbPolyline
 90
5
 70
0
 10
3.131685
 20
10.319979
 30
0.0
 10
3.207835
 20
10.319979
 30
0.0
 10
3.207835
 20
10.265586
 30
0.0
 10
3.131685
 20
10.265586
 30
0.0
 10
3.131685
 20
10.319979
 30
0.0
  0
LWPOLYLINE
  5
14a
100
AcDbEntity
  8
0
 62
7
100
AcDbPolyline
 90
5
 70
0
 10
3.253525
 20
10.385250
 30
0.0
 10
3.307918
 20
10.385250
 30
0.0
 10
3.307918
 20
10.309100
 30
0.0
 10
3.253525
 20
10.309100
 30
0.0
 10
3.253525
 20
10.385250
 30
0.0
  0
LWPOLYLINE
  5
14b
100
AcDbEntity
  8
0
 62
7
100
AcDbPolyline
 90
5
 70
0
 10
3.253525
 20
10.494036
 30
0.0
 10
3.307918
 20
10.494036
 30
0.0
 10
3.307918
 20
10.417886
 30
0.0
 10
3.253525
 20
10.417886
 30
0.0
 10
3.253525
 20
10.494036
 30
0.0
  0
LWPOLYLINE
  5
14c
100
AcDbEntity
  8
0
 62
7
100
AcDbPolyline
 90
5
 70
0
 10
3.151267
 20
10.583241
 30
0.0
 10
3.190430
 20
10.583241
 30
0.0
 10
3.190430
 20
10.544078
 30
0.0
 10
3.151267
 20
10.544078
 30
0.0
 10
3.151267
 20
10.583241
 30
0.0
  0
LWPOLYLINE
  5
14d
100
AcDbEntity
  8
0
 62
7
100
AcDbPolyline
 90
5
 70
0
 10
3.205660
 20
10.615876
 30
0.0
 10
3.292688
 20
10.615876
 30
0.0
 10
3.292688
 20
10.596295
 30
0.0
 10
3.205660
 20
10.596295
 30
0.0
 10
3.205660
 20
10.615876
 30
0.0
  0
LWPOLYLINE
  5
14e
100
AcDbEntity
  8
0
 62
7
100
AcDbPolyline
 90
5
 70
0
 10
3.205660
 20
10.572362
 30
0.0
 10
3.292688
 20
10.572362
 30
0.0
 10
3.292688
 20
10.552781
 30
0.0
 10
3.205660
 20
10.552781
 30
0.0
 10
3.205660
 20
10.572362
 30
0.0
  0
LWPOLYLINE
  5
14f
100
AcDbEntity
  8
0
 62
7
100
AcDbPolyline
 90
5
 70
0
 10
3.205660
 20
10.533199
 30
0.0
 10
3.292688
 20
10.533199
 30
0.0
 10
3.292688
 20
10.513618
 30
0.0
 10
3.205660
 20
10.513618
 30
0.0
 10
3.205660
 20
10.533199
 30
0.0
  0
LWPOLYLINE
  5
150
100
AcDbEntity
  8
0
 62
7
100
AcDbPolyline
 90
5
 70
0
 10
3.046833
 20
10.615876
 30
0.0
 10
3.133861
 20
10.615876
 30
0.0
 10
3.133861
 20
10.596295
 30
0.0
 10
3.046833
 20
10.596295
 30
0.0
 10
3.046833
 20
10.615876
 30
0.0
  0
LWPOLYLINE
  5
151
100
AcDbEntity
  8
0
 62
7
100
AcDbPolyline
 90
5
 70
0
 10
3.046833
 20
10.572362
 30
0.0
 10
3.133861
 20
10.572362
 30
0.0
 10
3.133861
 20
10.552781
 30
0.0
 10
3.046833
 20
10.552781
 30
0.0
 10
3.046833
 20
10.572362
 30
0.0
  0
LWPOLYLINE
  5
152
100
AcDbEntity
  8
0
 62
7
100
AcDbPolyline
 90
5
 70
0
 10
3.046833
 20
10.533199
 30
0.0
 10
3.133861
 20
10.533199
 30
0.0
 10
3.133861
 20
10.513618
 30
0.0
 10
3.046833
 20
10.513618
 30
0.0
 10
3.046833
 20
10.533199
 30
0.0
  0
LWPOLYLINE
  5
153
100
AcDbEntity
  8
0
 62
7
100
AcDbPolyline
 90
5
 70
0
 10
2.879302
 20
10.583241
 30
0.0
 10
2.918465
 20
10.583241
 30
0.0
 10
2.918465
 20
10.544078
 30
0.0
 10
2.879302
 20
10.544078
 30
0.0
 10
2.879302
 20
10.583241
 30
0.0
  0
LWPOLYLINE
  5
154
100
AcDbEntity
  8
0
 62
7
100
AcDbPolyline
 90
5
 70
0
 10
2.933695
 20
10.615876
 30
0.0
 10
3.020724
 20
10.615876
 30
0.0
 10
3.020724
 20
10.596295
 30
0.0
 10
2.933695
 20
10.596295
 30
0.0
 10
2.933695
 20
10.615876
 30
0.0
  0
LWPOLYLINE
  5
155
100
AcDbEntity
  8
0
 62
7
100
AcDbPolyline
 90
5
 70
0
 10
2.933695
 20
10.572362
 30
0.0
 10
3.020724
 20
10.572362
 30
0.0
 10
3.020724
 20
10.552781
 30
0.0
 10
2.933695
 20
10.552781
 30
0.0
 10
2.933695
 20
10.572362
 30
0.0
  0
LWPOLYLINE
  5
156
100
AcDbEntity
  8
0
 62
7
100
AcDbPolyline
 90
5
 70
0
 10
2.933695
 20
10.533199
 30
0.0
 10
3.020724
 20
10.533199
 30
0.0
 10
3.020724
 20
10.513618
 30
0.0
 10
2.933695
 20
10.513618
 30
0.0
 10
2.933695
 20
10.533199
 30
0.0
  0
LWPOLYLINE
  5
157
100
AcDbEntity
  8
0
 62
7
100
AcDbPolyline
 90
5
 70
0
 10
2.774868
 20
10.615876
 30
0.0
 10
2.861897
 20
10.615876
 30
0.0
 10
2.861897
 20
10.596295
 30
0.0
 10
2.774868
 20
10.596295
 30
0.0
 10
2.774868
 20
10.615876
 30
0.0
  0
LWPOLYLINE
  5
158
100
AcDbEntity
  8
0
 62
7
100
AcDbPolyline
 90
5
 70
0
 10
2.774868
 20
10.572362
 30
0.0
 10
2.861897
 20
10.572362
 30
0.0
 10
2.861897
 20
10.552781
 30
0.0
 10
2.774868
 20
10.552781
 30
0.0
 10
2.774868
 20
10.572362
 30
0.0
  0
LWPOLYLINE
  5
159
100
AcDbEntity
  8
0
 62
7
100
AcDbPolyline
 90
5
 70
0
 10
2.774868
 20
10.533199
 30
0.0
 10
2.861897
 20
10.533199
 30
0.0
 10
2.861897
 20
10.513618
 30
0.0
 10
2.774868
 20
10.513618
 30
0.0
 10
2.774868
 20
10.533199
 30
0.0
  0
LWPOLYLINE
  5
15a
100
AcDbEntity
  8
0
 62
7
100
AcDbPolyline
 90
5
 70
0
 10
2.979385
 20
10.385250
 30
0.0
 10
3.033778
 20
10.385250
 30
0.0
 10
3.033778
 20
10.309100
 30
0.0
 10
2.979385
 20
10.309100
 30
0.0
 10
2.979385
 20
10.385250
 30
0.0
  0
LWPOLYLINE
  5
15b
100
AcDbEntity
  8
0
 62
7
100
AcDbPolyline
 90
5
 70
0
 10
2.979385
 20
10.494036
 30
0.0
 10
3.033778
 20
10.494036
 30
0.0
 10
3.033778
 20
10.417886
 30
0.0
 10
2.979385
 20
10.417886
 30
0.0
 10
2.979385
 20
10.494036
 30
0.0
  0
LWPOLYLINE
  5
15c
100
AcDbEntity
  8
0
 62
7
100
AcDbPolyline
 90
5
 70
0
 10
2.970682
 20
10.319979
 30
0.0
 10
3.046833
 20
10.319979
 30
0.0
 10
3.046833
 20
10.265586
 30
0.0
 10
2.970682
 20
10.265586
 30
0.0
 10
2.970682
 20
10.319979
 30
0.0
  0
LWPOLYLINE
  5
15d
100
AcDbEntity
  8
0
 62
7
100
AcDbPolyline
 90
5
 70
0
 10
2.861897
 20
10.319979
 30
0.0
 10
2.938047
 20
10.319979
 30
0.0
 10
2.938047
 20
10.265586
 30
0.0
 10
2.861897
 20
10.265586
 30
0.0
 10
2.861897
 20
10.319979
 30
0.0
  0
LWPOLYLINE
  5
15e
100
AcDbEntity
  8
0
 62
7
100
AcDbPolyline
 90
5
 70
0
 10
2.709597
 20
10.385250
 30
0.0
 10
2.763990
 20
10.385250
 30
0.0
 10
2.763990
 20
10.309100
 30
0.0
 10
2.709597
 20
10.309100
 30
0.0
 10
2.709597
 20
10.385250
 30
0.0
  0
LWPOLYLINE
  5
15f
100
AcDbEntity
  8
0
 62
7
100
AcDbPolyline
 90
5
 70
0
 10
2.709597
 20
10.494036
 30
0.0
 10
2.763990
 20
10.494036
 30
0.0
 10
2.763990
 20
10.417886
 30
0.0
 10
2.709597
 20
10.417886
 30
0.0
 10
2.709597
 20
10.494036
 30
0.0
  0
LWPOLYLINE
  5
160
100
AcDbEntity
  8
0
 62
7
100
AcDbPolyline
 90
5
 70
0
 10
2.696542
 20
10.319979
 30
0.0
 10
2.772692
 20
10.319979
 30
0.0
 10
2.772692
 20
10.265586
 30
0.0
 10
2.696542
 20
10.265586
 30
0.0
 10
2.696542
 20
10.319979
 30
0.0
  0
LWPOLYLINE
  5
161
100
AcDbEntity
  8
0
 62
7
100
AcDbPolyline
 90
5
 70
0
 10
2.587757
 20
10.319979
 30
0.0
 10
2.663907
 20
10.319979
 30
0.0
 10
2.663907
 20
10.265586
 30
0.0
 10
2.587757
 20
10.265586
 30
0.0
 10
2.587757
 20
10.319979
 30
0.0
  0
LWPOLYLINE
  5
162
100
AcDbEntity
  8
0
 62
7
100
AcDbPolyline
 90
5
 70
0
 10
2.607338
 20
10.583241
 30
0.0
 10
2.646501
 20
10.583241
 30
0.0
 10
2.646501
 20
10.544078
 30
0.0
 10
2.607338
 20
10.544078
 30
0.0
 10
2.607338
 20
10.583241
 30
0.0
  0
LWPOLYLINE
  5
163
100
AcDbEntity
  8
0
 62
7
100
AcDbPolyline
 90
5
 70
0
 10
2.661731
 20
10.615876
 30
0.0
 10
2.748760
 20
10.615876
 30
0.0
 10
2.748760
 20
10.596295
 30
0.0
 10
2.661731
 20
10.596295
 30
0.0
 10
2.661731
 20
10.615876
 30
0.0
  0
LWPOLYLINE
  5
164
100
AcDbEntity
  8
0
 62
7
100
AcDbPolyline
 90
5
 70
0
 10
2.661731
 20
10.572362
 30
0.0
 10
2.748760
 20
10.572362
 30
0.0
 10
2.748760
 20
10.552781
 30
0.0
 10
2.661731
 20
10.552781
 30
0.0
 10
2.661731
 20
10.572362
 30
0.0
  0
LWPOLYLINE
  5
165
100
AcDbEntity
  8
0
 62
7
100
AcDbPolyline
 90
5
 70
0
 10
2.661731
 20
10.533199
 30
0.0
 10
2.748760
 20
10.533199
 30
0.0
 10
2.748760
 20
10.513618
 30
0.0
 10
2.661731
 20
10.513618
 30
0.0
 10
2.661731
 20
10.533199
 30
0.0
  0
LWPOLYLINE
  5
166
100
AcDbEntity
  8
0
 62
7
100
AcDbPolyline
 90
5
 70
0
 10
2.502904
 20
10.615876
 30
0.0
 10
2.589932
 20
10.615876
 30
0.0
 10
2.589932
 20
10.596295
 30
0.0
 10
2.502904
 20
10.596295
 30
0.0
 10
2.502904
 20
10.615876
 30
0.0
  0
LWPOLYLINE
  5
167
100
AcDbEntity
  8
0
 62
7
100
AcDbPolyline
 90
5
 70
0
 10
2.502904
 20
10.572362
 30
0.0
 10
2.589932
 20
10.572362
 30
0.0
 10
2.589932
 20
10.552781
 30
0.0
 10
2.502904
 20
10.552781
 30
0.0
 10
2.502904
 20
10.572362
 30
0.0
  0
LWPOLYLINE
  5
168
100
AcDbEntity
  8
0
 62
7
100
AcDbPolyline
 90
5
 70
0
 10
2.502904
 20
10.533199
 30
0.0
 10
2.589932
 20
10.533199
 30
0.0
 10
2.589932
 20
10.513618
 30
0.0
 10
2.502904
 20
10.513618
 30
0.0
 10
2.502904
 20
10.533199
 30
0.0
  0
LWPOLYLINE
  5
169
100
AcDbEntity
  8
0
 62
7
100
AcDbPolyline
 90
5
 70
0
 10
3.318797
 20
9.762996
 30
0.0
 10
3.458043
 20
9.762996
 30
0.0
 10
3.458043
 20
9.623750
 30
0.0
 10
3.318797
 20
9.623750
 30
0.0
 10
3.318797
 20
9.762996
 30
0.0
  0
LWPOLYLINE
  5
16a
100
AcDbEntity
  8
0
 62
7
100
AcDbPolyline
 90
5
 70
0
 10
3.318797
 20
10.034960
 30
0.0
 10
3.458043
 20
10.034960
 30
0.0
 10
3.458043
 20
9.895715
 30
0.0
 10
3.318797
 20
9.895715
 30
0.0
 10
3.318797
 20
10.034960
 30
0.0
  0
LWPOLYLINE
  5
16b
100
AcDbEntity
  8
0
 62
7
100
AcDbPolyline
 90
5
 70
0
 10
3.514611
 20
10.211193
 30
0.0
 10
3.590761
 20
10.211193
 30
0.0
 10
3.590761
 20
10.156800
 30
0.0
 10
3.514611
 20
10.156800
 30
0.0
 10
3.514611
 20
10.211193
 30
0.0
  0
LWPOLYLINE
  5
16c
100
AcDbEntity
  8
0
 62
7
100
AcDbPolyline
 90
5
 70
0
 10
3.405825
 20
10.211193
 30
0.0
 10
3.481975
 20
10.211193
 30
0.0
 10
3.481975
 20
10.156800
 30
0.0
 10
3.405825
 20
10.156800
 30
0.0
 10
3.405825
 20
10.211193
 30
0.0
  0
LWPOLYLINE
  5
16d
100
AcDbEntity
  8
0
 62
7
100
AcDbPolyline
 90
5
 70
0
 10
3.514611
 20
10.319979
 30
0.0
 10
3.590761
 20
10.319979
 30
0.0
 10
3.590761
 20
10.265586
 30
0.0
 10
3.514611
 20
10.265586
 30
0.0
 10
3.514611
 20
10.319979
 30
0.0
  0
LWPOLYLINE
  5
16e
100
AcDbEntity
  8
0
 62
7
100
AcDbPolyline
 90
5
 70
0
 10
3.405825
 20
10.319979
 30
0.0
 10
3.481975
 20
10.319979
 30
0.0
 10
3.481975
 20
10.265586
 30
0.0
 10
3.405825
 20
10.265586
 30
0.0
 10
3.405825
 20
10.319979
 30
0.0
  0
LWPOLYLINE
  5
16f
100
AcDbEntity
  8
0
 62
7
100
AcDbPolyline
 90
5
 70
0
 10
3.523314
 20
10.385250
 30
0.0
 10
3.577707
 20
10.385250
 30
0.0
 10
3.577707
 20
10.309100
 30
0.0
 10
3.523314
 20
10.309100
 30
0.0
 10
3.523314
 20
10.385250
 30
0.0
  0
LWPOLYLINE
  5
170
100
AcDbEntity
  8
0
 62
7
100
AcDbPolyline
 90
5
 70
0
 10
3.523314
 20
10.494036
 30
0.0
 10
3.577707
 20
10.494036
 30
0.0
 10
3.577707
 20
10.417886
 30
0.0
 10
3.523314
 20
10.417886
 30
0.0
 10
3.523314
 20
10.494036
 30
0.0
  0
LWPOLYLINE
  5
171
100
AcDbEntity
  8
0
 62
7
100
AcDbPolyline
 90
5
 70
0
 10
3.423231
 20
10.583241
 30
0.0
 10
3.462394
 20
10.583241
 30
0.0
 10
3.462394
 20
10.544078
 30
0.0
 10
3.423231
 20
10.544078
 30
0.0
 10
3.423231
 20
10.583241
 30
0.0
  0
LWPOLYLINE
  5
172
100
AcDbEntity
  8
0
 62
7
100
AcDbPolyline
 90
5
 70
0
 10
3.477624
 20
10.615876
 30
0.0
 10
3.564653
 20
10.615876
 30
0.0
 10
3.564653
 20
10.596295
 30
0.0
 10
3.477624
 20
10.596295
 30
0.0
 10
3.477624
 20
10.615876
 30
0.0
  0
LWPOLYLINE
  5
173
100
AcDbEntity
  8
0
 62
7
100
AcDbPolyline
 90
5
 70
0
 10
3.477624
 20
10.572362
 30
0.0
 10
3.564653
 20
10.572362
 30
0.0
 10
3.564653
 20
10.552781
 30
0.0
 10
3.477624
 20
10.552781
 30
0.0
 10
3.477624
 20
10.572362
 30
0.0
  0
LWPOLYLINE
  5
174
100
AcDbEntity
  8
0
 62
7
100
AcDbPolyline
 90
5
 70
0
 10
3.477624
 20
10.533199
 30
0.0
 10
3.564653
 20
10.533199
 30
0.0
 10
3.564653
 20
10.513618
 30
0.0
 10
3.477624
 20
10.513618
 30
0.0
 10
3.477624
 20
10.533199
 30
0.0
  0
LWPOLYLINE
  5
175
100
AcDbEntity
  8
0
 62
7
100
AcDbPolyline
 90
5
 70
0
 10
3.318797
 20
10.615876
 30
0.0
 10
3.405825
 20
10.615876
 30
0.0
 10
3.405825
 20
10.596295
 30
0.0
 10
3.318797
 20
10.596295
 30
0.0
 10
3.318797
 20
10.615876
 30
0.0
  0
LWPOLYLINE
  5
176
100
AcDbEntity
  8
0
 62
7
100
AcDbPolyline
 90
5
 70
0
 10
3.318797
 20
10.572362
 30
0.0
 10
3.405825
 20
10.572362
 30
0.0
 10
3.405825
 20
10.552781
 30
0.0
 10
3.318797
 20
10.552781
 30
0.0
 10
3.318797
 20
10.572362
 30
0.0
  0
LWPOLYLINE
  5
177
100
AcDbEntity
  8
0
 62
7
100
AcDbPolyline
 90
5
 70
0
 10
3.318797
 20
10.533199
 30
0.0
 10
3.405825
 20
10.533199
 30
0.0
 10
3.405825
 20
10.513618
 30
0.0
 10
3.318797
 20
10.513618
 30
0.0
 10
3.318797
 20
10.533199
 30
0.0
  0
LWPOLYLINE
  5
178
100
AcDbEntity
  8
0
 62
7
100
AcDbPolyline
 90
5
 70
0
 10
1.184421
 20
9.084173
 30
0.0
 10
1.240989
 20
9.084173
 30
0.0
 10
1.240989
 20
8.997144
 30
0.0
 10
1.184421
 20
8.997144
 30
0.0
 10
1.184421
 20
9.084173
 30
0.0
  0
LWPOLYLINE
  5
179
100
AcDbEntity
  8
0
 62
7
100
AcDbPolyline
 90
5
 70
0
 10
1.267098
 20
9.084173
 30
0.0
 10
1.323666
 20
9.084173
 30
0.0
 10
1.323666
 20
8.997144
 30
0.0
 10
1.267098
 20
8.997144
 30
0.0
 10
1.267098
 20
9.084173
 30
0.0
  0
LWPOLYLINE
  5
17a
100
AcDbEntity
  8
0
 62
7
100
AcDbPolyline
 90
5
 70
0
 10
1.101743
 20
9.084173
 30
0.0
 10
1.158312
 20
9.084173
 30
0.0
 10
1.158312
 20
8.997144
 30
0.0
 10
1.101743
 20
8.997144
 30
0.0
 10
1.101743
 20
9.084173
 30
0.0
  0
LWPOLYLINE
  5
17b
100
AcDbEntity
  8
0
 62
7
100
AcDbPolyline
 90
5
 70
0
 10
1.101743
 20
9.306096
 30
0.0
 10
1.158312
 20
9.306096
 30
0.0
 10
1.158312
 20
9.219067
 30
0.0
 10
1.101743
 20
9.219067
 30
0.0
 10
1.101743
 20
9.306096
 30
0.0
  0
LWPOLYLINE
  5
17c
100
AcDbEntity
  8
0
 62
7
100
AcDbPolyline
 90
5
 70
0
 10
1.267098
 20
9.306096
 30
0.0
 10
1.323666
 20
9.306096
 30
0.0
 10
1.323666
 20
9.219067
 30
0.0
 10
1.267098
 20
9.219067
 30
0.0
 10
1.267098
 20
9.306096
 30
0.0
  0
LWPOLYLINE
  5
17d
100
AcDbEntity
  8
0
 62
7
100
AcDbPolyline
 90
5
 70
0
 10
0.951619
 20
9.584587
 30
0.0
 10
1.038648
 20
9.584587
 30
0.0
 10
1.038648
 20
9.475802
 30
0.0
 10
0.951619
 20
9.475802
 30
0.0
 10
0.951619
 20
9.584587
 30
0.0
  0
LWPOLYLINE
  5
17e
100
AcDbEntity
  8
0
 62
7
100
AcDbPolyline
 90
5
 70
0
 10
0.786265
 20
9.584587
 30
0.0
 10
0.873293
 20
9.584587
 30
0.0
 10
0.873293
 20
9.475802
 30
0.0
 10
0.786265
 20
9.475802
 30
0.0
 10
0.786265
 20
9.584587
 30
0.0
  0
LWPOLYLINE
  5
17f
100
AcDbEntity
  8
0
 62
7
100
AcDbPolyline
 90
5
 70
0
 10
0.842833
 20
8.986266
 30
0.0
 10
0.929862
 20
8.986266
 30
0.0
 10
0.929862
 20
8.877480
 30
0.0
 10
0.842833
 20
8.877480
 30
0.0
 10
0.842833
 20
8.986266
 30
0.0
  0
LWPOLYLINE
  5
180
100
AcDbEntity
  8
0
 62
7
100
AcDbPolyline
 90
5
 70
0
 10
1.008188
 20
8.986266
 30
0.0
 10
1.095216
 20
8.986266
 30
0.0
 10
1.095216
 20
8.877480
 30
0.0
 10
1.008188
 20
8.877480
 30
0.0
 10
1.008188
 20
8.986266
 30
0.0
  0
LWPOLYLINE
  5
181
100
AcDbEntity
  8
0
 62
7
100
AcDbPolyline
 90
5
 70
0
 10
1.391113
 20
9.284339
 30
0.0
 10
1.467264
 20
9.284339
 30
0.0
 10
1.467264
 20
9.229946
 30
0.0
 10
1.391113
 20
9.229946
 30
0.0
 10
1.391113
 20
9.284339
 30
0.0
  0
LWPOLYLINE
  5
182
100
AcDbEntity
  8
0
 62
7
100
AcDbPolyline
 90
5
 70
0
 10
1.499899
 20
9.284339
 30
0.0
 10
1.576049
 20
9.284339
 30
0.0
 10
1.576049
 20
9.229946
 30
0.0
 10
1.499899
 20
9.229946
 30
0.0
 10
1.499899
 20
9.284339
 30
0.0
  0
LWPOLYLINE
  5
183
100
AcDbEntity
  8
0
 62
7
100
AcDbPolyline
 90
5
 70
0
 10
3.033778
 20
8.920994
 30
0.0
 10
3.090347
 20
8.920994
 30
0.0
 10
3.090347
 20
8.833966
 30
0.0
 10
3.033778
 20
8.833966
 30
0.0
 10
3.033778
 20
8.920994
 30
0.0
  0
LWPOLYLINE
  5
184
100
AcDbEntity
  8
0
 62
7
100
AcDbPolyline
 90
5
 70
0
 10
3.116455
 20
8.920994
 30
0.0
 10
3.173024
 20
8.920994
 30
0.0
 10
3.173024
 20
8.833966
 30
0.0
 10
3.116455
 20
8.833966
 30
0.0
 10
3.116455
 20
8.920994
 30
0.0
  0
LWPOLYLINE
  5
185
100
AcDbEntity
  8
0
 62
7
100
AcDbPolyline
 90
5
 70
0
 10
2.951101
 20
8.920994
 30
0.0
 10
3.007670
 20
8.920994
 30
0.0
 10
3.007670
 20
8.833966
 30
0.0
 10
2.951101
 20
8.833966
 30
0.0
 10
2.951101
 20
8.920994
 30
0.0
  0
LWPOLYLINE
  5
186
100
AcDbEntity
  8
0
 62
7
100
AcDbPolyline
 90
5
 70
0
 10
2.951101
 20
9.142917
 30
0.0
 10
3.007670
 20
9.142917
 30
0.0
 10
3.007670
 20
9.055889
 30
0.0
 10
2.951101
 20
9.055889
 30
0.0
 10
2.951101
 20
9.142917
 30
0.0
  0
LWPOLYLINE
  5
187
100
AcDbEntity
  8
0
 62
7
100
AcDbPolyline
 90
5
 70
0
 10
3.116455
 20
9.142917
 30
0.0
 10
3.173024
 20
9.142917
 30
0.0
 10
3.173024
 20
9.055889
 30
0.0
 10
3.116455
 20
9.055889
 30
0.0
 10
3.116455
 20
9.142917
 30
0.0
  0
LWPOLYLINE
  5
188
100
AcDbEntity
  8
0
 62
7
100
AcDbPolyline
 90
5
 70
0
 10
2.800977
 20
9.367016
 30
0.0
 10
2.888005
 20
9.367016
 30
0.0
 10
2.888005
 20
9.258230
 30
0.0
 10
2.800977
 20
9.258230
 30
0.0
 10
2.800977
 20
9.367016
 30
0.0
  0
LWPOLYLINE
  5
189
100
AcDbEntity
  8
0
 62
7
100
AcDbPolyline
 90
5
 70
0
 10
2.635622
 20
9.367016
 30
0.0
 10
2.722651
 20
9.367016
 30
0.0
 10
2.722651
 20
9.258230
 30
0.0
 10
2.635622
 20
9.258230
 30
0.0
 10
2.635622
 20
9.367016
 30
0.0
  0
LWPOLYLINE
  5
18a
100
AcDbEntity
  8
0
 62
7
100
AcDbPolyline
 90
5
 70
0
 10
2.583405
 20
8.931873
 30
0.0
 10
2.670434
 20
8.931873
 30
0.0
 10
2.670434
 20
8.823087
 30
0.0
 10
2.583405
 20
8.823087
 30
0.0
 10
2.583405
 20
8.931873
 30
0.0
  0
LWPOLYLINE
  5
18b
100
AcDbEntity
  8
0
 62
7
100
AcDbPolyline
 90
5
 70
0
 10
2.748760
 20
8.931873
 30
0.0
 10
2.835788
 20
8.931873
 30
0.0
 10
2.835788
 20
8.823087
 30
0.0
 10
2.748760
 20
8.823087
 30
0.0
 10
2.748760
 20
8.931873
 30
0.0
  0
LWPOLYLINE
  5
18c
100
AcDbEntity
  8
0
 62
7
100
AcDbPolyline
 90
5
 70
0
 10
3.240471
 20
9.123336
 30
0.0
 10
3.316621
 20
9.123336
 30
0.0
 10
3.316621
 20
9.068943
 30
0.0
 10
3.240471
 20
9.068943
 30
0.0
 10
3.240471
 20
9.123336
 30
0.0
  0
LWPOLYLINE
  5
18d
100
AcDbEntity
  8
0
 62
7
100
AcDbPolyline
 90
5
 70
0
 10
3.349257
 20
9.123336
 30
0.0
 10
3.425407
 20
9.123336
 30
0.0
 10
3.425407
 20
9.068943
 30
0.0
 10
3.349257
 20
9.068943
 30
0.0
 10
3.349257
 20
9.123336
 30
0.0
  0
LWPOLYLINE
  5
18e
100
AcDbEntity
  8
0
 62
7
100
AcDbPolyline
 90
5
 70
0
 10
1.021242
 20
8.322673
 30
0.0
 10
1.077811
 20
8.322673
 30
0.0
 10
1.077811
 20
8.235644
 30
0.0
 10
1.021242
 20
8.235644
 30
0.0
 10
1.021242
 20
8.322673
 30
0.0
  0
LWPOLYLINE
  5
18f
100
AcDbEntity
  8
0
 62
7
100
AcDbPolyline
 90
5
 70
0
 10
1.103919
 20
8.322673
 30
0.0
 10
1.160488
 20
8.322673
 30
0.0
 10
1.160488
 20
8.235644
 30
0.0
 10
1.103919
 20
8.235644
 30
0.0
 10
1.103919
 20
8.322673
 30
0.0
  0
LWPOLYLINE
  5
190
100
AcDbEntity
  8
0
 62
7
100
AcDbPolyline
 90
5
 70
0
 10
0.938565
 20
8.322673
 30
0.0
 10
0.995133
 20
8.322673
 30
0.0
 10
0.995133
 20
8.235644
 30
0.0
 10
0.938565
 20
8.235644
 30
0.0
 10
0.938565
 20
8.322673
 30
0.0
  0
LWPOLYLINE
  5
191
100
AcDbEntity
  8
0
 62
7
100
AcDbPolyline
 90
5
 70
0
 10
0.938565
 20
8.544596
 30
0.0
 10
0.995133
 20
8.544596
 30
0.0
 10
0.995133
 20
8.457567
 30
0.0
 10
0.938565
 20
8.457567
 30
0.0
 10
0.938565
 20
8.544596
 30
0.0
  0
LWPOLYLINE
  5
192
100
AcDbEntity
  8
0
 62
7
100
AcDbPolyline
 90
5
 70
0
 10
1.103919
 20
8.544596
 30
0.0
 10
1.160488
 20
8.544596
 30
0.0
 10
1.160488
 20
8.457567
 30
0.0
 10
1.103919
 20
8.457567
 30
0.0
 10
1.103919
 20
8.544596
 30
0.0
  0
LWPOLYLINE
  5
193
100
AcDbEntity
  8
0
 62
7
100
AcDbPolyline
 90
5
 70
0
 10
2.816207
 20
8.268280
 30
0.0
 10
2.872775
 20
8.268280
 30
0.0
 10
2.872775
 20
8.181251
 30
0.0
 10
2.816207
 20
8.181251
 30
0.0
 10
2.816207
 20
8.268280
 30
0.0
  0
LWPOLYLINE
  5
194
100
AcDbEntity
  8
0
 62
7
100
AcDbPolyline
 90
5
 70
0
 10
2.898884
 20
8.268280
 30
0.0
 10
2.955452
 20
8.268280
 30
0.0
 10
2.955452
 20
8.181251
 30
0.0
 10
2.898884
 20
8.181251
 30
0.0
 10
2.898884
 20
8.268280
 30
0.0
  0
LWPOLYLINE
  5
195
100
AcDbEntity
  8
0
 62
7
100
AcDbPolyline
 90
5
 70
0
 10
2.733530
 20
8.268280
 30
0.0
 10
2.790098
 20
8.268280
 30
0.0
 10
2.790098
 20
8.181251
 30
0.0
 10
2.733530
 20
8.181251
 30
0.0
 10
2.733530
 20
8.268280
 30
0.0
  0
LWPOLYLINE
  5
196
100
AcDbEntity
  8
0
 62
7
100
AcDbPolyline
 90
5
 70
0
 10
2.733530
 20
8.490203
 30
0.0
 10
2.790098
 20
8.490203
 30
0.0
 10
2.790098
 20
8.403174
 30
0.0
 10
2.733530
 20
8.403174
 30
0.0
 10
2.733530
 20
8.490203
 30
0.0
  0
LWPOLYLINE
  5
197
100
AcDbEntity
  8
0
 62
7
100
AcDbPolyline
 90
5
 70
0
 10
2.898884
 20
8.490203
 30
0.0
 10
2.955452
 20
8.490203
 30
0.0
 10
2.955452
 20
8.403174
 30
0.0
 10
2.898884
 20
8.403174
 30
0.0
 10
2.898884
 20
8.490203
 30
0.0
  0
LWPOLYLINE
  5
198
100
AcDbEntity
  8
0
 62
7
100
AcDbPolyline
 90
5
 70
0
 10
0.707939
 20
8.675139
 30
0.0
 10
0.847185
 20
8.675139
 30
0.0
 10
0.847185
 20
8.535893
 30
0.0
 10
0.707939
 20
8.535893
 30
0.0
 10
0.707939
 20
8.675139
 30
0.0
  0
LWPOLYLINE
  5
199
100
AcDbEntity
  8
0
 62
7
100
AcDbPolyline
 90
5
 70
0
 10
0.435975
 20
8.675139
 30
0.0
 10
0.575220
 20
8.675139
 30
0.0
 10
0.575220
 20
8.535893
 30
0.0
 10
0.435975
 20
8.535893
 30
0.0
 10
0.435975
 20
8.675139
 30
0.0
  0
LWPOLYLINE
  5
19a
100
AcDbEntity
  8
0
 62
7
100
AcDbPolyline
 90
5
 70
0
 10
2.448511
 20
8.620746
 30
0.0
 10
2.587757
 20
8.620746
 30
0.0
 10
2.587757
 20
8.481500
 30
0.0
 10
2.448511
 20
8.481500
 30
0.0
 10
2.448511
 20
8.620746
 30
0.0
  0
LWPOLYLINE
  5
19b
100
AcDbEntity
  8
0
 62
7
100
AcDbPolyline
 90
5
 70
0
 10
2.176547
 20
8.620746
 30
0.0
 10
2.315792
 20
8.620746
 30
0.0
 10
2.315792
 20
8.481500
 30
0.0
 10
2.176547
 20
8.481500
 30
0.0
 10
2.176547
 20
8.620746
 30
0.0
  0
LWPOLYLINE
  5
19c
100
AcDbEntity
  8
0
 62
7
100
AcDbPolyline
 90
5
 70
0
 10
0.734048
 20
8.333551
 30
0.0
 10
0.821076
 20
8.333551
 30
0.0
 10
0.821076
 20
8.224766
 30
0.0
 10
0.734048
 20
8.224766
 30
0.0
 10
0.734048
 20
8.333551
 30
0.0
  0
LWPOLYLINE
  5
19d
100
AcDbEntity
  8
0
 62
7
100
AcDbPolyline
 90
5
 70
0
 10
0.568693
 20
8.333551
 30
0.0
 10
0.655722
 20
8.333551
 30
0.0
 10
0.655722
 20
8.224766
 30
0.0
 10
0.568693
 20
8.224766
 30
0.0
 10
0.568693
 20
8.333551
 30
0.0
  0
LWPOLYLINE
  5
19e
100
AcDbEntity
  8
0
 62
7
100
AcDbPolyline
 90
5
 70
0
 10
2.474620
 20
8.279158
 30
0.0
 10
2.561648
 20
8.279158
 30
0.0
 10
2.561648
 20
8.170373
 30
0.0
 10
2.474620
 20
8.170373
 30
0.0
 10
2.474620
 20
8.279158
 30
0.0
  0
LWPOLYLINE
  5
19f
100
AcDbEntity
  8
0
 62
7
100
AcDbPolyline
 90
5
 70
0
 10
2.309265
 20
8.279158
 30
0.0
 10
2.396294
 20
8.279158
 30
0.0
 10
2.396294
 20
8.170373
 30
0.0
 10
2.309265
 20
8.170373
 30
0.0
 10
2.309265
 20
8.279158
 30
0.0
  0
LWPOLYLINE
  5
1a0
100
AcDbEntity
  8
0
 62
7
100
AcDbPolyline
 90
5
 70
0
 10
1.173542
 20
8.688193
 30
0.0
 10
1.249692
 20
8.688193
 30
0.0
 10
1.249692
 20
8.633800
 30
0.0
 10
1.173542
 20
8.633800
 30
0.0
 10
1.173542
 20
8.688193
 30
0.0
  0
LWPOLYLINE
  5
1a1
100
AcDbEntity
  8
0
 62
7
100
AcDbPolyline
 90
5
 70
0
 10
1.064756
 20
8.688193
 30
0.0
 10
1.140906
 20
8.688193
 30
0.0
 10
1.140906
 20
8.633800
 30
0.0
 10
1.064756
 20
8.633800
 30
0.0
 10
1.064756
 20
8.688193
 30
0.0
  0
LWPOLYLINE
  5
1a2
100
AcDbEntity
  8
0
 62
7
100
AcDbPolyline
 90
5
 70
0
 10
2.914114
 20
8.631624
 30
0.0
 10
2.990264
 20
8.631624
 30
0.0
 10
2.990264
 20
8.577231
 30
0.0
 10
2.914114
 20
8.577231
 30
0.0
 10
2.914114
 20
8.631624
 30
0.0
  0
LWPOLYLINE
  5
1a3
100
AcDbEntity
  8
0
 62
7
100
AcDbPolyline
 90
5
 70
0
 10
2.805328
 20
8.631624
 30
0.0
 10
2.881478
 20
8.631624
 30
0.0
 10
2.881478
 20
8.577231
 30
0.0
 10
2.805328
 20
8.577231
 30
0.0
 10
2.805328
 20
8.631624
 30
0.0
  0
LWPOLYLINE
  5
1a4
100
AcDbEntity
  8
0
 62
7
100
AcDbPolyline
 90
5
 70
0
 10
3.910591
 20
10.628931
 30
0.0
 10
4.062891
 20
10.628931
 30
0.0
 10
4.062891
 20
10.607173
 30
0.0
 10
3.910591
 20
10.607173
 30
0.0
 10
3.910591
 20
10.628931
 30
0.0
  0
LWPOLYLINE
  5
1a5
100
AcDbEntity
  8
0
 62
7
100
AcDbPolyline
 90
5
 70
0
 10
3.910591
 20
10.585416
 30
0.0
 10
4.062891
 20
10.585416
 30
0.0
 10
4.062891
 20
10.563659
 30
0.0
 10
3.910591
 20
10.563659
 30
0.0
 10
3.910591
 20
10.585416
 30
0.0
  0
LWPOLYLINE
  5
1a6
100
AcDbEntity
  8
0
 62
7
100
AcDbPolyline
 90
5
 70
0
 10
3.910591
 20
10.544078
 30
0.0
 10
4.062891
 20
10.544078
 30
0.0
 10
4.062891
 20
10.522321
 30
0.0
 10
3.910591
 20
10.522321
 30
0.0
 10
3.910591
 20
10.544078
 30
0.0
  0
LWPOLYLINE
  5
1a7
100
AcDbEntity
  8
0
 62
7
100
AcDbPolyline
 90
5
 70
0
 10
3.910591
 20
10.500563
 30
0.0
 10
4.062891
 20
10.500563
 30
0.0
 10
4.062891
 20
10.478806
 30
0.0
 10
3.910591
 20
10.478806
 30
0.0
 10
3.910591
 20
10.500563
 30
0.0
  0
LWPOLYLINE
  5
1a8
100
AcDbEntity
  8
0
 62
7
100
AcDbPolyline
 90
5
 70
0
 10
4.082473
 20
10.618052
 30
0.0
 10
4.213016
 20
10.618052
 30
0.0
 10
4.213016
 20
10.487509
 30
0.0
 10
4.082473
 20
10.487509
 30
0.0
 10
4.082473
 20
10.618052
 30
0.0
  0
LWPOLYLINE
  5
1a9
100
AcDbEntity
  8
0
 62
7
100
AcDbPolyline
 90
5
 70
0
 10
4.071594
 20
10.467928
 30
0.0
 10
4.093351
 20
10.467928
 30
0.0
 10
4.093351
 20
10.315628
 30
0.0
 10
4.071594
 20
10.315628
 30
0.0
 10
4.071594
 20
10.467928
 30
0.0
  0
LWPOLYLINE
  5
1aa
100
AcDbEntity
  8
0
 62
7
100
AcDbPolyline
 90
5
 70
0
 10
4.115109
 20
10.467928
 30
0.0
 10
4.136866
 20
10.467928
 30
0.0
 10
4.136866
 20
10.315628
 30
0.0
 10
4.115109
 20
10.315628
 30
0.0
 10
4.115109
 20
10.467928
 30
0.0
  0
LWPOLYLINE
  5
1ab
100
AcDbEntity
  8
0
 62
7
100
AcDbPolyline
 90
5
 70
0
 10
4.158623
 20
10.467928
 30
0.0
 10
4.180380
 20
10.467928
 30
0.0
 10
4.180380
 20
10.315628
 30
0.0
 10
4.158623
 20
10.315628
 30
0.0
 10
4.158623
 20
10.467928
 30
0.0
  0
LWPOLYLINE
  5
1ac
100
AcDbEntity
  8
0
 62
7
100
AcDbPolyline
 90
5
 70
0
 10
4.202137
 20
10.467928
 30
0.0
 10
4.223894
 20
10.467928
 30
0.0
 10
4.223894
 20
10.315628
 30
0.0
 10
4.202137
 20
10.315628
 30
0.0
 10
4.202137
 20
10.467928
 30
0.0
  0
LWPOLYLINE
  5
1ad
100
AcDbEntity
  8
0
 62
7
100
AcDbPolyline
 90
5
 70
0
 10
4.232597
 20
10.500563
 30
0.0
 10
4.384897
 20
10.500563
 30
0.0
 10
4.384897
 20
10.478806
 30
0.0
 10
4.232597
 20
10.478806
 30
0.0
 10
4.232597
 20
10.500563
 30
0.0
  0
LWPOLYLINE
  5
1ae
100
AcDbEntity
  8
0
 62
7
100
AcDbPolyline
 90
5
 70
0
 10
4.232597
 20
10.544078
 30
0.0
 10
4.384897
 20
10.544078
 30
0.0
 10
4.384897
 20
10.522321
 30
0.0
 10
4.232597
 20
10.522321
 30
0.0
 10
4.232597
 20
10.544078
 30
0.0
  0
LWPOLYLINE
  5
1af
100
AcDbEntity
  8
0
 62
7
100
AcDbPolyline
 90
5
 70
0
 10
4.232597
 20
10.585416
 30
0.0
 10
4.384897
 20
10.585416
 30
0.0
 10
4.384897
 20
10.563659
 30
0.0
 10
4.232597
 20
10.563659
 30
0.0
 10
4.232597
 20
10.585416
 30
0.0
  0
LWPOLYLINE
  5
1b0
100
AcDbEntity
  8
0
 62
7
100
AcDbPolyline
 90
5
 70
0
 10
4.232597
 20
10.628931
 30
0.0
 10
4.384897
 20
10.628931
 30
0.0
 10
4.384897
 20
10.607173
 30
0.0
 10
4.232597
 20
10.607173
 30
0.0
 10
4.232597
 20
10.628931
 30
0.0
  0
LWPOLYLINE
  5
1b1
100
AcDbEntity
  8
0
 62
7
100
AcDbPolyline
 90
5
 70
0
 10
4.202137
 20
10.792109
 30
0.0
 10
4.223894
 20
10.792109
 30
0.0
 10
4.223894
 20
10.639809
 30
0.0
 10
4.202137
 20
10.639809
 30
0.0
 10
4.202137
 20
10.792109
 30
0.0
  0
LWPOLYLINE
  5
1b2
100
AcDbEntity
  8
0
 62
7
100
AcDbPolyline
 90
5
 70
0
 10
4.158623
 20
10.792109
 30
0.0
 10
4.180380
 20
10.792109
 30
0.0
 10
4.180380
 20
10.639809
 30
0.0
 10
4.158623
 20
10.639809
 30
0.0
 10
4.158623
 20
10.792109
 30
0.0
  0
LWPOLYLINE
  5
1b3
100
AcDbEntity
  8
0
 62
7
100
AcDbPolyline
 90
5
 70
0
 10
4.115109
 20
10.792109
 30
0.0
 10
4.136866
 20
10.792109
 30
0.0
 10
4.136866
 20
10.639809
 30
0.0
 10
4.115109
 20
10.639809
 30
0.0
 10
4.115109
 20
10.792109
 30
0.0
  0
LWPOLYLINE
  5
1b4
100
AcDbEntity
  8
0
 62
7
100
AcDbPolyline
 90
5
 70
0
 10
4.071594
 20
10.792109
 30
0.0
 10
4.093351
 20
10.792109
 30
0.0
 10
4.093351
 20
10.639809
 30
0.0
 10
4.071594
 20
10.639809
 30
0.0
 10
4.071594
 20
10.792109
 30
0.0
  0
LWPOLYLINE
  5
1b5
100
AcDbEntity
  8
0
 62
7
100
AcDbPolyline
 90
5
 70
0
 10
3.849671
 20
10.763825
 30
0.0
 10
3.904064
 20
10.763825
 30
0.0
 10
3.904064
 20
10.687675
 30
0.0
 10
3.849671
 20
10.687675
 30
0.0
 10
3.849671
 20
10.763825
 30
0.0
  0
LWPOLYLINE
  5
1b6
100
AcDbEntity
  8
0
 62
7
100
AcDbPolyline
 90
5
 70
0
 10
3.849671
 20
10.872611
 30
0.0
 10
3.904064
 20
10.872611
 30
0.0
 10
3.904064
 20
10.796461
 30
0.0
 10
3.849671
 20
10.796461
 30
0.0
 10
3.849671
 20
10.872611
 30
0.0
  0
LWPOLYLINE
  5
1b7
100
AcDbEntity
  8
0
 62
7
100
AcDbPolyline
 90
5
 70
0
 10
3.941051
 20
10.820394
 30
0.0
 10
3.995444
 20
10.820394
 30
0.0
 10
3.995444
 20
10.744243
 30
0.0
 10
3.941051
 20
10.744243
 30
0.0
 10
3.941051
 20
10.820394
 30
0.0
  0
LWPOLYLINE
  5
1b8
100
AcDbEntity
  8
0
 62
7
100
AcDbPolyline
 90
5
 70
0
 10
3.941051
 20
10.929179
 30
0.0
 10
3.995444
 20
10.929179
 30
0.0
 10
3.995444
 20
10.853029
 30
0.0
 10
3.941051
 20
10.853029
 30
0.0
 10
3.941051
 20
10.929179
 30
0.0
  0
LWPOLYLINE
  5
1b9
100
AcDbEntity
  8
0
 62
7
100
AcDbPolyline
 90
5
 70
0
 10
3.788751
 20
10.511442
 30
0.0
 10
3.864901
 20
10.511442
 30
0.0
 10
3.864901
 20
10.457049
 30
0.0
 10
3.788751
 20
10.457049
 30
0.0
 10
3.788751
 20
10.511442
 30
0.0
  0
LWPOLYLINE
  5
1ba
100
AcDbEntity
  8
0
 62
7
100
AcDbPolyline
 90
5
 70
0
 10
3.679966
 20
10.511442
 30
0.0
 10
3.756116
 20
10.511442
 30
0.0
 10
3.756116
 20
10.457049
 30
0.0
 10
3.679966
 20
10.457049
 30
0.0
 10
3.679966
 20
10.511442
 30
0.0
  0
LWPOLYLINE
  5
1bb
100
AcDbEntity
  8
0
 62
7
100
AcDbPolyline
 90
5
 70
0
 10
3.623397
 20
10.589768
 30
0.0
 10
3.699547
 20
10.589768
 30
0.0
 10
3.699547
 20
10.535375
 30
0.0
 10
3.623397
 20
10.535375
 30
0.0
 10
3.623397
 20
10.589768
 30
0.0
  0
LWPOLYLINE
  5
1bc
100
AcDbEntity
  8
0
 62
7
100
AcDbPolyline
 90
5
 70
0
 10
3.732183
 20
10.589768
 30
0.0
 10
3.808333
 20
10.589768
 30
0.0
 10
3.808333
 20
10.535375
 30
0.0
 10
3.732183
 20
10.535375
 30
0.0
 10
3.732183
 20
10.589768
 30
0.0
  0
LWPOLYLINE
  5
1bd
100
AcDbEntity
  8
0
 62
7
100
AcDbPolyline
 90
5
 70
0
 10
4.089000
 20
10.985748
 30
0.0
 10
4.143393
 20
10.985748
 30
0.0
 10
4.143393
 20
10.909598
 30
0.0
 10
4.089000
 20
10.909598
 30
0.0
 10
4.089000
 20
10.985748
 30
0.0
  0
LWPOLYLINE
  5
1be
100
AcDbEntity
  8
0
 62
7
100
AcDbPolyline
 90
5
 70
0
 10
4.089000
 20
11.094534
 30
0.0
 10
4.143393
 20
11.094534
 30
0.0
 10
4.143393
 20
11.018384
 30
0.0
 10
4.089000
 20
11.018384
 30
0.0
 10
4.089000
 20
11.094534
 30
0.0
  0
LWPOLYLINE
  5
1bf
100
AcDbEntity
  8
0
 62
7
100
AcDbPolyline
 90
5
 70
0
 10
4.176029
 20
10.929179
 30
0.0
 10
4.230421
 20
10.929179
 30
0.0
 10
4.230421
 20
10.853029
 30
0.0
 10
4.176029
 20
10.853029
 30
0.0
 10
4.176029
 20
10.929179
 30
0.0
  0
LWPOLYLINE
  5
1c0
100
AcDbEntity
  8
0
 62
7
100
AcDbPolyline
 90
5
 70
0
 10
4.176029
 20
11.037965
 30
0.0
 10
4.230421
 20
11.037965
 30
0.0
 10
4.230421
 20
10.961815
 30
0.0
 10
4.176029
 20
10.961815
 30
0.0
 10
4.176029
 20
11.037965
 30
0.0
  0
LWPOLYLINE
  5
1c1
100
AcDbEntity
  8
0
 62
7
100
AcDbPolyline
 90
5
 70
0
 10
3.623397
 20
11.133696
 30
0.0
 10
3.699547
 20
11.133696
 30
0.0
 10
3.699547
 20
11.079304
 30
0.0
 10
3.623397
 20
11.079304
 30
0.0
 10
3.623397
 20
11.133696
 30
0.0
  0
LWPOLYLINE
  5
1c2
100
AcDbEntity
  8
0
 62
7
100
AcDbPolyline
 90
5
 70
0
 10
3.514611
 20
11.133696
 30
0.0
 10
3.590761
 20
11.133696
 30
0.0
 10
3.590761
 20
11.079304
 30
0.0
 10
3.514611
 20
11.079304
 30
0.0
 10
3.514611
 20
11.133696
 30
0.0
  0
LWPOLYLINE
  5
1c3
100
AcDbEntity
  8
0
 62
7
100
AcDbPolyline
 90
5
 70
0
 10
5.699029
 20
10.661566
 30
0.0
 10
5.755598
 20
10.661566
 30
0.0
 10
5.755598
 20
10.574538
 30
0.0
 10
5.699029
 20
10.574538
 30
0.0
 10
5.699029
 20
10.661566
 30
0.0
  0
LWPOLYLINE
  5
1c4
100
AcDbEntity
  8
0
 62
7
100
AcDbPolyline
 90
5
 70
0
 10
5.781706
 20
10.661566
 30
0.0
 10
5.838275
 20
10.661566
 30
0.0
 10
5.838275
 20
10.574538
 30
0.0
 10
5.781706
 20
10.574538
 30
0.0
 10
5.781706
 20
10.661566
 30
0.0
  0
LWPOLYLINE
  5
1c5
100
AcDbEntity
  8
0
 62
7
100
AcDbPolyline
 90
5
 70
0
 10
5.616352
 20
10.661566
 30
0.0
 10
5.672920
 20
10.661566
 30
0.0
 10
5.672920
 20
10.574538
 30
0.0
 10
5.616352
 20
10.574538
 30
0.0
 10
5.616352
 20
10.661566
 30
0.0
  0
LWPOLYLINE
  5
1c6
100
AcDbEntity
  8
0
 62
7
100
AcDbPolyline
 90
5
 70
0
 10
5.616352
 20
10.883489
 30
0.0
 10
5.672920
 20
10.883489
 30
0.0
 10
5.672920
 20
10.796461
 30
0.0
 10
5.616352
 20
10.796461
 30
0.0
 10
5.616352
 20
10.883489
 30
0.0
  0
LWPOLYLINE
  5
1c7
100
AcDbEntity
  8
0
 62
7
100
AcDbPolyline
 90
5
 70
0
 10
5.781706
 20
10.883489
 30
0.0
 10
5.838275
 20
10.883489
 30
0.0
 10
5.838275
 20
10.796461
 30
0.0
 10
5.781706
 20
10.796461
 30
0.0
 10
5.781706
 20
10.883489
 30
0.0
  0
LWPOLYLINE
  5
1c8
100
AcDbEntity
  8
0
 62
7
100
AcDbPolyline
 90
5
 70
0
 10
5.385726
 20
11.014032
 30
0.0
 10
5.524972
 20
11.014032
 30
0.0
 10
5.524972
 20
10.874786
 30
0.0
 10
5.385726
 20
10.874786
 30
0.0
 10
5.385726
 20
11.014032
 30
0.0
  0
LWPOLYLINE
  5
1c9
100
AcDbEntity
  8
0
 62
7
100
AcDbPolyline
 90
5
 70
0
 10
5.113762
 20
11.014032
 30
0.0
 10
5.253007
 20
11.014032
 30
0.0
 10
5.253007
 20
10.874786
 30
0.0
 10
5.113762
 20
10.874786
 30
0.0
 10
5.113762
 20
11.014032
 30
0.0
  0
LWPOLYLINE
  5
1ca
100
AcDbEntity
  8
0
 62
7
100
AcDbPolyline
 90
5
 70
0
 10
5.411835
 20
10.672445
 30
0.0
 10
5.498863
 20
10.672445
 30
0.0
 10
5.498863
 20
10.563659
 30
0.0
 10
5.411835
 20
10.563659
 30
0.0
 10
5.411835
 20
10.672445
 30
0.0
  0
LWPOLYLINE
  5
1cb
100
AcDbEntity
  8
0
 62
7
100
AcDbPolyline
 90
5
 70
0
 10
5.246480
 20
10.672445
 30
0.0
 10
5.333509
 20
10.672445
 30
0.0
 10
5.333509
 20
10.563659
 30
0.0
 10
5.246480
 20
10.563659
 30
0.0
 10
5.246480
 20
10.672445
 30
0.0
  0
LWPOLYLINE
  5
1cc
100
AcDbEntity
  8
0
 62
7
100
AcDbPolyline
 90
5
 70
0
 10
5.851329
 20
11.024911
 30
0.0
 10
5.927479
 20
11.024911
 30
0.0
 10
5.927479
 20
10.970518
 30
0.0
 10
5.851329
 20
10.970518
 30
0.0
 10
5.851329
 20
11.024911
 30
0.0
  0
LWPOLYLINE
  5
1cd
100
AcDbEntity
  8
0
 62
7
100
AcDbPolyline
 90
5
 70
0
 10
5.742543
 20
11.024911
 30
0.0
 10
5.818693
 20
11.024911
 30
0.0
 10
5.818693
 20
10.970518
 30
0.0
 10
5.742543
 20
10.970518
 30
0.0
 10
5.742543
 20
11.024911
 30
0.0
  0
SPLINE
  5
1ce
100
AcDbEntity
  8
0
 62
7
100
AcDbSpline
 70
8
 71
3
 72
8
 73
4
 74
0
 40
0
 40
0
 40
0
 40
0
 40
1
 40
1
 40
1
 40
1
 10
4.885312
 20
10.454873
 30
0.0
 10
4.885312
 20
10.484411
 30
0.0
 10
4.869553
 20
10.511705
 30
0.0
 10
4.843973
 20
10.526474
 30
0.0
  0
SPLINE
  5
1cf
100
AcDbEntity
  8
0
 62
7
100
AcDbSpline
 70
8
 71
3
 72
8
 73
4
 74
0
 40
0
 40
0
 40
0
 40
0
 40
1
 40
1
 40
1
 40
1
 10
4.843973
 20
10.526474
 30
0.0
 10
4.818393
 20
10.541243
 30
0.0
 10
4.786876
 20
10.541243
 30
0.0
 10
4.761296
 20
10.526474
 30
0.0
  0
SPLINE
  5
1d0
100
AcDbEntity
  8
0
 62
7
100
AcDbSpline
 70
8
 71
3
 72
8
 73
4
 74
0
 40
0
 40
0
 40
0
 40
0
 40
1
 40
1
 40
1
 40
1
 10
4.761296
 20
10.526474
 30
0.0
 10
4.735715
 20
10.511705
 30
0.0
 10
4.719957
 20
10.484411
 30
0.0
 10
4.719957
 20
10.454873
 30
0.0
  0
SPLINE
  5
1d1
100
AcDbEntity
  8
0
 62
7
100
AcDbSpline
 70
8
 71
3
 72
8
 73
4
 74
0
 40
0
 40
0
 40
0
 40
0
 40
1
 40
1
 40
1
 40
1
 10
4.719957
 20
10.454873
 30
0.0
 10
4.719957
 20
10.425336
 30
0.0
 10
4.735715
 20
10.398042
 30
0.0
 10
4.761296
 20
10.383273
 30
0.0
  0
SPLINE
  5
1d2
100
AcDbEntity
  8
0
 62
7
100
AcDbSpline
 70
8
 71
3
 72
8
 73
4
 74
0
 40
0
 40
0
 40
0
 40
0
 40
1
 40
1
 40
1
 40
1
 10
4.761296
 20
10.383273
 30
0.0
 10
4.786876
 20
10.368504
 30
0.0
 10
4.818393
 20
10.368504
 30
0.0
 10
4.843973
 20
10.383273
 30
0.0
  0
SPLINE
  5
1d3
100
AcDbEntity
  8
0
 62
7
100
AcDbSpline
 70
8
 71
3
 72
8
 73
4
 74
0
 40
0
 40
0
 40
0
 40
0
 40
1
 40
1
 40
1
 40
1
 10
4.843973
 20
10.383273
 30
0.0
 10
4.869553
 20
10.398042
 30
0.0
 10
4.885312
 20
10.425336
 30
0.0
 10
4.885312
 20
10.454873
 30
0.0
  0
LWPOLYLINE
  5
1d4
100
AcDbEntity
  8
0
 62
7
100
AcDbPolyline
 90
5
 70
0
 10
4.719957
 20
10.755122
 30
0.0
 10
4.883136
 20
10.755122
 30
0.0
 10
4.883136
 20
10.591943
 30
0.0
 10
4.719957
 20
10.591943
 30
0.0
 10
4.719957
 20
10.755122
 30
0.0
  0
SPLINE
  5
1d5
100
AcDbEntity
  8
0
 62
7
100
AcDbSpline
 70
8
 71
3
 72
8
 73
4
 74
0
 40
0
 40
0
 40
0
 40
0
 40
1
 40
1
 40
1
 40
1
 10
4.885312
 20
10.237302
 30
0.0
 10
4.885312
 20
10.266840
 30
0.0
 10
4.869553
 20
10.294134
 30
0.0
 10
4.843973
 20
10.308902
 30
0.0
  0
SPLINE
  5
1d6
100
AcDbEntity
  8
0
 62
7
100
AcDbSpline
 70
8
 71
3
 72
8
 73
4
 74
0
 40
0
 40
0
 40
0
 40
0
 40
1
 40
1
 40
1
 40
1
 10
4.843973
 20
10.308902
 30
0.0
 10
4.818393
 20
10.323671
 30
0.0
 10
4.786876
 20
10.323671
 30
0.0
 10
4.761296
 20
10.308902
 30
0.0
  0
SPLINE
  5
1d7
100
AcDbEntity
  8
0
 62
7
100
AcDbSpline
 70
8
 71
3
 72
8
 73
4
 74
0
 40
0
 40
0
 40
0
 40
0
 40
1
 40
1
 40
1
 40
1
 10
4.761296
 20
10.308902
 30
0.0
 10
4.735715
 20
10.294134
 30
0.0
 10
4.719957
 20
10.266840
 30
0.0
 10
4.719957
 20
10.237302
 30
0.0
  0
SPLINE
  5
1d8
100
AcDbEntity
  8
0
 62
7
100
AcDbSpline
 70
8
 71
3
 72
8
 73
4
 74
0
 40
0
 40
0
 40
0
 40
0
 40
1
 40
1
 40
1
 40
1
 10
4.719957
 20
10.237302
 30
0.0
 10
4.719957
 20
10.207764
 30
0.0
 10
4.735715
 20
10.180470
 30
0.0
 10
4.761296
 20
10.165701
 30
0.0
  0
SPLINE
  5
1d9
100
AcDbEntity
  8
0
 62
7
100
AcDbSpline
 70
8
 71
3
 72
8
 73
4
 74
0
 40
0
 40
0
 40
0
 40
0
 40
1
 40
1
 40
1
 40
1
 10
4.761296
 20
10.165701
 30
0.0
 10
4.786876
 20
10.150933
 30
0.0
 10
4.818393
 20
10.150933
 30
0.0
 10
4.843973
 20
10.165701
 30
0.0
  0
SPLINE
  5
1da
100
AcDbEntity
  8
0
 62
7
100
AcDbSpline
 70
8
 71
3
 72
8
 73
4
 74
0
 40
0
 40
0
 40
0
 40
0
 40
1
 40
1
 40
1
 40
1
 10
4.843973
 20
10.165701
 30
0.0
 10
4.869553
 20
10.180470
 30
0.0
 10
4.885312
 20
10.207764
 30
0.0
 10
4.885312
 20
10.237302
 30
0.0
  0
LWPOLYLINE
  5
1db
100
AcDbEntity
  8
0
 62
7
100
AcDbPolyline
 90
2
 70
0
 10
4.885312
 20
10.454873
 30
0.0
 10
4.885312
 20
10.454873
 30
0.0
  0
SPLINE
  5
1dc
100
AcDbEntity
  8
0
 62
7
100
AcDbSpline
 70
8
 71
3
 72
8
 73
4
 74
0
 40
0
 40
0
 40
0
 40
0
 40
1
 40
1
 40
1
 40
1
 10
4.885312
 20
10.019730
 30
0.0
 10
4.885312
 20
10.049268
 30
0.0
 10
4.869553
 20
10.076562
 30
0.0
 10
4.843973
 20
10.091331
 30
0.0
  0
SPLINE
  5
1dd
100
AcDbEntity
  8
0
 62
7
100
AcDbSpline
 70
8
 71
3
 72
8
 73
4
 74
0
 40
0
 40
0
 40
0
 40
0
 40
1
 40
1
 40
1
 40
1
 10
4.843973
 20
10.091331
 30
0.0
 10
4.818393
 20
10.106100
 30
0.0
 10
4.786876
 20
10.106100
 30
0.0
 10
4.761296
 20
10.091331
 30
0.0
  0
SPLINE
  5
1de
100
AcDbEntity
  8
0
 62
7
100
AcDbSpline
 70
8
 71
3
 72
8
 73
4
 74
0
 40
0
 40
0
 40
0
 40
0
 40
1
 40
1
 40
1
 40
1
 10
4.761296
 20
10.091331
 30
0.0
 10
4.735715
 20
10.076562
 30
0.0
 10
4.719957
 20
10.049268
 30
0.0
 10
4.719957
 20
10.019730
 30
0.0
  0
SPLINE
  5
1df
100
AcDbEntity
  8
0
 62
7
100
AcDbSpline
 70
8
 71
3
 72
8
 73
4
 74
0
 40
0
 40
0
 40
0
 40
0
 40
1
 40
1
 40
1
 40
1
 10
4.719957
 20
10.019730
 30
0.0
 10
4.719957
 20
9.990193
 30
0.0
 10
4.735715
 20
9.962899
 30
0.0
 10
4.761296
 20
9.948130
 30
0.0
  0
SPLINE
  5
1e0
100
AcDbEntity
  8
0
 62
7
100
AcDbSpline
 70
8
 71
3
 72
8
 73
4
 74
0
 40
0
 40
0
 40
0
 40
0
 40
1
 40
1
 40
1
 40
1
 10
4.761296
 20
9.948130
 30
0.0
 10
4.786876
 20
9.933361
 30
0.0
 10
4.818393
 20
9.933361
 30
0.0
 10
4.843973
 20
9.948130
 30
0.0
  0
SPLINE
  5
1e1
100
AcDbEntity
  8
0
 62
7
100
AcDbSpline
 70
8
 71
3
 72
8
 73
4
 74
0
 40
0
 40
0
 40
0
 40
0
 40
1
 40
1
 40
1
 40
1
 10
4.843973
 20
9.948130
 30
0.0
 10
4.869553
 20
9.962899
 30
0.0
 10
4.885312
 20
9.990193
 30
0.0
 10
4.885312
 20
10.019730
 30
0.0
  0
LWPOLYLINE
  5
1e2
100
AcDbEntity
  8
0
 62
7
100
AcDbPolyline
 90
2
 70
0
 10
4.885312
 20
10.237302
 30
0.0
 10
4.885312
 20
10.237302
 30
0.0
  0
LWPOLYLINE
  5
1e3
100
AcDbEntity
  8
0
 62
7
100
AcDbPolyline
 90
2
 70
0
 10
4.885312
 20
10.019730
 30
0.0
 10
4.885312
 20
10.019730
 30
0.0
  0
SPLINE
  5
1e4
100
AcDbEntity
  8
0
 62
7
100
AcDbSpline
 70
8
 71
3
 72
8
 73
4
 74
0
 40
0
 40
0
 40
0
 40
0
 40
1
 40
1
 40
1
 40
1
 10
4.885312
 20
8.714301
 30
0.0
 10
4.885312
 20
8.743839
 30
0.0
 10
4.869553
 20
8.771133
 30
0.0
 10
4.843973
 20
8.785902
 30
0.0
  0
SPLINE
  5
1e5
100
AcDbEntity
  8
0
 62
7
100
AcDbSpline
 70
8
 71
3
 72
8
 73
4
 74
0
 40
0
 40
0
 40
0
 40
0
 40
1
 40
1
 40
1
 40
1
 10
4.843973
 20
8.785902
 30
0.0
 10
4.818393
 20
8.800671
 30
0.0
 10
4.786876
 20
8.800671
 30
0.0
 10
4.761296
 20
8.785902
 30
0.0
  0
SPLINE
  5
1e6
100
AcDbEntity
  8
0
 62
7
100
AcDbSpline
 70
8
 71
3
 72
8
 73
4
 74
0
 40
0
 40
0
 40
0
 40
0
 40
1
 40
1
 40
1
 40
1
 10
4.761296
 20
8.785902
 30
0.0
 10
4.735715
 20
8.771133
 30
0.0
 10
4.719957
 20
8.743839
 30
0.0
 10
4.719957
 20
8.714301
 30
0.0
  0
SPLINE
  5
1e7
100
AcDbEntity
  8
0
 62
7
100
AcDbSpline
 70
8
 71
3
 72
8
 73
4
 74
0
 40
0
 40
0
 40
0
 40
0
 40
1
 40
1
 40
1
 40
1
 10
4.719957
 20
8.714301
 30
0.0
 10
4.719957
 20
8.684764
 30
0.0
 10
4.735715
 20
8.657470
 30
0.0
 10
4.761296
 20
8.642701
 30
0.0
  0
SPLINE
  5
1e8
100
AcDbEntity
  8
0
 62
7
100
AcDbSpline
 70
8
 71
3
 72
8
 73
4
 74
0
 40
0
 40
0
 40
0
 40
0
 40
1
 40
1
 40
1
 40
1
 10
4.761296
 20
8.642701
 30
0.0
 10
4.786876
 20
8.627932
 30
0.0
 10
4.818393
 20
8.627932
 30
0.0
 10
4.843973
 20
8.642701
 30
0.0
  0
SPLINE
  5
1e9
100
AcDbEntity
  8
0
 62
7
100
AcDbSpline
 70
8
 71
3
 72
8
 73
4
 74
0
 40
0
 40
0
 40
0
 40
0
 40
1
 40
1
 40
1
 40
1
 10
4.843973
 20
8.642701
 30
0.0
 10
4.869553
 20
8.657470
 30
0.0
 10
4.885312
 20
8.684764
 30
0.0
 10
4.885312
 20
8.714301
 30
0.0
  0
LWPOLYLINE
  5
1ea
100
AcDbEntity
  8
0
 62
7
100
AcDbPolyline
 90
5
 70
0
 10
4.719957
 20
9.014550
 30
0.0
 10
4.883136
 20
9.014550
 30
0.0
 10
4.883136
 20
8.851372
 30
0.0
 10
4.719957
 20
8.851372
 30
0.0
 10
4.719957
 20
9.014550
 30
0.0
  0
SPLINE
  5
1eb
100
AcDbEntity
  8
0
 62
7
100
AcDbSpline
 70
8
 71
3
 72
8
 73
4
 74
0
 40
0
 40
0
 40
0
 40
0
 40
1
 40
1
 40
1
 40
1
 10
4.885312
 20
8.496730
 30
0.0
 10
4.885312
 20
8.526268
 30
0.0
 10
4.869553
 20
8.553562
 30
0.0
 10
4.843973
 20
8.568331
 30
0.0
  0
SPLINE
  5
1ec
100
AcDbEntity
  8
0
 62
7
100
AcDbSpline
 70
8
 71
3
 72
8
 73
4
 74
0
 40
0
 40
0
 40
0
 40
0
 40
1
 40
1
 40
1
 40
1
 10
4.843973
 20
8.568331
 30
0.0
 10
4.818393
 20
8.583099
 30
0.0
 10
4.786876
 20
8.583099
 30
0.0
 10
4.761296
 20
8.568331
 30
0.0
  0
SPLINE
  5
1ed
100
AcDbEntity
  8
0
 62
7
100
AcDbSpline
 70
8
 71
3
 72
8
 73
4
 74
0
 40
0
 40
0
 40
0
 40
0
 40
1
 40
1
 40
1
 40
1
 10
4.761296
 20
8.568331
 30
0.0
 10
4.735715
 20
8.553562
 30
0.0
 10
4.719957
 20
8.526268
 30
0.0
 10
4.719957
 20
8.496730
 30
0.0
  0
SPLINE
  5
1ee
100
AcDbEntity
  8
0
 62
7
100
AcDbSpline
 70
8
 71
3
 72
8
 73
4
 74
0
 40
0
 40
0
 40
0
 40
0
 40
1
 40
1
 40
1
 40
1
 10
4.719957
 20
8.496730
 30
0.0
 10
4.719957
 20
8.467192
 30
0.0
 10
4.735715
 20
8.439898
 30
0.0
 10
4.761296
 20
8.425130
 30
0.0
  0
SPLINE
  5
1ef
100
AcDbEntity
  8
0
 62
7
100
AcDbSpline
 70
8
 71
3
 72
8
 73
4
 74
0
 40
0
 40
0
 40
0
 40
0
 40
1
 40
1
 40
1
 40
1
 10
4.761296
 20
8.425130
 30
0.0
 10
4.786876
 20
8.410361
 30
0.0
 10
4.818393
 20
8.410361
 30
0.0
 10
4.843973
 20
8.425130
 30
0.0
  0
SPLINE
  5
1f0
100
AcDbEntity
  8
0
 62
7
100
AcDbSpline
 70
8
 71
3
 72
8
 73
4
 74
0
 40
0
 40
0
 40
0
 40
0
 40
1
 40
1
 40
1
 40
1
 10
4.843973
 20
8.425130
 30
0.0
 10
4.869553
 20
8.439898
 30
0.0
 10
4.885312
 20
8.467192
 30
0.0
 10
4.885312
 20
8.496730
 30
0.0
  0
LWPOLYLINE
  5
1f1
100
AcDbEntity
  8
0
 62
7
100
AcDbPolyline
 90
2
 70
0
 10
4.885312
 20
8.714301
 30
0.0
 10
4.885312
 20
8.714301
 30
0.0
  0
SPLINE
  5
1f2
100
AcDbEntity
  8
0
 62
7
100
AcDbSpline
 70
8
 71
3
 72
8
 73
4
 74
0
 40
0
 40
0
 40
0
 40
0
 40
1
 40
1
 40
1
 40
1
 10
4.700376
 20
8.333551
 30
0.0
 10
4.700392
 20
8.355327
 30
0.0
 10
4.688784
 20
8.375455
 30
0.0
 10
4.669929
 20
8.386347
 30
0.0
  0
SPLINE
  5
1f3
100
AcDbEntity
  8
0
 62
7
100
AcDbSpline
 70
8
 71
3
 72
8
 73
4
 74
0
 40
0
 40
0
 40
0
 40
0
 40
1
 40
1
 40
1
 40
1
 10
4.669929
 20
8.386347
 30
0.0
 10
4.651073
 20
8.397240
 30
0.0
 10
4.627838
 20
8.397240
 30
0.0
 10
4.608983
 20
8.386347
 30
0.0
  0
SPLINE
  5
1f4
100
AcDbEntity
  8
0
 62
7
100
AcDbSpline
 70
8
 71
3
 72
8
 73
4
 74
0
 40
0
 40
0
 40
0
 40
0
 40
1
 40
1
 40
1
 40
1
 10
4.608983
 20
8.386347
 30
0.0
 10
4.590127
 20
8.375455
 30
0.0
 10
4.578520
 20
8.355327
 30
0.0
 10
4.578536
 20
8.333551
 30
0.0
  0
SPLINE
  5
1f5
100
AcDbEntity
  8
0
 62
7
100
AcDbSpline
 70
8
 71
3
 72
8
 73
4
 74
0
 40
0
 40
0
 40
0
 40
0
 40
1
 40
1
 40
1
 40
1
 10
4.578536
 20
8.333551
 30
0.0
 10
4.578561
 20
8.299924
 30
0.0
 10
4.605828
 20
8.272676
 30
0.0
 10
4.639456
 20
8.272676
 30
0.0
  0
SPLINE
  5
1f6
100
AcDbEntity
  8
0
 62
7
100
AcDbSpline
 70
8
 71
3
 72
8
 73
4
 74
0
 40
0
 40
0
 40
0
 40
0
 40
1
 40
1
 40
1
 40
1
 10
4.639456
 20
8.272676
 30
0.0
 10
4.673083
 20
8.272676
 30
0.0
 10
4.700351
 20
8.299924
 30
0.0
 10
4.700376
 20
8.333551
 30
0.0
  0
LWPOLYLINE
  5
1f7
100
AcDbEntity
  8
0
 62
7
100
AcDbPolyline
 90
2
 70
0
 10
4.885312
 20
8.496730
 30
0.0
 10
4.885312
 20
8.496730
 30
0.0
  0
LWPOLYLINE
  5
1f8
100
AcDbEntity
  8
0
 62
7
100
AcDbPolyline
 90
2
 70
0
 10
4.700376
 20
8.333551
 30
0.0
 10
4.700376
 20
8.333551
 30
0.0
  0
ENDSEC
  0
SECTION
  2
OBJECTS
  0
DICTIONARY
  5
C
330
0
100
AcDbDictionary
  3
ACAD_GROUP
350
D
  3
ACAD_MLINESTYLE
350
17
  0
DICTIONARY
  5
D
330
C
100
AcDbDictionary
  0
DICTIONARY
  5
1A
330
C
100
AcDbDictionary
  0
DICTIONARY
  5
17
330
C
100
AcDbDictionary
  3
STANDARD
350
18
  0
DICTIONARY
  5
19
330
C
100
AcDbDictionary
  0
ENDSEC
  0
EOF
